<svg xmlns="http://www.w3.org/2000/svg" width="43" height="43" viewBox="0 0 43 43">
  <title>Instagram</title>
  <g>
    <path d="M41.5,28.5a1.558,1.558,0,0,1-.57-.11,1.527,1.527,0,0,1-.491-.33,1.5,1.5,0,0,1,0-2.121,1.566,1.566,0,0,1,.231-.189,2.153,2.153,0,0,1,.26-.141,2.423,2.423,0,0,1,.28-.079,1.5,1.5,0,1,1,.29,2.97Z" fill="#3e4166"/>
    <path d="M33.5,43H9.5A9.511,9.511,0,0,1,0,33.5V9.5A9.511,9.511,0,0,1,9.5,0h24A9.511,9.511,0,0,1,43,9.5V20.708a1.5,1.5,0,0,1-3,0V9.5A6.508,6.508,0,0,0,33.5,3H9.5A6.508,6.508,0,0,0,3,9.5v24A6.508,6.508,0,0,0,9.5,40h24A6.508,6.508,0,0,0,40,33.5a1.5,1.5,0,0,1,3,0A9.511,9.511,0,0,1,33.5,43Z" fill="#3e4166"/>
    <path d="M21.5,33A11.5,11.5,0,1,1,33,21.5,11.513,11.513,0,0,1,21.5,33Zm0-20A8.5,8.5,0,1,0,30,21.5,8.51,8.51,0,0,0,21.5,13Z" fill="#3e4166"/>
    <path d="M34,12a2,2,0,1,1,2-2A2,2,0,0,1,34,12Zm0-3a1,1,0,1,0,1,1A1,1,0,0,0,34,9Z" fill="#3e4166"/>
  </g>
</svg>
