<?xml version="1.0" encoding="UTF-8"?><svg id="a" xmlns="http://www.w3.org/2000/svg" width="24" height="24" viewBox="0 0 24 24"><path d="m20,2.25H4c-1.5166,0-2.75,1.2334-2.75,2.75v2c0,1.5166,1.2334,2.75,2.75,2.75h16c1.5166,0,2.75-1.2334,2.75-2.75v-2c0-1.5166-1.2334-2.75-2.75-2.75Zm1.25,4.75c0,.68945-.56055,1.25-1.25,1.25H4c-.68945,0-1.25-.56055-1.25-1.25v-2c0-.68945.56055-1.25,1.25-1.25h16c.68945,0,1.25.56055,1.25,1.25v2Zm-12.25,5.75c-.41406,0-.75-.33594-.75-.75s.33594-.75.75-.75h6c.41406,0,.75.33594.75.75s-.33594.75-.75.75h-6Zm11-1.75c.25684,0,.50653-.02936.75-.07581v8.07581c0,1.5166-1.2334,2.75-2.75,2.75H6c-1.5166,0-2.75-1.2334-2.75-2.75v-8.07581c.24347.04645.49316.07581.75.07581h.75v8c0,.68945.56055,1.25,1.25,1.25h12c.68945,0,1.25-.56055,1.25-1.25v-8h.75Z" stroke-width="0"/></svg>