<?xml version="1.0" encoding="UTF-8"?><svg id="a" xmlns="http://www.w3.org/2000/svg" width="24" height="24" viewBox="0 0 24 24"><path d="m20,6.25h-2.25v-1.25c0-1.5166-1.2334-2.75-2.75-2.75h-6c-1.5166,0-2.75,1.2334-2.75,2.75v1.25h-2.25c-1.5166,0-2.75,1.2334-2.75,2.75v10c0,1.5166,1.2334,2.75,2.75,2.75h16c1.5166,0,2.75-1.2334,2.75-2.75v-10c0-1.5166-1.2334-2.75-2.75-2.75Zm-12.25-1.25c0-.68945.56055-1.25,1.25-1.25h6c.68945,0,1.25.56055,1.25,1.25v1.25H7.75v-1.25Zm13.5,14c0,.68945-.56055,1.25-1.25,1.25H4c-.68945,0-1.25-.56055-1.25-1.25v-6.8924l8.97168,3.58868c.08936.03564.18359.05371.27832.05371s.18896-.01807.27832-.05371l8.97168-3.58868v6.8924Zm0-8.50763l-9.25,3.70001-9.25-3.70001v-1.49237c0-.68945.56055-1.25,1.25-1.25h16c.68945,0,1.25.56055,1.25,1.25v1.49237Z" stroke-width="0"/></svg>