<?xml version="1.0" encoding="UTF-8"?><svg id="a" xmlns="http://www.w3.org/2000/svg" width="24" height="24" viewBox="0 0 24 24"><path d="m18,4.25h-1.25v-1.25c0-.41406-.33594-.75-.75-.75s-.75.33594-.75.75v1.25h-6.5v-1.25c0-.41406-.33594-.75-.75-.75s-.75.33594-.75.75v1.25h-1.25c-2.06738,0-3.75,1.68213-3.75,3.75v10c0,2.06787,1.68262,3.75,3.75,3.75h12c2.06738,0,3.75-1.68213,3.75-3.75v-10c0-2.06787-1.68262-3.75-3.75-3.75Zm2.25,13.75c0,1.24072-1.00977,2.25-2.25,2.25H6c-1.24023,0-2.25-1.00928-2.25-2.25v-6.25h16.5v6.25Zm0-7.75H3.75v-2.25c0-1.24072,1.00977-2.25,2.25-2.25h1.25v1.25c0,.41406.33594.75.75.75s.75-.33594.75-.75v-1.25h6.5v1.25c0,.41406.33594.75.75.75s.75-.33594.75-.75v-1.25h1.25c1.24023,0,2.25,1.00928,2.25,2.25v2.25Zm-14.25,3.75c0-.55231.44769-1,1-1s1,.44769,1,1c0,.55225-.44769,1-1,1s-1-.44775-1-1Zm0,4c0-.55231.44769-1,1-1s1,.44769,1,1c0,.55225-.44769,1-1,1s-1-.44775-1-1Zm3.25-4c0-.41406.33594-.75.75-.75h8c.41406,0,.75.33594.75.75s-.33594.75-.75.75h-8c-.41406,0-.75-.33594-.75-.75Zm0,4c0-.41406.33594-.75.75-.75h8c.41406,0,.75.33594.75.75s-.33594.75-.75.75h-8c-.41406,0-.75-.33594-.75-.75Z" stroke-width="0"/></svg>