<?xml version="1.0" encoding="UTF-8"?><svg id="a" xmlns="http://www.w3.org/2000/svg" width="24" height="24" viewBox="0 0 24 24"><path d="m19.25,4.99971h1.5v8c0,1.5166-1.2334,2.75-2.75,2.75h-5.25v2.74237l4.52832,1.81134c.38477.15381.57227.59033.41797.97461-.11719.29346-.39844.47168-.69629.47168-.09277,0-.1875-.01709-.27832-.05371l-4.72168-1.88867-4.72168,1.88867c-.38428.15479-.82031-.03271-.97461-.41797-.15381-.38428.0332-.8208.41797-.97461l4.52832-1.81134v-2.74237h-5.25c-1.5166,0-2.75-1.2334-2.75-2.75V4.99971h1.5v8c0,.68945.56055,1.25,1.25,1.25h12c.68945,0,1.25-.56055,1.25-1.25V4.99971Zm1.75-2.75H3c-.41406,0-.75.33594-.75.75s.33594.75.75.75h18c.41406,0,.75-.33594.75-.75s-.33594-.75-.75-.75Zm-12.46973,8.78027l2.35303-2.35303,1.49268,2.23877c.12451.18701.32666.30811.55029.33057.02441.00244.04932.00342.07373.00342.19824,0,.38867-.07812.53027-.21973l3-3c.29297-.29297.29297-.76758,0-1.06055s-.76758-.29297-1.06055,0l-2.35352,2.35303-1.49219-2.23877c-.12451-.18701-.32666-.30811-.55029-.33057-.22412-.02441-.4458.05713-.604.21631l-3,3c-.29297.29297-.29297.76758,0,1.06055s.76758.29297,1.06055,0Z" stroke-width="0"/></svg>