<?xml version="1.0" encoding="UTF-8"?><svg id="a" xmlns="http://www.w3.org/2000/svg" width="24" height="24" viewBox="0 0 24 24"><path d="m19.25,4.99971h1.5v8c0,1.5166-1.2334,2.75-2.75,2.75h-5.25v2.74237l4.52832,1.81134c.38477.15381.57178.59033.41797.97461-.11719.29346-.39893.47168-.69629.47168-.09277,0-.18701-.01709-.27832-.05371l-4.72168-1.88867-4.72168,1.88867c-.3833.15479-.8208-.03271-.97461-.41797-.15381-.38428.0332-.8208.41797-.97461l4.52832-1.81134v-2.74237h-5.25c-1.5166,0-2.75-1.2334-2.75-2.75V4.99971h1.5v8c0,.68945.56055,1.25,1.25,1.25h12c.68945,0,1.25-.56055,1.25-1.25V4.99971Zm1.75-2.75H3c-.41406,0-.75.33594-.75.75s.33594.75.75.75h18c.41406,0,.75-.33594.75-.75s-.33594-.75-.75-.75Zm-12.25,8.75v-2c0-.41406-.33594-.75-.75-.75s-.75.33594-.75.75v2c0,.41406.33594.75.75.75s.75-.33594.75-.75Zm4,0v-3c0-.41406-.33594-.75-.75-.75s-.75.33594-.75.75v3c0,.41406.33594.75.75.75s.75-.33594.75-.75Zm4,0v-4c0-.41406-.33594-.75-.75-.75s-.75.33594-.75.75v4c0,.41406.33594.75.75.75s.75-.33594.75-.75Z" stroke-width="0"/></svg>