<?xml version="1.0" encoding="UTF-8"?><svg id="a" xmlns="http://www.w3.org/2000/svg" width="24" height="24" viewBox="0 0 24 24"><path d="m21.75,2.99971c0,.41406-.33594.75-.75.75H3c-.41406,0-.75-.33594-.75-.75s.33594-.75.75-.75h18c.41406,0,.75.33594.75.75Zm-2.5,10c0,.68945-.56055,1.25-1.25,1.25H6c-.68945,0-1.25-.56055-1.25-1.25V4.99971h-1.5v8c0,1.5166,1.2334,2.75,2.75,2.75h5.25v2.74237l-4.52832,1.81134c-.38477.15381-.57178.59033-.41797.97461.15381.38525.59229.57275.97461.41797l4.72168-1.88867,4.72168,1.88867c.09131.03662.18555.05371.27832.05371.29736,0,.5791-.17822.69629-.47168.15381-.38428-.0332-.8208-.41797-.97461l-4.52832-1.81134v-2.74237h5.25c1.5166,0,2.75-1.2334,2.75-2.75V4.99971h-1.5v8Z" stroke-width="0"/></svg>