<?xml version="1.0" encoding="UTF-8"?><svg id="a" xmlns="http://www.w3.org/2000/svg" width="24" height="24" viewBox="0 0 24 24"><path d="m19.25,4.99971h1.5v8c0,1.5166-1.2334,2.75-2.75,2.75h-5.25v2.74237l4.52832,1.81134c.38477.15381.57227.59033.41797.97461-.11719.29346-.39844.47168-.69629.47168-.09277,0-.1875-.01709-.27832-.05371l-4.72168-1.88867-4.72168,1.88867c-.38281.15479-.82031-.03271-.97461-.41797-.1543-.38428.0332-.8208.41797-.97461l4.52832-1.81134v-2.74237h-5.25c-1.5166,0-2.75-1.2334-2.75-2.75V4.99971h1.5v8c0,.68945.56055,1.25,1.25,1.25h12c.68945,0,1.25-.56055,1.25-1.25V4.99971Zm1.75-2.75H3c-.41406,0-.75.33594-.75.75s.33594.75.75.75h18c.41406,0,.75-.33594.75-.75s-.33594-.75-.75-.75Zm-8.5,9h-2.5c-.41406,0-.75.33594-.75.75s.33594.75.75.75h1.25v.25c0,.41406.33594.75.75.75s.75-.33594.75-.75v-.27527c1.12158-.12622,2-1.06964,2-2.22473,0-1.24072-1.00977-2.25-2.25-2.25h-1c-.41309,0-.75-.33643-.75-.75s.33691-.75.75-.75h2.5c.41406,0,.75-.33594.75-.75s-.33594-.75-.75-.75h-1.25v-.25c0-.41406-.33594-.75-.75-.75s-.75.33594-.75.75v.27527c-1.12158.12622-2,1.06964-2,2.22473,0,1.24072,1.00977,2.25,2.25,2.25h1c.41309,0,.75.33643.75.75s-.33691.75-.75.75Z" stroke-width="0"/></svg>