<?xml version="1.0" encoding="UTF-8"?><svg id="a" xmlns="http://www.w3.org/2000/svg" width="24" height="24" viewBox="0 0 24 24"><path d="m21.75,20c0,.41406-.33594.75-.75.75H5c-1.5166,0-2.75-1.2334-2.75-2.75V4c0-.41406.33594-.75.75-.75s.75.33594.75.75v14c0,.68945.56055,1.25,1.25,1.25h16c.41406,0,.75.33594.75.75Zm-14.75-3.25c.41406,0,.75-.33594.75-.75v-4c0-.41406-.33594-.75-.75-.75s-.75.33594-.75.75v4c0,.41406.33594.75.75.75Zm4,0c.41406,0,.75-.33594.75-.75v-8c0-.41406-.33594-.75-.75-.75s-.75.33594-.75.75v8c0,.41406.33594.75.75.75Zm4,0c.41406,0,.75-.33594.75-.75v-6c0-.41406-.33594-.75-.75-.75s-.75.33594-.75.75v6c0,.41406.33594.75.75.75Zm4,0c.41406,0,.75-.33594.75-.75V6c0-.41406-.33594-.75-.75-.75s-.75.33594-.75.75v10c0,.41406.33594.75.75.75Z" stroke-width="0"/></svg>