<?xml version="1.0" encoding="UTF-8"?><svg id="a" xmlns="http://www.w3.org/2000/svg" width="24" height="24" viewBox="0 0 24 24"><path d="m6.75,20v2c0,.41406-.33594.75-.75.75s-.75-.33594-.75-.75v-2c0-.41406.33594-.75.75-.75s.75.33594.75.75Zm5.25-4.75c-.41406,0-.75.33594-.75.75v6c0,.41406.33594.75.75.75s.75-.33594.75-.75v-6c0-.41406-.33594-.75-.75-.75Zm6-4c-.41406,0-.75.33594-.75.75v10c0,.41406.33594.75.75.75s.75-.33594.75-.75v-10c0-.41406-.33594-.75-.75-.75Zm2-10h-4c-.41406,0-.75.33594-.75.75s.33594.75.75.75h2.18945l-6.18945,6.18945-3.46973-3.46973c-.29297-.29297-.76758-.29297-1.06055,0l-4,4c-.29297.29297-.29297.76758,0,1.06055s.76758.29297,1.06055,0l3.46973-3.46973,3.46973,3.46973c.14648.14648.33789.21973.53027.21973s.38379-.07324.53027-.21973l6.71973-6.71973v2.18945c0,.41406.33594.75.75.75s.75-.33594.75-.75V2c0-.41406-.33594-.75-.75-.75Z" stroke-width="0"/></svg>