<?xml version="1.0" encoding="UTF-8"?><svg id="a" xmlns="http://www.w3.org/2000/svg" width="24" height="24" viewBox="0 0 24 24"><path d="m18.75,20v2c0,.41406-.33594.75-.75.75s-.75-.33594-.75-.75v-2c0-.41406.33594-.75.75-.75s.75.33594.75.75Zm-6.75-4.75c-.41406,0-.75.33594-.75.75v6c0,.41406.33594.75.75.75s.75-.33594.75-.75v-6c0-.41406-.33594-.75-.75-.75Zm-6-4c-.41406,0-.75.33594-.75.75v10c0,.41406.33594.75.75.75s.75-.33594.75-.75v-10c0-.41406-.33594-.75-.75-.75Zm14-6c-.41406,0-.75.33594-.75.75v2.18945L12.53027,1.46973c-.29297-.29297-.76758-.29297-1.06055,0l-3.46973,3.46973-3.46973-3.46973c-.29297-.29297-.76758-.29297-1.06055,0s-.29297.76758,0,1.06055l4,4c.29297.29297.76758.29297,1.06055,0l3.46973-3.46973,6.18945,6.18945h-2.18945c-.41406,0-.75.33594-.75.75s.33594.75.75.75h4c.41406,0,.75-.33594.75-.75v-4c0-.41406-.33594-.75-.75-.75Z" stroke-width="0"/></svg>