<?xml version="1.0" encoding="UTF-8"?><svg id="a" xmlns="http://www.w3.org/2000/svg" width="24" height="24" viewBox="0 0 24 24"><path d="m12,12.75h10c.41406,0,.75-.33594.75-.75,0-5.92773-4.82227-10.75-10.75-10.75-.41406,0-.75.33594-.75.75v10c0,.41406.33594.75.75.75Zm.75-9.96973c4.50391.36328,8.10645,3.96582,8.46973,8.46973h-8.46973V2.78027Zm9.25,11.21973c.19965,0,.38855-.03815.57043-.09259-.90399,5.01947-5.29456,8.84259-10.57043,8.84259-5.92773,0-10.75-4.82227-10.75-10.75C1.25,6.72412,5.07312,2.33356,10.09259,1.42957c-.05444.18188-.09259.37079-.09259.57043v.97382c-4.1413.9173-7.25,4.61285-7.25,9.02618,0,5.10059,4.14941,9.25,9.25,9.25,4.41333,0,8.10889-3.1087,9.02618-7.25h.97382Z" stroke-width="0"/></svg>