<?xml version="1.0" encoding="UTF-8"?><svg id="a" xmlns="http://www.w3.org/2000/svg" width="24" height="24" viewBox="0 0 24 24"><path d="m11,2.25c-.41406,0-.75.33594-.75.75v10c0,.41406.33594.75.75.75h10c.41406,0,.75-.33594.75-.75,0-5.92773-4.82227-10.75-10.75-10.75Zm.75,10V3.78027c4.50391.36279,8.10645,3.96631,8.46973,8.46973h-8.46973Zm6.21307,2.75h1.54736c-.90802,3.86255-4.37433,6.75-8.51044,6.75-4.8252,0-8.75-3.92529-8.75-8.75,0-4.13574,2.88715-7.60229,6.75-8.51038v1.54724c-3.02716.87097-5.25,3.65979-5.25,6.96313,0,3.99756,3.25195,7.25,7.25,7.25,3.30365,0,6.0921-2.22308,6.96307-5.25Z" stroke-width="0"/></svg>