<?xml version="1.0" encoding="UTF-8"?><svg id="a" xmlns="http://www.w3.org/2000/svg" width="24" height="24" viewBox="0 0 24 24"><path d="m20.75,21c0,.41406-.33594.75-.75.75H6c-1.5166,0-2.75-1.2334-2.75-2.75V3c0-.41406.33594-.75.75-.75s.75.33594.75.75v16c0,.68945.56055,1.25,1.25,1.25h14c.41406,0,.75.33594.75.75Zm-12.75-3.25h8c.41406,0,.75-.33594.75-.75s-.33594-.75-.75-.75h-8c-.41406,0-.75.33594-.75.75s.33594.75.75.75Zm0-5h6c.41406,0,.75-.33594.75-.75s-.33594-.75-.75-.75h-6c-.41406,0-.75.33594-.75.75s.33594.75.75.75Zm0-5h10c.41406,0,.75-.33594.75-.75s-.33594-.75-.75-.75h-10c-.41406,0-.75.33594-.75.75s.33594.75.75.75Z" stroke-width="0"/></svg>