<?xml version="1.0" encoding="UTF-8"?><svg id="a" xmlns="http://www.w3.org/2000/svg" width="24" height="24" viewBox="0 0 24 24"><path d="m21.75,20c0,.41406-.33594.75-.75.75H5c-1.5166,0-2.75-1.2334-2.75-2.75V4c0-.41406.33594-.75.75-.75s.75.33594.75.75v14c0,.68945.56055,1.25,1.25,1.25h16c.41406,0,.75.33594.75.75Zm-14.21973-5.46973l3.52539-3.52539,4.47559,3.58057c.1377.11035.30371.16455.46875.16455.19238,0,.38477-.07422.53027-.21973l4-4c.29297-.29297.29297-.76758,0-1.06055s-.76758-.29297-1.06055,0l-3.52539,3.52539-4.47559-3.58057c-.29834-.23975-.72852-.21436-.99902.05518l-4,4c-.29297.29297-.29297.76758,0,1.06055s.76758.29297,1.06055,0Z" stroke-width="0"/></svg>