<?xml version="1.0" encoding="UTF-8"?><svg id="a" xmlns="http://www.w3.org/2000/svg" width="24" height="24" viewBox="0 0 24 24"><path d="m9.53027,2.46973c.29297.29297.29297.76758,0,1.06055l-4,4c-.14648.14648-.33838.21973-.53027.21973s-.38379-.07324-.53027-.21973l-2-2c-.29297-.29297-.29297-.76758,0-1.06055s.76758-.29297,1.06055,0l1.46973,1.46973,3.46973-3.46973c.29297-.29297.76758-.29297,1.06055,0Zm11.46973,1.78027h-9c-.41406,0-.75.33594-.75.75s.33594.75.75.75h9c.41406,0,.75-.33594.75-.75s-.33594-.75-.75-.75Zm-12.53027,5.21973l-3.46973,3.46973-1.46973-1.46973c-.29297-.29297-.76758-.29297-1.06055,0s-.29297.76758,0,1.06055l2,2c.14648.14648.33838.21973.53027.21973s.38379-.07324.53027-.21973l4-4c.29297-.29297.29297-.76758,0-1.06055s-.76758-.29297-1.06055,0Zm12.53027,1.78027h-9c-.41406,0-.75.33594-.75.75s.33594.75.75.75h9c.41406,0,.75-.33594.75-.75s-.33594-.75-.75-.75Zm-12.53027,5.21973l-3.46973,3.46973-1.46973-1.46973c-.29297-.29297-.76758-.29297-1.06055,0s-.29297.76758,0,1.06055l2,2c.14648.14648.33838.21973.53027.21973s.38379-.07324.53027-.21973l4-4c.29297-.29297.29297-.76758,0-1.06055s-.76758-.29297-1.06055,0Zm12.53027,1.78027h-9c-.41406,0-.75.33594-.75.75s.33594.75.75.75h9c.41406,0,.75-.33594.75-.75s-.33594-.75-.75-.75Z" stroke-width="0"/></svg>