<?xml version="1.0" encoding="UTF-8"?><svg id="a" xmlns="http://www.w3.org/2000/svg" width="24" height="24" viewBox="0 0 24 24"><path d="m21.75,7c0,.41406-.33594.75-.75.75h-8c-.41406,0-.75-.33594-.75-.75s.33594-.75.75-.75h8c.41406,0,.75.33594.75.75Zm-.75,9.25h-8c-.41406,0-.75.33594-.75.75s.33594.75.75.75h8c.41406,0,.75-.33594.75-.75s-.33594-.75-.75-.75ZM9.75,6v2c0,1.5166-1.2334,2.75-2.75,2.75h-2c-1.5166,0-2.75-1.2334-2.75-2.75v-2c0-1.5166,1.2334-2.75,2.75-2.75h2c1.5166,0,2.75,1.2334,2.75,2.75Zm-1.5,0c0-.68945-.56055-1.25-1.25-1.25h-2c-.68945,0-1.25.56055-1.25,1.25v2c0,.68945.56055,1.25,1.25,1.25h2c.68945,0,1.25-.56055,1.25-1.25v-2Zm1.5,10v2c0,1.5166-1.2334,2.75-2.75,2.75h-2c-1.5166,0-2.75-1.2334-2.75-2.75v-2c0-1.5166,1.2334-2.75,2.75-2.75h2c1.5166,0,2.75,1.2334,2.75,2.75Zm-1.5,0c0-.68945-.56055-1.25-1.25-1.25h-2c-.68945,0-1.25.56055-1.25,1.25v2c0,.68945.56055,1.25,1.25,1.25h2c.68945,0,1.25-.56055,1.25-1.25v-2Z" stroke-width="0"/></svg>