<?xml version="1.0" encoding="UTF-8"?><svg id="a" xmlns="http://www.w3.org/2000/svg" width="24" height="24" viewBox="0 0 24 24"><path d="m15,1.25h-6c-2.57666,0-3.75,5.57227-3.75,10.75s1.17334,10.75,3.75,10.75h6c2.57666,0,3.75-5.57227,3.75-10.75s-1.17334-10.75-3.75-10.75Zm-6,20c-.67285,0-2.25-3.14746-2.25-9.25s1.57715-9.25,2.25-9.25,2.25,3.14746,2.25,9.25-1.57715,9.25-2.25,9.25Zm6,0h-3.9624c.38739-.66663.70447-1.52478.95764-2.5h4.42841c-.4881,1.6532-1.07605,2.5-1.42365,2.5Zm1.78546-4h-4.46753c.14075-.79706.24768-1.63727.31873-2.5h4.4942c-.08179.93262-.20111,1.76593-.3454,2.5Zm.46454-5.25c0,.43292-.00977.84692-.02478,1.25h-4.50079c.0152-.41724.02557-.83472.02557-1.25s-.01038-.83276-.02557-1.25h4.50079c.01501.40308.02478.81708.02478,1.25Zm-.11914-2.75h-4.4942c-.07104-.86273-.17798-1.70294-.31873-2.5h4.46753c.14429.73407.26361,1.56738.3454,2.5Zm-5.13562-4c-.25317-.97522-.57025-1.83337-.95764-2.5h3.9624c.3476,0,.93555.8468,1.42365,2.5h-4.42841Zm-1.99524,6.75c0,3.31372-.44769,6-1,6s-1-2.68628-1-6,.44769-6,1-6,1,2.68628,1,6Z" stroke-width="0"/></svg>