<?xml version="1.0" encoding="UTF-8"?><svg id="a" xmlns="http://www.w3.org/2000/svg" width="24" height="24" viewBox="0 0 24 24"><path d="m16,9.25c-3.25098,0-6.75.86035-6.75,2.75v8c0,1.88965,3.49902,2.75,6.75,2.75s6.75-.86035,6.75-2.75v-8c0-1.88965-3.49902-2.75-6.75-2.75Zm0,1.5c3.35815,0,5.12732.90631,5.24548,1.2442-.12457.3526-1.89252,1.2558-5.24548,1.2558-3.35815,0-5.12732-.90631-5.24548-1.2442.12457-.3526,1.89252-1.2558,5.24548-1.2558Zm0,10.5c-3.37451,0-5.14746-.91602-5.25-1.25v-2.19177c1.32104.63763,3.32605.94177,5.25.94177,1.92426,0,3.92969-.30426,5.25067-.94214l.00079,2.17847c-.104.34766-1.87695,1.26367-5.25146,1.26367Zm0-4c-3.37451,0-5.14746-.91602-5.25-1.25l-.00079-2.1922c1.32104.63794,3.32648.9422,5.25079.9422s3.92969-.30426,5.25067-.94214l.00079,2.17847c-.104.34766-1.87695,1.26367-5.25146,1.26367Zm-7.70612,3.98718c-.0993.00171-.19415.01282-.29388.01282-3.37451,0-5.14746-.91602-5.25-1.25v-2.19177c1.32104.63763,3.32605.94177,5.25.94177v-1.5c-3.37451,0-5.14746-.91602-5.25-1.25v-2.19177c1.32104.63763,3.32605.94177,5.25.94177v-1.5c-3.37451,0-5.14746-.91602-5.25-1.25v-2.19177c1.32104.63763,3.32605.94177,5.25.94177.10059,0,.20178-.00336.30273-.005.34326-.67957.96167-1.21741,1.76648-1.62683-.60724.07928-1.29065.13184-2.06921.13184-3.37451,0-5.14746-.91602-5.25-1.25l-.00079-2.1922c1.32104.63794,3.32648.9422,5.25079.9422s3.92969-.30426,5.25067-.94214l.00079,2.17847c-.01917.06409-.11444.15088-.24664.24432.56525-.09216,1.1499-.15424,1.74048-.19031.00037-.01379.0047-.02643.0047-.04034v-4c0-1.88965-3.49902-2.75-6.75-2.75S1.25,2.11035,1.25,4v16c0,1.88965,3.49902,2.75,6.75,2.75.57501,0,1.14319-.02954,1.69366-.08118-.62872-.3811-1.11371-.85492-1.39978-1.43164Zm-.29388-18.48718c3.35815,0,5.12732.90631,5.24548,1.2442-.12457.3526-1.89252,1.2558-5.24548,1.2558-3.35815,0-5.12732-.90631-5.24548-1.2442.12457-.3526,1.89252-1.2558,5.24548-1.2558Z" stroke-width="0"/></svg>