<?xml version="1.0" encoding="UTF-8"?><svg id="a" xmlns="http://www.w3.org/2000/svg" width="24" height="24" viewBox="0 0 24 24"><path d="m15,1.25h-6c-2.57617,0-3.75,5.57227-3.75,10.75s1.17383,10.75,3.75,10.75h6c2.57617,0,3.75-5.57227,3.75-10.75s-1.17383-10.75-3.75-10.75Zm2.13086,8h-4.49426c-.07098-.86273-.17804-1.70294-.31879-2.5h4.46765c.14429.73407.26361,1.56738.3454,2.5Zm-2.13086-6.5c.3476,0,.93555.8468,1.42365,2.5h-4.42859c-.25323-.97522-.57031-1.83337-.9577-2.5h3.96265Zm-6,18.5c-.67285,0-2.25-3.14746-2.25-9.25s1.57715-9.25,2.25-9.25,2.25,3.14746,2.25,9.25-1.57715,9.25-2.25,9.25Zm6,0h-3.96265c.38739-.66663.70447-1.52478.9577-2.5h4.42859c-.4881,1.6532-1.07605,2.5-1.42365,2.5Zm1.78546-4h-4.46765c.14075-.79706.2478-1.63727.31879-2.5h4.49426c-.08179.93262-.20111,1.76593-.3454,2.5Zm-4.06104-4c.0152-.41724.02557-.83472.02557-1.25s-.01038-.83276-.02557-1.25h4.50079c.01501.40308.02478.81708.02478,1.25s-.00977.84692-.02478,1.25h-4.50079Z" stroke-width="0"/></svg>