<?xml version="1.0" encoding="UTF-8"?><svg id="a" xmlns="http://www.w3.org/2000/svg" width="24" height="24" viewBox="0 0 24 24"><path d="m16,9.25c-3.72168,0-6.75,3.02832-6.75,6.75s3.02832,6.75,6.75,6.75,6.75-3.02832,6.75-6.75-3.02832-6.75-6.75-6.75Zm0,12c-2.89453,0-5.25-2.35547-5.25-5.25s2.35547-5.25,5.25-5.25,5.25,2.35547,5.25,5.25-2.35547,5.25-5.25,5.25Zm-6.12079-.10913c-.59802.06909-1.22986.10913-1.87921.10913-3.375,0-5.14746-.91602-5.25-1.25v-2.19177c1.32104.63763,3.32605.94177,5.25.94177.16785,0,.328-.00916.49243-.01343-.17462-.47736-.30408-.97485-.38519-1.4895-.03638.00024-.07068.00293-.10724.00293-3.375,0-5.14746-.91602-5.25-1.25v-2.19177c1.32104.63763,3.32605.94177,5.25.94177.03687,0,.07147-.00275.10815-.00293.0827-.52234.21527-1.02704.39423-1.51086-.1673.00494-.33118.01379-.50238.01379-3.375,0-5.14746-.91602-5.25-1.25v-2.19177c1.32104.63763,3.32605.94177,5.25.94177.6983,0,1.40643-.0423,2.09052-.12335,1.19501-1.31305,2.81653-2.22479,4.64667-2.51697.00275-.03699.01282-.07184.01282-.10968v-4c0-1.88965-3.49902-2.75-6.75-2.75S1.25,2.11035,1.25,4v16c0,1.88965,3.49902,2.75,6.75,2.75,1.16016,0,2.29108-.10754,3.27661-.30798-.51508-.37866-.98645-.81262-1.3974-1.30115Zm-1.87921-18.39087c3.35956,0,5.12842.90674,5.24573,1.24451-.12579.35278-1.89313,1.25549-5.24573,1.25549-3.35956,0-5.12842-.90674-5.24573-1.24451.12579-.35278,1.89313-1.25549,5.24573-1.25549Zm0,4c1.92438,0,3.92987-.30426,5.25092-.9422l.00104,2.17853c-.10449.34766-1.87695,1.26367-5.25195,1.26367s-5.14746-.91602-5.25-1.25l-.0011-2.19232c1.32098.638,3.32666.94232,5.2511.94232Z" stroke-width="0"/></svg>