<?xml version="1.0" encoding="UTF-8"?><svg id="a" xmlns="http://www.w3.org/2000/svg" width="24" height="24" viewBox="0 0 24 24"><path d="m12,5.25c-5.17773,0-10.75,1.17383-10.75,3.75v6c0,2.57617,5.57227,3.75,10.75,3.75s10.75-1.17383,10.75-3.75v-6c0-2.57617-5.57227-3.75-10.75-3.75Zm-6.75,11.17371c-1.65326-.48816-2.5-1.07611-2.5-1.42371v-3.96265c.66663.38739,1.52478.70447,2.5.9577v4.42865Zm4,.70715c-.93268-.08179-1.76593-.20111-2.5-.34534v-4.46771c.79706.14075,1.63727.2478,2.5.31879v4.49426Zm4,.09436c-.40308.01501-.81708.02478-1.25.02478s-.84692-.00977-1.25-.02478v-4.50079c.41724.0152.83472.02557,1.25.02557s.83276-.01038,1.25-.02557v4.50079Zm4-.43976c-.73407.14429-1.56738.26361-2.5.3454v-4.49426c.86273-.07098,1.70294-.17804,2.5-.31879v4.46765Zm4-1.78546c0,.3476-.8468.93555-2.5,1.42365v-4.42859c.97522-.25323,1.83337-.57031,2.5-.9577v3.96265Zm-9.25-3.75c-6.10303,0-9.25-1.57715-9.25-2.25s3.14697-2.25,9.25-2.25c6.10254,0,9.25,1.57715,9.25,2.25s-3.14746,2.25-9.25,2.25Z" stroke-width="0"/></svg>