<?xml version="1.0" encoding="UTF-8"?><svg id="a" xmlns="http://www.w3.org/2000/svg" width="24" height="24" viewBox="0 0 24 24"><path d="m12,1.25C6.07227,1.25,1.25,6.07227,1.25,12s4.82227,10.75,10.75,10.75,10.75-4.82227,10.75-10.75S17.92773,1.25,12,1.25Zm0,20c-5.10059,0-9.25-4.14941-9.25-9.25S6.89941,2.75,12,2.75s9.25,4.14941,9.25,9.25-4.14941,9.25-9.25,9.25Zm2.64648-13.96484l-4.32617.86523c-1.09961.21875-1.95117,1.07031-2.16992,2.16895l-.86523,4.32715c-.11621.57715.06348,1.1709.48047,1.58789.33301.33398.7793.51562,1.24023.51465.11523,0,.23145-.01074.34766-.03418l4.32617-.86523c1.09961-.21875,1.95117-1.07031,2.16992-2.16895l.86523-4.32715c.11621-.57715-.06348-1.1709-.48047-1.58789-.41699-.41797-1.0166-.59766-1.58789-.48047Zm-.26758,6.10156c-.10059.50195-.49023.8916-.99316.99219l-4.32715.86523c-.12305.02539-.19629-.03418-.23242-.07031s-.09375-.11523-.07031-.23242l.86523-4.32812c.10059-.50195.49023-.8916.99316-.99219l4.32715-.86523c.01953-.00391.03711-.00586.05371-.00586.08789,0,.14844.0459.17871.07617.03613.03613.09375.11523.07031.23242l-.86523,4.32812Zm-1.37891-1.38672c0,.55225-.44769,1-1,1s-1-.44775-1-1c0-.55231.44769-1,1-1s1,.44769,1,1Z" stroke-width="0"/></svg>