<?xml version="1.0" encoding="UTF-8"?><svg id="a" xmlns="http://www.w3.org/2000/svg" width="24" height="24" viewBox="0 0 24 24"><path d="m12,1.25C6.07227,1.25,1.25,6.07227,1.25,12s4.82227,10.75,10.75,10.75,10.75-4.82227,10.75-10.75S17.92773,1.25,12,1.25Zm0,20c-5.10059,0-9.25-4.14941-9.25-9.25S6.89941,2.75,12,2.75s9.25,4.14941,9.25,9.25-4.14941,9.25-9.25,9.25Zm3.6001-5.70068c.24902.33154.18213.80176-.14893,1.05029-1.00195.75244-2.19531,1.15039-3.45117,1.15039-3.17041,0-5.75-2.57959-5.75-5.75s2.57959-5.75,5.75-5.75c1.25586,0,2.44873.39746,3.4502,1.1499.33154.24854.39844.71875.14941,1.0498-.24854.33154-.71875.39941-1.0498.14941-.73975-.55566-1.62158-.84912-2.5498-.84912-2.34326,0-4.25,1.90674-4.25,4.25s1.90674,4.25,4.25,4.25c.92822,0,1.81006-.29395,2.5498-.84961.33252-.24854.80127-.18115,1.05029.14893Z" stroke-width="0"/></svg>