<?xml version="1.0" encoding="UTF-8"?><svg id="a" xmlns="http://www.w3.org/2000/svg" width="24" height="24" viewBox="0 0 24 24"><path d="m7,10.75c2.06738,0,3.75-1.68262,3.75-3.75s-1.68262-3.75-3.75-3.75-3.75,1.68262-3.75,3.75,1.68262,3.75,3.75,3.75Zm0-6c1.24023,0,2.25,1.00977,2.25,2.25s-1.00977,2.25-2.25,2.25-2.25-1.00977-2.25-2.25,1.00977-2.25,2.25-2.25Zm10,8.5c-2.06738,0-3.75,1.68262-3.75,3.75s1.68262,3.75,3.75,3.75,3.75-1.68262,3.75-3.75-1.68262-3.75-3.75-3.75Zm0,6c-1.24023,0-2.25-1.00977-2.25-2.25s1.00977-2.25,2.25-2.25,2.25,1.00977,2.25,2.25-1.00977,2.25-2.25,2.25Zm3.53027-14.71973L4.53027,20.53027c-.14648.14648-.33789.21973-.53027.21973s-.38379-.07324-.53027-.21973c-.29297-.29297-.29297-.76758,0-1.06055L19.46973,3.46973c.29297-.29297.76758-.29297,1.06055,0s.29297.76758,0,1.06055Z" stroke-width="0"/></svg>