<?xml version="1.0" encoding="UTF-8"?><svg id="a" xmlns="http://www.w3.org/2000/svg" width="24" height="24" viewBox="0 0 24 24"><path d="m12,1.25C6.07227,1.25,1.25,6.07227,1.25,12s4.82227,10.75,10.75,10.75,10.75-4.82227,10.75-10.75S17.92773,1.25,12,1.25Zm0,20c-5.10059,0-9.25-4.14941-9.25-9.25S6.89941,2.75,12,2.75s9.25,4.14941,9.25,9.25-4.14941,9.25-9.25,9.25Zm4-6.25c0,.55225-.44769,1-1,1s-1-.44775-1-1c0-.55231.44769-1,1-1s1,.44769,1,1Zm-8-6c0-.55231.44769-1,1-1s1,.44769,1,1c0,.55225-.44769,1-1,1s-1-.44775-1-1Zm8.53027-1.53027c.29297.29297.29297.76758,0,1.06055l-8,8c-.14648.14648-.33838.21973-.53027.21973s-.38379-.07324-.53027-.21973c-.29297-.29297-.29297-.76758,0-1.06055L15.46973,7.46973c.29297-.29297.76758-.29297,1.06055,0Z" stroke-width="0"/></svg>