<?xml version="1.0" encoding="UTF-8"?><svg id="a" xmlns="http://www.w3.org/2000/svg" width="24" height="24" viewBox="0 0 24 24"><path d="m12,1.25C6.07227,1.25,1.25,6.07227,1.25,12s4.82227,10.75,10.75,10.75,10.75-4.82227,10.75-10.75S17.92773,1.25,12,1.25Zm0,1.5c1.38519,0,2.83398,1.69788,3.63123,4.5h-7.26245c.79724-2.80212,2.24603-4.5,3.63123-4.5Zm3.97125,6c.17523.9917.27875,2.0769.27875,3.25s-.10352,2.2583-.27875,3.25h-7.9425c-.17523-.9917-.27875-2.0769-.27875-3.25s.10352-2.2583.27875-3.25h7.9425Zm-7.4848-5.30261c-.70129,1.00024-1.26917,2.29712-1.65747,3.80261h-2.75146c1.02039-1.69531,2.56177-3.04095,4.40894-3.80261ZM2.75,12c0-1.1449.21881-2.23712.60077-3.25h3.15735c-.16766,1.02167-.25812,2.11237-.25812,3.25s.09045,2.22833.25812,3.25h-3.15735c-.38196-1.01288-.60077-2.1051-.60077-3.25Zm1.32751,4.75h2.75146c.38831,1.50549.95618,2.80237,1.65747,3.80261-1.84717-.76166-3.38855-2.1073-4.40894-3.80261Zm7.92249,4.5c-1.38519,0-2.83398-1.69788-3.63123-4.5h7.26245c-.79724,2.80212-2.24603,4.5-3.63123,4.5Zm3.51355-.69739c.70129-1.00024,1.26917-2.29712,1.65747-3.80261h2.75146c-1.02039,1.69531-2.56177,3.04095-4.40894,3.80261Zm5.73645-8.55261c0,1.1449-.21881,2.23712-.60077,3.25h-3.15735c.16766-1.02167.25812-2.11237.25812-3.25s-.09045-2.22833-.25812-3.25h3.15735c.38196,1.01288.60077,2.1051.60077,3.25Zm-4.07898-4.75c-.38831-1.50549-.95618-2.80237-1.65747-3.80261,1.84717.76166,3.38855,2.1073,4.40894,3.80261h-2.75146Z" stroke-width="0"/></svg>