<?xml version="1.0" encoding="UTF-8"?><svg id="a" xmlns="http://www.w3.org/2000/svg" width="24" height="24" viewBox="0 0 24 24"><path d="m20.71143,15.7627c-.10205-.30615-.38867-.5127-.71143-.5127h-2.45947l-1.8291-5.4873c-.10205-.30615-.38867-.5127-.71143-.5127h-6c-.32275,0-.60938.20654-.71143.5127l-1.8291,5.4873h-2.45947c-.32275,0-.60938.20654-.71143.5127l-2,6c-.07617.229-.03809.48047.10303.67578.14111.1958.36719.31152.6084.31152h20c.24121,0,.46729-.11572.6084-.31152.14111-.19531.1792-.44678.10303-.67578l-2-6Zm-11.1709-5.0127h4.91895l1.5,4.5h-7.91895l1.5-4.5Zm-6.5,10.5l1.5-4.5h4.91895l1.5,4.5H3.04053Zm8.95947-1.62158l-.95947-2.87842h1.91895l-.95947,2.87842Zm1.04053,1.62158l1.5-4.5h4.91895l1.5,4.5h-7.91895Zm-1.79053-15.25V2c0-.41406.33594-.75.75-.75s.75.33594.75.75v4c0,.41406-.33594.75-.75.75s-.75-.33594-.75-.75Zm-7.60889-1.46973c-.29297-.29297-.29297-.76758,0-1.06055s.76758-.29297,1.06055,0l2.82861,2.82861c.29297.29297.29297.76758,0,1.06055-.14648.14648-.33838.21973-.53027.21973s-.38379-.07324-.53027-.21973l-2.82861-2.82861Zm13,2.82861c-.29297-.29297-.29297-.76758,0-1.06055l2.82861-2.82861c.29297-.29297.76758-.29297,1.06055,0s.29297.76758,0,1.06055l-2.82861,2.82861c-.14648.14648-.33838.21973-.53027.21973s-.38379-.07324-.53027-.21973Z" stroke-width="0"/></svg>