<?xml version="1.0" encoding="UTF-8"?><svg id="a" xmlns="http://www.w3.org/2000/svg" width="24" height="24" viewBox="0 0 24 24"><path d="m18.62402,6.58398c-.27734-.41699-.9707-.41699-1.24805,0l-4,6c-.08203.12305-.12598.26807-.12598.41602,0,2.61914,2.13086,4.75,4.75,4.75s4.75-2.13086,4.75-4.75c0-.14795-.04395-.29297-.12598-.41602l-4-6Zm-.62402,1.76807l2.59888,3.89795h-5.19775l2.59888-3.89795Zm0,7.89795c-1.53345,0-2.81494-1.06958-3.15558-2.5h6.31116c-.34064,1.43042-1.62213,2.5-3.15558,2.5Zm-7.25-3.25c0-.14795-.04395-.29297-.12598-.41602l-4-6c-.27832-.41699-.96973-.41699-1.24805,0L1.37598,12.58398c-.08203.12305-.12598.26807-.12598.41602,0,2.61914,2.13086,4.75,4.75,4.75s4.75-2.13086,4.75-4.75Zm-4.75-4.64795l2.59851,3.89795H3.40149l2.59851-3.89795Zm-3.15521,5.39795h6.31049c-.34045,1.43042-1.62225,2.5-3.15527,2.5s-2.81476-1.06958-3.15521-2.5Zm15.15521,6.5h-5.25V7.63293c.91064-.26025,1.62268-.97229,1.88293-1.88293h7.36707c.41406,0,.75-.33594.75-.75s-.33594-.75-.75-.75h-7.36707c-.32886-1.15063-1.37805-2-2.63293-2s-2.30408.84937-2.63293,2H2c-.41406,0-.75.33594-.75.75s.33594.75.75.75h7.36707c.26025.91064.97229,1.62268,1.88293,1.88293v12.61707h-5.25c-.41406,0-.75.33594-.75.75s.33594.75.75.75h12c.41406,0,.75-.33594.75-.75s-.33594-.75-.75-.75Zm-7.25-15.25c0-.68945.56055-1.25,1.25-1.25s1.25.56055,1.25,1.25-.56055,1.25-1.25,1.25-1.25-.56055-1.25-1.25Z" stroke-width="0"/></svg>