<?xml version="1.0" encoding="UTF-8"?><svg id="a" xmlns="http://www.w3.org/2000/svg" width="24" height="24" viewBox="0 0 24 24"><path d="m17.875,10.125c2.20917,0,4-1.79089,4-4s-1.79083-4-4-4-4,1.79083-4,4,1.79083,4,4,4Zm-2.03027-5.03027c.29297-.29297.76758-.29297,1.06055,0l.96973.96973.96973-.96973c.29297-.29297.76758-.29297,1.06055,0s.29297.76758,0,1.06055l-1.5,1.5c-.14648.14648-.33789.21973-.53027.21973s-.38379-.07324-.53027-.21973l-1.5-1.5c-.29297-.29297-.29297-.76758,0-1.06055Zm-7.96973,8.03027c0,.55225-.44769,1-1,1s-1-.44775-1-1c0-.55231.44769-1,1-1s1,.44769,1,1Zm9.75,0c0,.41406-.33594.75-.75.75h-7c-.41406,0-.75-.33594-.75-.75s.33594-.75.75-.75h7c.41406,0,.75.33594.75.75Zm-9.75,4c0,.55225-.44769,1-1,1s-1-.44775-1-1c0-.55231.44769-1,1-1s1,.44769,1,1Zm9.75,0c0,.41406-.33594.75-.75.75h-7c-.41406,0-.75-.33594-.75-.75s.33594-.75.75-.75h7c.41406,0,.75.33594.75.75Zm2.5-5.44171c.54425-.22113,1.04865-.51917,1.5-.88184v8.32355c0,1.5166-1.2334,2.75-2.75,2.75H4.875c-1.5166,0-2.75-1.2334-2.75-2.75V5.125c0-1.5166,1.2334-2.75,2.75-2.75h8.32355c-.36267.45135-.66071.95575-.88184,1.5h-7.44171c-.68945,0-1.25.56055-1.25,1.25v3.25h8.69171c.22113.54425.51917,1.04865.88184,1.5H3.625v9.25c0,.68945.56055,1.25,1.25,1.25h14c.68945,0,1.25-.56055,1.25-1.25v-7.44171Z" stroke-width="0"/></svg>