<?xml version="1.0" encoding="UTF-8"?><svg id="a" xmlns="http://www.w3.org/2000/svg" width="24" height="24" viewBox="0 0 24 24"><path d="m19,21.75079H5c-1.5166,0-2.75-1.26123-2.75-2.81104v-8.2666c0-.87012.38379-1.67627,1.05371-2.2124l7-5.61084c.99805-.80078,2.39355-.80127,3.39355.00049l6.99902,5.61035c.66992.53613,1.05371,1.34277,1.05371,2.2124v8.2666c0,1.5498-1.2334,2.81104-2.75,2.81104ZM12,3.75177c-.26758,0-.53516.08936-.75781.26855l-7.00098,5.61133c-.30762.24609-.49121.63574-.49121,1.0415v8.2666c0,.72314.56055,1.31104,1.25,1.31104h14c.68945,0,1.25-.58789,1.25-1.31104v-8.2666c0-.40576-.18359-.79541-.49121-1.0415h0l-7-5.61084c-.22363-.17969-.49121-.26904-.75879-.26904Zm1.43945,12.2998l5.00781-3.71484c.33203-.24707.40234-.7168.15527-1.04932-.24707-.33154-.71582-.40283-1.0498-.15576l-4.95508,3.67969c-.37305.22998-.82227.23193-1.14258.03516l-5.00781-3.71484c-.33398-.24707-.80273-.17578-1.0498.15576-.24707.33252-.17676.80225.15527,1.04932l5.06055,3.75c.4209.26025.8916.39258,1.36914.39258.49414,0,.99512-.14111,1.45703-.42773Z" stroke-width="0"/></svg>