<?xml version="1.0" encoding="UTF-8"?><svg id="a" xmlns="http://www.w3.org/2000/svg" width="24" height="24" viewBox="0 0 24 24"><path d="m14.75,9c0-1.5166-1.2334-2.75-2.75-2.75s-2.75,1.2334-2.75,2.75,1.2334,2.75,2.75,2.75,2.75-1.2334,2.75-2.75Zm-4,0c0-.68945.56055-1.25,1.25-1.25s1.25.56055,1.25,1.25-.56055,1.25-1.25,1.25-1.25-.56055-1.25-1.25Zm6.25.75c-.41406,0-.75-.33594-.75-.75s.33594-.75.75-.75h2c.41406,0,.75.33594.75.75s-.33594.75-.75.75h-2Zm-10-1.5c.41406,0,.75.33594.75.75s-.33594.75-.75.75h-2c-.41406,0-.75-.33594-.75-.75s.33594-.75.75-.75h2Zm9.53027,9.21973c.29297.29297.29297.76758,0,1.06055-.14648.14648-.33789.21973-.53027.21973s-.38379-.07324-.53027-.21973l-2.71973-2.71973v6.18945c0,.41406-.33594.75-.75.75s-.75-.33594-.75-.75v-6.18945l-2.71973,2.71973c-.29297.29297-.76758.29297-1.06055,0s-.29297-.76758,0-1.06055l4-4c.29297-.29297.76758-.29297,1.06055,0l4,4Zm6.21973-13.46973v10c0,1.5166-1.2334,2.75-2.75,2.75h-2.4519c-.04437-.05493-.08295-.11298-.13403-.16406l-1.33594-1.33594h3.92188c.68945,0,1.25-.56055,1.25-1.25V4c0-.68945-.56055-1.25-1.25-1.25H4c-.68945,0-1.25.56055-1.25,1.25v10c0,.68945.56055,1.25,1.25,1.25h3.92188l-1.33594,1.33594c-.05109.05109-.08966.10913-.13403.16406h-2.4519c-1.5166,0-2.75-1.2334-2.75-2.75V4c0-1.5166,1.2334-2.75,2.75-2.75h16c1.5166,0,2.75,1.2334,2.75,2.75Z" stroke-width="0"/></svg>