<?xml version="1.0" encoding="UTF-8"?><svg id="a" xmlns="http://www.w3.org/2000/svg" width="24" height="24" viewBox="0 0 24 24"><path d="m9.25,15c0,1.5166,1.2334,2.75,2.75,2.75s2.75-1.2334,2.75-2.75-1.2334-2.75-2.75-2.75-2.75,1.2334-2.75,2.75Zm4,0c0,.68945-.56055,1.25-1.25,1.25s-1.25-.56055-1.25-1.25.56055-1.25,1.25-1.25,1.25.56055,1.25,1.25Zm-6.25-.75c.41406,0,.75.33594.75.75s-.33594.75-.75.75h-2c-.41406,0-.75-.33594-.75-.75s.33594-.75.75-.75h2Zm10,1.5c-.41406,0-.75-.33594-.75-.75s.33594-.75.75-.75h2c.41406,0,.75.33594.75.75s-.33594.75-.75.75h-2ZM7.46973,6.53027c-.29297-.29297-.29297-.76758,0-1.06055.14648-.14648.33789-.21973.53027-.21973s.38379.07324.53027.21973l2.71973,2.71973V2c0-.41406.33594-.75.75-.75s.75.33594.75.75v6.18945l2.71973-2.71973c.29297-.29297.76758-.29297,1.06055,0s.29297.76758,0,1.06055l-4,4c-.29297.29297-.76758.29297-1.06055,0l-4-4ZM1.25,20v-10c0-1.5166,1.2334-2.75,2.75-2.75h2.4519c.04437.05493.08295.11298.13403.16406l1.33594,1.33594h-3.92188c-.68945,0-1.25.56055-1.25,1.25v10c0,.68945.56055,1.25,1.25,1.25h16c.68945,0,1.25-.56055,1.25-1.25v-10c0-.68945-.56055-1.25-1.25-1.25h-3.92188l1.33594-1.33594c.05109-.05109.08966-.10913.13403-.16406h2.4519c1.5166,0,2.75,1.2334,2.75,2.75v10c0,1.5166-1.2334,2.75-2.75,2.75H4c-1.5166,0-2.75-1.2334-2.75-2.75Z" stroke-width="0"/></svg>