<?xml version="1.0" encoding="UTF-8"?><svg id="a" xmlns="http://www.w3.org/2000/svg" width="24" height="24" viewBox="0 0 24 24"><path d="m17,11.25c-3.1709,0-5.75,2.5791-5.75,5.75s2.5791,5.75,5.75,5.75,5.75-2.5791,5.75-5.75-2.5791-5.75-5.75-5.75Zm0,10c-2.34375,0-4.25-1.90625-4.25-4.25s1.90625-4.25,4.25-4.25,4.25,1.90625,4.25,4.25-1.90625,4.25-4.25,4.25Zm2.75-4.25c0,.41406-.33594.75-.75.75h-2c-.41406,0-.75-.33594-.75-.75v-3c0-.41406.33594-.75.75-.75s.75.33594.75.75v2.25h1.25c.41406,0,.75.33594.75.75Zm-5-8c0-1.5166-1.2334-2.75-2.75-2.75s-2.75,1.2334-2.75,2.75,1.2334,2.75,2.75,2.75,2.75-1.2334,2.75-2.75Zm-2.75,1.25c-.68945,0-1.25-.56055-1.25-1.25s.56055-1.25,1.25-1.25,1.25.56055,1.25,1.25-.56055,1.25-1.25,1.25Zm5-.5c-.41406,0-.75-.33594-.75-.75s.33594-.75.75-.75h2c.41406,0,.75.33594.75.75s-.33594.75-.75.75h-2Zm-10-1.5c.41406,0,.75.33594.75.75s-.33594.75-.75.75h-2c-.41406,0-.75-.33594-.75-.75s.33594-.75.75-.75h2Zm15.75-4.25v9.01855c-.41534-.59796-.92328-1.12476-1.5-1.56757v-7.45099c0-.68945-.56055-1.25-1.25-1.25H4c-.68945,0-1.25.56055-1.25,1.25v10c0,.68945.56055,1.25,1.25,1.25h6.23041c-.12488.4823-.1994.98358-.21777,1.5h-6.01263c-1.5166,0-2.75-1.2334-2.75-2.75V4c0-1.5166,1.2334-2.75,2.75-2.75h16c1.5166,0,2.75,1.2334,2.75,2.75Z" stroke-width="0"/></svg>