<?xml version="1.0" encoding="UTF-8"?><svg id="a" xmlns="http://www.w3.org/2000/svg" width="24" height="24" viewBox="0 0 24 24"><path d="m20,1.25H4c-1.5166,0-2.75,1.2334-2.75,2.75v8c0,1.5166,1.2334,2.75,2.75,2.75h16c1.5166,0,2.75-1.2334,2.75-2.75V4c0-1.5166-1.2334-2.75-2.75-2.75Zm1.25,10.75c0,.68945-.56055,1.25-1.25,1.25H4c-.68945,0-1.25-.56055-1.25-1.25V4c0-.68945.56055-1.25,1.25-1.25h16c.68945,0,1.25.56055,1.25,1.25v8Zm-9.25-6.75c-1.5166,0-2.75,1.2334-2.75,2.75s1.2334,2.75,2.75,2.75,2.75-1.2334,2.75-2.75-1.2334-2.75-2.75-2.75Zm0,4c-.68945,0-1.25-.56055-1.25-1.25s.56055-1.25,1.25-1.25,1.25.56055,1.25,1.25-.56055,1.25-1.25,1.25Zm7.75-1.25c0,.41406-.33594.75-.75.75h-2c-.41406,0-.75-.33594-.75-.75s.33594-.75.75-.75h2c.41406,0,.75.33594.75.75Zm-12,0c0,.41406-.33594.75-.75.75h-2c-.41406,0-.75-.33594-.75-.75s.33594-.75.75-.75h2c.41406,0,.75.33594.75.75Zm13.5,11.78027c.56555-.18774,1.07764-.4873,1.5-.88922v1.10895c0,1.5166-1.2334,2.75-2.75,2.75H4c-1.5166,0-2.75-1.2334-2.75-2.75v-1.10913c.42236.40198.93445.7016,1.5.88934v.21979c0,.68945.56055,1.25,1.25,1.25h16c.68945,0,1.25-.56055,1.25-1.25v-.21973Zm0-4c.56555-.18774,1.07764-.4873,1.5-.88922v1.10895c0,1.5166-1.2334,2.75-2.75,2.75H4c-1.5166,0-2.75-1.2334-2.75-2.75v-1.10913c.42236.40198.93445.7016,1.5.88934v.21979c0,.68945.56055,1.25,1.25,1.25h16c.68945,0,1.25-.56055,1.25-1.25v-.21973Z" stroke-width="0"/></svg>