<?xml version="1.0" encoding="UTF-8"?><svg id="a" xmlns="http://www.w3.org/2000/svg" width="24" height="24" viewBox="0 0 24 24"><path d="m20,10.25h-7.25v-2.63171c1.00903-.21716,2.9151-.72284,3.78027-1.58801,1.18555-1.18555,1.21973-3.74219,1.21973-4.03027,0-.41406-.33594-.75-.75-.75-.28809,0-2.84473.03418-4.03027,1.21973-.41626.41626-.73059.89343-.96973,1.3783-.23914-.48486-.55347-.96204-.96973-1.3783-1.18555-1.18555-3.74219-1.21973-4.03027-1.21973-.41406,0-.75.33594-.75.75,0,.28809.03418,2.84473,1.21973,4.03027.86511.86511,2.77112,1.37079,3.78027,1.58795v2.63177h-7.25c-1.5166,0-2.75,1.2334-2.75,2.75v7c0,1.5166,1.2334,2.75,2.75,2.75h16c1.5166,0,2.75-1.2334,2.75-2.75v-7c0-1.5166-1.2334-2.75-2.75-2.75Zm-5.96973-6.71973c.41406-.41406,1.36035-.63965,2.16992-.73047-.09082.80957-.31641,1.75586-.73047,2.16992-.44531.44531-1.6084.83887-2.61719,1.08594.13477-.75195.44922-1.79688,1.17773-2.52539Zm-5.5,1.43945c-.41406-.41406-.63965-1.36035-.73047-2.16992.80957.09082,1.75586.31641,2.16992.73047.72852.72852,1.04297,1.77344,1.17773,2.52539-1.00879-.24707-2.17188-.64062-2.61719-1.08594Zm12.71973,15.03027c0,.68945-.56055,1.25-1.25,1.25H4c-.68945,0-1.25-.56055-1.25-1.25v-7c0-.68945.56055-1.25,1.25-1.25h16c.68945,0,1.25.56055,1.25,1.25v7Zm-9.25-6.25c-1.5166,0-2.75,1.2334-2.75,2.75s1.2334,2.75,2.75,2.75,2.75-1.2334,2.75-2.75-1.2334-2.75-2.75-2.75Zm0,4c-.68945,0-1.25-.56055-1.25-1.25s.56055-1.25,1.25-1.25,1.25.56055,1.25,1.25-.56055,1.25-1.25,1.25Zm7.75-1.25c0,.41406-.33594.75-.75.75h-2c-.41406,0-.75-.33594-.75-.75s.33594-.75.75-.75h2c.41406,0,.75.33594.75.75Zm-12,0c0,.41406-.33594.75-.75.75h-2c-.41406,0-.75-.33594-.75-.75s.33594-.75.75-.75h2c.41406,0,.75.33594.75.75Z" stroke-width="0"/></svg>