<?xml version="1.0" encoding="UTF-8"?><svg id="a" xmlns="http://www.w3.org/2000/svg" width="24" height="24" viewBox="0 0 24 24"><path d="m19.75,15.32587v-1.32587c0-1.5166-1.2334-2.75-2.75-2.75h-4.25v-2.57587c1.70935-.34863,3-1.86359,3-3.67413,0-2.06738-1.68262-3.75-3.75-3.75-2.06787,0-3.75,1.68262-3.75,3.75,0,1.81061,1.29034,3.32562,3,3.67413v2.57587h-4.25c-1.5166,0-2.75,1.2334-2.75,2.75v1.32587c-1.70966.34851-3,1.86353-3,3.67413,0,2.06738,1.68213,3.75,3.75,3.75s3.75-1.68262,3.75-3.75c0-1.81061-1.29034-3.32562-3-3.67413v-1.32587c0-.68945.56055-1.25,1.25-1.25h10c.68945,0,1.25.56055,1.25,1.25v1.32587c-1.70935.34863-3,1.86359-3,3.67413,0,2.06738,1.68262,3.75,3.75,3.75s3.75-1.68262,3.75-3.75c0-1.81055-1.29065-3.3255-3-3.67413Zm-12.5,3.67413c0,1.24023-1.00928,2.25-2.25,2.25s-2.25-1.00977-2.25-2.25,1.00928-2.25,2.25-2.25,2.25,1.00977,2.25,2.25Zm2.5-14c0-1.24023,1.00928-2.25,2.25-2.25,1.24023,0,2.25,1.00977,2.25,2.25s-1.00977,2.25-2.25,2.25c-1.24072,0-2.25-1.00977-2.25-2.25Zm9.25,16.25c-1.24023,0-2.25-1.00977-2.25-2.25s1.00977-2.25,2.25-2.25,2.25,1.00977,2.25,2.25-1.00977,2.25-2.25,2.25Z" stroke-width="0"/></svg>