<?xml version="1.0" encoding="UTF-8"?><svg id="a" xmlns="http://www.w3.org/2000/svg" width="24" height="24" viewBox="0 0 24 24"><path d="m20,15.25h-.25v-1.25c0-1.5166-1.2334-2.75-2.75-2.75h-4.25v-2.5h.25c1.5166,0,2.75-1.2334,2.75-2.75v-2c0-1.5166-1.2334-2.75-2.75-2.75h-2c-1.5166,0-2.75,1.2334-2.75,2.75v2c0,1.5166,1.2334,2.75,2.75,2.75h.25v2.5h-4.25c-1.5166,0-2.75,1.2334-2.75,2.75v1.25h-.25c-1.5166,0-2.75,1.2334-2.75,2.75v2c0,1.5166,1.2334,2.75,2.75,2.75h2c1.5166,0,2.75-1.2334,2.75-2.75v-2c0-1.5166-1.2334-2.75-2.75-2.75h-.25v-1.25c0-.68945.56055-1.25,1.25-1.25h10c.68945,0,1.25.56055,1.25,1.25v1.25h-.25c-1.5166,0-2.75,1.2334-2.75,2.75v2c0,1.5166,1.2334,2.75,2.75,2.75h2c1.5166,0,2.75-1.2334,2.75-2.75v-2c0-1.5166-1.2334-2.75-2.75-2.75Zm-14,1.5c.68945,0,1.25.56055,1.25,1.25v2c0,.68945-.56055,1.25-1.25,1.25h-2c-.68945,0-1.25-.56055-1.25-1.25v-2c0-.68945.56055-1.25,1.25-1.25h2Zm5-9.5c-.68945,0-1.25-.56055-1.25-1.25v-2c0-.68945.56055-1.25,1.25-1.25h2c.68945,0,1.25.56055,1.25,1.25v2c0,.68945-.56055,1.25-1.25,1.25h-2Zm10.25,12.75c0,.68945-.56055,1.25-1.25,1.25h-2c-.68945,0-1.25-.56055-1.25-1.25v-2c0-.68945.56055-1.25,1.25-1.25h2c.68945,0,1.25.56055,1.25,1.25v2Z" stroke-width="0"/></svg>