<?xml version="1.0" encoding="UTF-8"?><svg id="a" xmlns="http://www.w3.org/2000/svg" width="24" height="24" viewBox="0 0 24 24"><path d="m19,2.25h-2c-1.5166,0-2.75,1.2334-2.75,2.75v2c0,1.5166,1.2334,2.75,2.75,2.75h2c1.5166,0,2.75-1.2334,2.75-2.75v-2c0-1.5166-1.2334-2.75-2.75-2.75Zm1.25,4.75c0,.68945-.56055,1.25-1.25,1.25h-2c-.68945,0-1.25-.56055-1.25-1.25v-2c0-.68945.56055-1.25,1.25-1.25h2c.68945,0,1.25.56055,1.25,1.25v2Zm-3.25,7.25h-2c-1.5166,0-2.75,1.2334-2.75,2.75v2c0,1.5166,1.2334,2.75,2.75,2.75h2c1.5166,0,2.75-1.2334,2.75-2.75v-2c0-1.5166-1.2334-2.75-2.75-2.75Zm1.25,4.75c0,.68945-.56055,1.25-1.25,1.25h-2c-.68945,0-1.25-.56055-1.25-1.25v-2c0-.68945.56055-1.25,1.25-1.25h2c.68945,0,1.25.56055,1.25,1.25v2Zm-9.06451-10.34912c.3493-.46118.56451-1.02893.56451-1.65088v-.25h3.25v-1.5h-3.25v-.25c0-1.5166-1.2334-2.75-2.75-2.75h-2c-1.5166,0-2.75,1.2334-2.75,2.75v2c0,1.5166,1.2334,2.75,2.75,2.75h2c.34949,0,.68103-.07196.98883-.19135l4.0152,4.81842c.33228-.37909.73157-.6908,1.18396-.92303l-4.0025-4.80316Zm-.93549-1.65088c0,.68945-.56055,1.25-1.25,1.25h-2c-.68945,0-1.25-.56055-1.25-1.25v-2c0-.68945.56055-1.25,1.25-1.25h2c.68945,0,1.25.56055,1.25,1.25v2Z" stroke-width="0"/></svg>