<?xml version="1.0" encoding="UTF-8"?><svg id="a" xmlns="http://www.w3.org/2000/svg" width="24" height="24" viewBox="0 0 24 24"><path d="m4,17.75c.41406,0,.75-.33594.75-.75v-2c0-.68945.56055-1.25,1.25-1.25h5.25v3.25c0,.41406.33594.75.75.75s.75-.33594.75-.75v-3.25h5.25c.68945,0,1.25.56055,1.25,1.25v2c0,.41406.33594.75.75.75s.75-.33594.75-.75v-2c0-1.5166-1.2334-2.75-2.75-2.75h-5.25v-2.57587c1.70935-.34863,3-1.86359,3-3.67413,0-2.06738-1.68262-3.75-3.75-3.75s-3.75,1.68262-3.75,3.75c0,1.81055,1.29065,3.3255,3,3.67413v2.57587h-5.25c-1.5166,0-2.75,1.2334-2.75,2.75v2c0,.41406.33594.75.75.75Zm5.75-11.75c0-1.24023,1.00977-2.25,2.25-2.25s2.25,1.00977,2.25,2.25-1.00977,2.25-2.25,2.25-2.25-1.00977-2.25-2.25Zm-3,15c0,.41406-.33594.75-.75.75H2c-.41406,0-.75-.33594-.75-.75s.33594-.75.75-.75h4c.41406,0,.75.33594.75.75Zm8,0c0,.41406-.33594.75-.75.75h-4c-.41406,0-.75-.33594-.75-.75s.33594-.75.75-.75h4c.41406,0,.75.33594.75.75Zm8,0c0,.41406-.33594.75-.75.75h-4c-.41406,0-.75-.33594-.75-.75s.33594-.75.75-.75h4c.41406,0,.75.33594.75.75Z" stroke-width="0"/></svg>