<?xml version="1.0" encoding="UTF-8"?><svg id="a" xmlns="http://www.w3.org/2000/svg" width="24" height="24" viewBox="0 0 24 24"><path d="m20,17.25c-1.5166,0-2.75,1.2334-2.75,2.75s1.2334,2.75,2.75,2.75,2.75-1.2334,2.75-2.75-1.2334-2.75-2.75-2.75Zm0,4c-.68945,0-1.25-.56055-1.25-1.25s.56055-1.25,1.25-1.25,1.25.56055,1.25,1.25-.56055,1.25-1.25,1.25ZM4,14.25c-1.5166,0-2.75,1.2334-2.75,2.75s1.2334,2.75,2.75,2.75,2.75-1.2334,2.75-2.75-1.2334-2.75-2.75-2.75Zm0,4c-.68945,0-1.25-.56055-1.25-1.25s.56055-1.25,1.25-1.25,1.25.56055,1.25,1.25-.56055,1.25-1.25,1.25ZM20,6.75c1.5166,0,2.75-1.2334,2.75-2.75s-1.2334-2.75-2.75-2.75-2.75,1.2334-2.75,2.75,1.2334,2.75,2.75,2.75Zm0-4c.68945,0,1.25.56055,1.25,1.25s-.56055,1.25-1.25,1.25-1.25-.56055-1.25-1.25.56055-1.25,1.25-1.25Zm-4.16327,12.02618c.56824-.78284.91327-1.73706.91327-2.77618s-.34503-1.99335-.91327-2.77618l1.91699-1.91699c-.4165-.28387-.77667-.64404-1.06055-1.06055l-1.91699,1.91699c-.78284-.56824-1.73706-.91327-2.77618-.91327s-1.99335.34503-2.77618.91327l-1.09869-1.09869c.39307-.5929.62488-1.30164.62488-2.06458,0-2.06738-1.68262-3.75-3.75-3.75s-3.75,1.68262-3.75,3.75,1.68262,3.75,3.75,3.75c.76294,0,1.47168-.23181,2.06458-.62488l1.09869,1.09869c-.56824.78284-.91327,1.73706-.91327,2.77618,0,.65594.13397,1.28107.37543,1.84998l-.70227.43896c.34076.36725.61304.79486.79767,1.26978l.71796-.44873c.8714.99658,2.13654,1.64001,3.56122,1.64001,1.03912,0,1.99335-.34503,2.77618-.91327l1.91699,1.91699c.28387-.4165.64404-.77667,1.06055-1.06055l-1.91699-1.91699ZM5,7.25c-1.24023,0-2.25-1.00977-2.25-2.25s1.00977-2.25,2.25-2.25,2.25,1.00977,2.25,2.25-1.00977,2.25-2.25,2.25Zm7,8c-1.79199,0-3.25-1.45801-3.25-3.25s1.45801-3.25,3.25-3.25,3.25,1.45801,3.25,3.25-1.45801,3.25-3.25,3.25Z" stroke-width="0"/></svg>