<?xml version="1.0" encoding="UTF-8"?><svg id="a" xmlns="http://www.w3.org/2000/svg" width="24" height="24" viewBox="0 0 24 24"><path d="m19,2.25H5c-1.5166,0-2.75,1.2334-2.75,2.75v14c0,1.5166,1.2334,2.75,2.75,2.75h9.17139c.73486,0,1.42529-.28613,1.94482-.80566l4.82812-4.82812c.51953-.51953.80566-1.20996.80566-1.94482V5c0-1.5166-1.2334-2.75-2.75-2.75Zm1.25,11.92139c0,.33398-.12988.64795-.36621.88428l-4.82812,4.82812c-.23633.23633-.55029.36621-.88428.36621H5c-.68945,0-1.25-.56055-1.25-1.25V5c0-.68945.56055-1.25,1.25-1.25h14c.68945,0,1.25.56055,1.25,1.25v9.17139Zm-5.25-1.92139h4v1.5h-4c-.68945,0-1.25.56055-1.25,1.25v4h-1.5v-4c0-1.5166,1.2334-2.75,2.75-2.75Z" stroke-width="0"/></svg>