<?xml version="1.0" encoding="UTF-8"?><svg id="a" xmlns="http://www.w3.org/2000/svg" width="24" height="24" viewBox="0 0 24 24"><path d="m9.75,21c0,.41406-.33594.75-.75.75H3c-.41406,0-.75-.33594-.75-.75v-6c0-.41406.33594-.75.75-.75s.75.33594.75.75v4.18896L20.46973,2.46973c.29297-.29297.76758-.29297,1.06055,0s.29297.76758,0,1.06055L4.81006,20.25h4.18994c.41406,0,.75.33594.75.75ZM1.25,5c0-2.06738,1.68213-3.75,3.75-3.75s3.75,1.68262,3.75,3.75-1.68213,3.75-3.75,3.75-3.75-1.68262-3.75-3.75Zm1.5,0c0,1.24023,1.00928,2.25,2.25,2.25s2.25-1.00977,2.25-2.25-1.00928-2.25-2.25-2.25-2.25,1.00977-2.25,2.25Zm19.78027,11.46973c-.29297-.29297-.76758-.29297-1.06055,0l-1.96973,1.96973-1.96973-1.96973c-.29297-.29297-.76758-.29297-1.06055,0s-.29297.76758,0,1.06055l1.96973,1.96973-1.96973,1.96973c-.29297.29297-.29297.76758,0,1.06055.14648.14648.33789.21973.53027.21973s.38379-.07324.53027-.21973l1.96973-1.96973,1.96973,1.96973c.14648.14648.33789.21973.53027.21973s.38379-.07324.53027-.21973c.29297-.29297.29297-.76758,0-1.06055l-1.96973-1.96973,1.96973-1.96973c.29297-.29297.29297-.76758,0-1.06055Z" stroke-width="0"/></svg>