<?xml version="1.0" encoding="UTF-8"?><svg id="a" xmlns="http://www.w3.org/2000/svg" width="24" height="24" viewBox="0 0 24 24"><path d="m20.25,4.81104L3.53027,21.53027c-.14648.14648-.33838.21973-.53027.21973s-.38379-.07324-.53027-.21973c-.29297-.29297-.29297-.76758,0-1.06055L19.18994,3.75h-4.18994c-.41406,0-.75-.33594-.75-.75s.33594-.75.75-.75h6c.41406,0,.75.33594.75.75v6c0,.41406-.33594.75-.75.75s-.75-.33594-.75-.75v-4.18896Zm1.21973,12.32568l-3.80322,3.80273-2.13623-2.13672c-.29297-.29297-.76758-.29297-1.06055,0s-.29297.76758,0,1.06055l2.6665,2.66699c.14062.14062.33154.21973.53027.21973s.38965-.0791.53027-.21973l4.3335-4.33301c.29297-.29297.29297-.76758,0-1.06055s-.76758-.29297-1.06055,0ZM1.25,5c0-2.06738,1.68213-3.75,3.75-3.75s3.75,1.68262,3.75,3.75-1.68213,3.75-3.75,3.75-3.75-1.68262-3.75-3.75Zm1.5,0c0,1.24023,1.00928,2.25,2.25,2.25s2.25-1.00977,2.25-2.25-1.00928-2.25-2.25-2.25-2.25,1.00977-2.25,2.25Z" stroke-width="0"/></svg>