<?xml version="1.0" encoding="UTF-8"?><svg id="a" xmlns="http://www.w3.org/2000/svg" width="24" height="24" viewBox="0 0 24 24"><path d="m18,7.25H6c-2.61914,0-4.75,2.13086-4.75,4.75v4c0,1.5166,1.2334,2.75,2.75,2.75h1.25v1.25c0,1.5166,1.2334,2.75,2.75,2.75h8c1.5166,0,2.75-1.2334,2.75-2.75v-1.25h1.25c1.5166,0,2.75-1.2334,2.75-2.75v-4c0-2.61914-2.13086-4.75-4.75-4.75Zm-.75,12.75c0,.68945-.56055,1.25-1.25,1.25h-8c-.68945,0-1.25-.56055-1.25-1.25v-1.25h10.5v1.25Zm4-4c0,.68945-.56055,1.25-1.25,1.25H4c-.68945,0-1.25-.56055-1.25-1.25v-4c0-1.79199,1.45801-3.25,3.25-3.25h12c1.79199,0,3.25,1.45801,3.25,3.25v4Zm-14.25-4c0,.55225-.44769,1-1,1s-1-.44775-1-1c0-.55231.44769-1,1-1s1,.44769,1,1Zm-1-6c-.25452,0-.50372.02118-.75.05206v-2.05206c0-1.5166,1.2334-2.75,2.75-2.75h7.17139c.73486,0,1.42529.28613,1.94482.80566l.82812.82812c.51953.51953.80566,1.20996.80566,1.94482v1.22345c-.24628-.03088-.49548-.05206-.75-.05206h-.75v-1.17139c0-.33398-.12988-.64795-.36621-.88428l-.82812-.82812c-.23633-.23633-.55029-.36621-.88428-.36621h-7.17139c-.68945,0-1.25.56055-1.25,1.25v2h-.75Z" stroke-width="0"/></svg>