<?xml version="1.0" encoding="UTF-8"?><svg id="a" xmlns="http://www.w3.org/2000/svg" width="24" height="24" viewBox="0 0 24 24"><path d="m6.14697,7.49609c-.27441-.31055-.24512-.78418.06543-1.05859,1.59814-1.41016,3.65332-2.1875,5.7876-2.1875s4.18945.77734,5.7876,2.1875c.31055.27441.33984.74805.06543,1.05859-.14795.16797-.35449.25391-.5625.25391-.17627,0-.35352-.06152-.49609-.1875-1.32324-1.16895-3.02588-1.8125-4.79443-1.8125s-3.47119.64355-4.79443,1.8125c-.31055.27441-.78564.24414-1.05859-.06641Zm16.60303,3.50391v4c0,1.5166-1.2334,2.75-2.75,2.75h-.25v1.25c0,.41406-.33594.75-.75.75s-.75-.33594-.75-.75v-1.25h-3.01508c-.92242.63013-2.03601,1-3.23492,1s-2.3125-.36987-3.23492-1h-3.01508v1.25c0,.41406-.33594.75-.75.75s-.75-.33594-.75-.75v-1.25h-.25c-1.5166,0-2.75-1.2334-2.75-2.75v-4c0-1.5166,1.2334-2.75,2.75-2.75h4.76508c.92242-.63013,2.03601-1,3.23492-1s2.3125.36987,3.23492,1h4.76508c1.5166,0,2.75,1.2334,2.75,2.75Zm-16.5,2c0-1.20575.37457-2.32465,1.01123-3.25h-3.26123c-.68945,0-1.25.56055-1.25,1.25v4c0,.68945.56055,1.25,1.25,1.25h3.26123c-.63666-.92535-1.01123-2.04425-1.01123-3.25Zm10,0c0-2.34375-1.90674-4.25-4.25-4.25s-4.25,1.90625-4.25,4.25,1.90674,4.25,4.25,4.25,4.25-1.90625,4.25-4.25Zm5-2c0-.68945-.56055-1.25-1.25-1.25h-3.26123c.63666.92535,1.01123,2.04425,1.01123,3.25s-.37457,2.32465-1.01123,3.25h3.26123c.68945,0,1.25-.56055,1.25-1.25v-4Zm-6.5,2c0,1.5166-1.2334,2.75-2.75,2.75s-2.75-1.2334-2.75-2.75,1.2334-2.75,2.75-2.75,2.75,1.2334,2.75,2.75Zm-1.5,0c0-.68945-.56055-1.25-1.25-1.25s-1.25.56055-1.25,1.25.56055,1.25,1.25,1.25,1.25-.56055,1.25-1.25Z" stroke-width="0"/></svg>