<?xml version="1.0" encoding="UTF-8"?><svg id="a" xmlns="http://www.w3.org/2000/svg" width="24" height="24" viewBox="0 0 24 24"><path d="m6,3.25c-2.06787,0-3.75,1.68262-3.75,3.75s1.68213,3.75,3.75,3.75,3.75-1.68262,3.75-3.75-1.68213-3.75-3.75-3.75Zm0,6c-1.24072,0-2.25-1.00977-2.25-2.25s1.00928-2.25,2.25-2.25,2.25,1.00977,2.25,2.25-1.00928,2.25-2.25,2.25Zm1-2.25c0,.55225-.44769,1-1,1s-1-.44775-1-1c0-.55231.44769-1,1-1s1,.44769,1,1Zm14.75,0c0,.41406-.33594.75-.75.75h-8c-.41406,0-.75-.33594-.75-.75s.33594-.75.75-.75h8c.41406,0,.75.33594.75.75Zm-15.75,6.25c-2.06787,0-3.75,1.68262-3.75,3.75s1.68213,3.75,3.75,3.75,3.75-1.68262,3.75-3.75-1.68213-3.75-3.75-3.75Zm0,6c-1.24072,0-2.25-1.00977-2.25-2.25s1.00928-2.25,2.25-2.25,2.25,1.00977,2.25,2.25-1.00928,2.25-2.25,2.25Zm15.75-2.25c0,.41406-.33594.75-.75.75h-8c-.41406,0-.75-.33594-.75-.75s.33594-.75.75-.75h8c.41406,0,.75.33594.75.75Z" stroke-width="0"/></svg>