<?xml version="1.0" encoding="UTF-8"?><svg id="a" xmlns="http://www.w3.org/2000/svg" width="24" height="24" viewBox="0 0 24 24"><path d="m12,1.25C6.07227,1.25,1.25,6.07227,1.25,12s4.82227,10.75,10.75,10.75,10.75-4.82227,10.75-10.75S17.92773,1.25,12,1.25Zm0,20c-5.10059,0-9.25-4.14941-9.25-9.25S6.89941,2.75,12,2.75s9.25,4.14941,9.25,9.25-4.14941,9.25-9.25,9.25Zm3.71973-8.66846c.71484-.75342,1.0791-1.74121,1.02539-2.78174-.10449-1.99072-1.82422-3.5498-3.91504-3.5498h-2.83008c-1.5166,0-2.75,1.2334-2.75,2.75v8c0,.41406.33594.75.75.75s.75-.33594.75-.75v-3.25h1.93945l3.78027,3.78027c.14648.14648.33789.21973.53027.21973s.38379-.07324.53027-.21973c.29297-.29297.29297-.76758,0-1.06055l-2.71973-2.71973h.18945c1.02344,0,2.01465-.42578,2.71973-1.16846Zm-6.96973-.33154v-3.25c0-.68945.56055-1.25,1.25-1.25h2.83008c1.27148,0,2.35547.95459,2.41699,2.12793.03223.62549-.18555,1.21875-.61523,1.6709s-1.00879.70117-1.63184.70117h-4.25Z" stroke-width="0"/></svg>