<?xml version="1.0" encoding="UTF-8"?><svg id="a" xmlns="http://www.w3.org/2000/svg" width="24" height="24" viewBox="0 0 24 24"><path d="m20,11.25H4c-1.5166,0-2.75,1.2334-2.75,2.75v4c0,1.5166,1.2334,2.75,2.75,2.75h16c1.5166,0,2.75-1.2334,2.75-2.75v-4c0-1.5166-1.2334-2.75-2.75-2.75Zm1.25,6.75c0,.68945-.56055,1.25-1.25,1.25H4c-.68945,0-1.25-.56055-1.25-1.25v-4c0-.68945.56055-1.25,1.25-1.25h16c.68945,0,1.25.56055,1.25,1.25v4Zm-14.25-2c0,.55225-.44769,1-1,1s-1-.44775-1-1c0-.55231.44769-1,1-1s1,.44769,1,1Zm4,0c0,.55225-.44769,1-1,1s-1-.44775-1-1c0-.55231.44769-1,1-1s1,.44769,1,1ZM2.73828,5.58496c-.18848-.56396-.09863-1.15332.22949-1.60791.32812-.45557.8584-.72705,1.41992-.72705h15.22461c.56152,0,1.0918.27148,1.41992.72705.32812.45459.41797,1.04395.24121,1.57617l-1.70398,4.44678h-1.60608l1.89795-4.95215c.02344-.07422-.01758-.15527-.0459-.19385-.02832-.03906-.0918-.104-.20312-.104H4.3877c-.11133,0-.1748.06494-.20312.104-.02832.03857-.06934.11963-.03418.22559l1.88611,4.92041h-1.60614l-1.69208-4.41504Z" stroke-width="0"/></svg>