<?xml version="1.0" encoding="UTF-8"?><svg id="a" xmlns="http://www.w3.org/2000/svg" width="24" height="24" viewBox="0 0 24 24"><path d="m22.75,13.86738c0,.41406-.33594.75-.75.75h-4c-.6167,0-1.05127-.15576-1.35889-.35693-.40186.75928-.88867.82568-1.23145.74512-.32422-.07666-.94922-.22412-1.11719-2.72412-.1626.0708-.34814.10303-.55322.07422-.375-.0498-.6543-.28271-.87109-.62402-.2002,1.39307-.53955,3.06689-1.16309,4.78369-.51172,1.40723-.81494,2.24219-1.47607,2.24219-.06885,0-.1416-.00879-.21875-.02734-.82471-.19678-.76221-.7168-.35547-4.1001.20215-1.67871.46387-3.85596.55859-5.80225-.47998,1.46973-1.03613,3.43506-1.48584,5.22266-.08398.3335-.38379.56689-.72754.56689h-1c-.41406,0-.75-.33594-.75-.75s.33594-.75.75-.75h.4165c2.05322-8.02637,2.77393-7.93701,3.41113-7.85938.92236.11426.92236,1.31689.92236,2.19531,0,.27441-.00488.55713-.01416.84619.09277-.50098.27051-.77734.74854-.81055.73633-.04883.84033.43115,1.24707,2.21826.07422.32617.14307.5708.20361.75342.01416-.02734.02783-.05225.03906-.07373.19678-.37158.49023-.93408,1.12646-.77588.64941.16162.64941.87646.64941,1.26074,0,.71777.03369,1.29639.08057,1.74219.19434-.27637.37988-.38428.68799-.38428.5,0,.7085.41602.77686.55322.08643.17188.16797.33447.70459.33447h4c.41406,0,.75.33594.75.75Zm-18.75-.74707h-2c-.41406,0-.75.33594-.75.75s.33594.75.75.75h2c.41406,0,.75-.33594.75-.75s-.33594-.75-.75-.75Z" stroke-width="0"/></svg>