<?xml version="1.0" encoding="UTF-8"?><svg id="a" xmlns="http://www.w3.org/2000/svg" width="24" height="24" viewBox="0 0 24 24"><path d="m12.76474,1.27651c-3.11426-.2168-6.1665.92139-8.3667,3.12158-2.2002,2.20068-3.33789,5.25-3.12158,8.3667.38818,5.59912,5.2334,9.98486,11.03076,9.98486h1.86377c.73486,0,1.42529-.28613,1.94482-.80566l5.82812-5.82812c.51953-.51953.80566-1.20996.80566-1.94482v-1.86377c0-5.79736-4.38574-10.64258-9.98486-11.03076Zm8.48486,12.89453c0,.33398-.12988.64795-.36621.88428l-5.82812,5.82812c-.23633.23633-.55029.36621-.88428.36621h-1.86377c-5.0127,0-9.20068-3.77246-9.53467-8.58838-.18604-2.68408.79297-5.30908,2.68604-7.20264,1.74121-1.74072,4.1001-2.7085,6.55469-2.7085.21533,0,.43164.00781.64795.02246,4.81592.33398,8.58838,4.52197,8.58838,9.53467v1.86377Zm-5.25-.92139h4v.92188l-.57819.57812h-3.42181c-.68945,0-1.25.56055-1.25,1.25v3.42145l-.57861.57855h-.92139v-4c0-1.5166,1.2334-2.75,2.75-2.75Z" stroke-width="0"/></svg>