<?xml version="1.0" encoding="UTF-8"?><svg id="a" xmlns="http://www.w3.org/2000/svg" width="24" height="24" viewBox="0 0 24 24"><path d="m20,8.23682H4c-1.5166,0-2.75,1.2334-2.75,2.75v8c0,1.5166,1.2334,2.75,2.75,2.75h16c1.5166,0,2.75-1.2334,2.75-2.75v-8c0-1.5166-1.2334-2.75-2.75-2.75Zm1.25,10.75c0,.68945-.56055,1.25-1.25,1.25H4c-.68945,0-1.25-.56055-1.25-1.25v-8c0-.68945.56055-1.25,1.25-1.25h16c.68945,0,1.25.56055,1.25,1.25v8Zm-2.5-6c0,.41406-.33594.75-.75.75H6c-.41406,0-.75-.33594-.75-.75s.33594-.75.75-.75h12c.41406,0,.75.33594.75.75Zm0,4c0,.41406-.33594.75-.75.75H6c-.41406,0-.75-.33594-.75-.75s.33594-.75.75-.75h12c.41406,0,.75.33594.75.75ZM8.23242,6.98682h-2.12109l3.94434-3.94434c1.03809-1.03906,2.85059-1.03906,3.88867,0l3.94434,3.94434h-2.12109l-2.88379-2.88379c-.47266-.47266-1.29492-.47266-1.76758,0l-2.88379,2.88379Z" stroke-width="0"/></svg>