<?xml version="1.0" encoding="UTF-8"?><svg id="a" xmlns="http://www.w3.org/2000/svg" width="24" height="24" viewBox="0 0 24 24"><path d="m22.75,4c0-1.5166-1.2334-2.75-2.75-2.75s-2.75,1.2334-2.75,2.75,1.2334,2.75,2.75,2.75,2.75-1.2334,2.75-2.75Zm-4,0c0-.68945.56055-1.25,1.25-1.25s1.25.56055,1.25,1.25-.56055,1.25-1.25,1.25-1.25-.56055-1.25-1.25Zm-5,15c0,.41406-.33594.75-.75.75h-1c-.41406,0-.75-.33594-.75-.75s.33594-.75.75-.75h1c.41406,0,.75.33594.75.75Zm-4.75-.75h-.32581c-.34851-1.70935-1.86322-3-3.67419-3-2.06787,0-3.75,1.68262-3.75,3.75s1.68213,3.75,3.75,3.75c1.81097,0,3.32568-1.29065,3.67419-3h.32581c.41406,0,.75-.33594.75-.75s-.33594-.75-.75-.75Zm-4,3c-1.24072,0-2.25-1.00977-2.25-2.25s1.00928-2.25,2.25-2.25,2.25,1.00977,2.25,2.25-1.00928,2.25-2.25,2.25Zm12.75-2.25c0,.41406-.33594.75-.75.75h-1c-.41406,0-.75-.33594-.75-.75s.33594-.75.75-.75h1c.41406,0,.75.33594.75.75Zm3.69336-1.10938c.25684.32422.20312.7959-.12207,1.05371-.32812.25977-.69629.46191-1.09473.59961-.08105.02832-.16407.04102-.24512.04102-.31055,0-.60156-.19434-.70898-.50488-.13477-.3916.07227-.81836.46387-.9541.23828-.08203.45801-.20215.65332-.35742.3252-.25781.7959-.20117,1.05371.12207Zm-2.12207-5.11719c-.41016-.05762-.69531-.4375-.63672-.84766.05762-.41016.43262-.70605.84766-.63672.41504.05859.81445.18555,1.1875.37891.36719.18945.51172.64258.32129,1.01074-.13281.25781-.39551.40527-.66699.40527-.11523,0-.2334-.02637-.34375-.08398-.22266-.11523-.46094-.19141-.70898-.22656Zm3.41211,1.87109c.01074.11816.0166.23535.0166.35547v.71387c0,.41406-.33594.75-.75.75s-.75-.33594-.75-.75v-.71387c0-.07324-.00391-.14551-.01074-.2168-.03809-.41211.26562-.77832.67773-.81641.40723-.03809.77832.26465.81641.67773Zm-4.9834-2.64453c0,.41406-.33594.75-.75.75H6c-2.61914,0-4.75-2.13086-4.75-4.75S3.38086,3.25,6,3.25h6.18945l-.71973-.71973c-.29297-.29297-.29297-.76758,0-1.06055s.76758-.29297,1.06055,0l2,2c.29297.29297.29297.76758,0,1.06055l-2,2c-.14648.14648-.33838.21973-.53027.21973s-.38379-.07324-.53027-.21973c-.29297-.29297-.29297-.76758,0-1.06055l.71973-.71973h-6.18945c-1.79199,0-3.25,1.45801-3.25,3.25s1.45801,3.25,3.25,3.25h11c.41406,0,.75.33594.75.75Z" stroke-width="0"/></svg>