<?xml version="1.0" encoding="UTF-8"?><svg id="a" xmlns="http://www.w3.org/2000/svg" width="24" height="24" viewBox="0 0 24 24"><path d="m19,2.25H5c-1.5166,0-2.75,1.2334-2.75,2.75v14c0,1.5166,1.2334,2.75,2.75,2.75h14c1.5166,0,2.75-1.2334,2.75-2.75V5c0-1.5166-1.2334-2.75-2.75-2.75Zm-7.75,18h-6.25c-.68945,0-1.25-.56055-1.25-1.25v-9.25h7.5v10.5Zm9-1.25c0,.68945-.56055,1.25-1.25,1.25h-6.25v-10.5h7.5v9.25Zm0-10.75H3.75v-3.25c0-.68945.56055-1.25,1.25-1.25h14c.68945,0,1.25.56055,1.25,1.25v3.25Z" stroke-width="0"/></svg>