<?xml version="1.0" encoding="UTF-8"?><svg id="a" xmlns="http://www.w3.org/2000/svg" width="24" height="24" viewBox="0 0 24 24"><path d="m7.75,11.5v1c0,.41406-.33594.75-.75.75s-.75-.33594-.75-.75v-1c0-.41406.33594-.75.75-.75s.75.33594.75.75Zm-.75-4.75c-.41406,0-.75.33594-.75.75v1c0,.41406.33594.75.75.75s.75-.33594.75-.75v-1c0-.41406-.33594-.75-.75-.75Zm10,.5h-7c-.41406,0-.75.33594-.75.75s.33594.75.75.75h7c.41406,0,.75-.33594.75-.75s-.33594-.75-.75-.75Zm0,4h-7c-.41406,0-.75.33594-.75.75s.33594.75.75.75h7c.41406,0,.75-.33594.75-.75s-.33594-.75-.75-.75Zm3.75-1.25c0,.68945.56055,1.25,1.25,1.25.41406,0,.75.33594.75.75v3c0,.96484-.78516,1.75-1.75,1.75H3c-.96484,0-1.75-.78516-1.75-1.75v-3c0-.41406.33594-.75.75-.75.68945,0,1.25-.56055,1.25-1.25s-.56055-1.25-1.25-1.25c-.41406,0-.75-.33594-.75-.75v-3c0-.96484.78516-1.75,1.75-1.75h18c.96484,0,1.75.78516,1.75,1.75v3c0,.41406-.33594.75-.75.75-.68945,0-1.25.56055-1.25,1.25Zm-1.5,0c0-1.25684.84668-2.31836,2-2.64648v-2.35352c0-.1377-.1123-.25-.25-.25H7.69952c-.10382.28979-.37415.5-.69952.5s-.5957-.21021-.69952-.5h-3.30048c-.1377,0-.25.1123-.25.25v2.35352c1.15283.32812,2,1.38965,2,2.64648s-.84717,2.31836-2,2.64648v2.35352c0,.1377.1123.25.25.25h3.30048c.10382-.28979.37415-.5.69952-.5s.5957.21021.69952.5h13.30048c.1377,0,.25-.1123.25-.25v-2.35352c-1.15332-.32812-2-1.38965-2-2.64648Zm2,9c0,.1377-.1123.25-.25.25H3c-.1377,0-.25-.1123-.25-.25v-1.02527c-.55719-.04694-1.07086-.23804-1.5-.54865v1.57391c0,.96484.78516,1.75,1.75,1.75h18c.96484,0,1.75-.78516,1.75-1.75v-1.57391c-.42914.31061-.94281.50171-1.5.54865v1.02527Z" stroke-width="0"/></svg>