<?xml version="1.0" encoding="UTF-8"?><svg id="a" xmlns="http://www.w3.org/2000/svg" width="24" height="24" viewBox="0 0 24 24"><path d="m7.75,8.09961v.86621c0,.41406-.33594.75-.75.75s-.75-.33594-.75-.75v-.86621c0-.41406.33594-.75.75-.75s.75.33594.75.75Zm-.75,6.18359c-.41406,0-.75.33594-.75.75v.86621c0,.41406.33594.75.75.75s.75-.33594.75-.75v-.86621c0-.41406-.33594-.75-.75-.75Zm0-3.4668c-.41406,0-.75.33594-.75.75v.86621c0,.41406.33594.75.75.75s.75-.33594.75-.75v-.86621c0-.41406-.33594-.75-.75-.75Zm10-2.56641h-7c-.41406,0-.75.33594-.75.75s.33594.75.75.75h7c.41406,0,.75-.33594.75-.75s-.33594-.75-.75-.75Zm0,6h-7c-.41406,0-.75.33594-.75.75s.33594.75.75.75h7c.41406,0,.75-.33594.75-.75s-.33594-.75-.75-.75Zm0-3h-7c-.41406,0-.75.33594-.75.75s.33594.75.75.75h7c.41406,0,.75-.33594.75-.75s-.33594-.75-.75-.75Zm3.75.75c0,.68945.56055,1.25,1.25,1.25.41406,0,.75.33594.75.75v4c0,.96484-.78516,1.75-1.75,1.75H3c-.96484,0-1.75-.78516-1.75-1.75v-4c0-.41406.33594-.75.75-.75.68945,0,1.25-.56055,1.25-1.25s-.56055-1.25-1.25-1.25c-.41406,0-.75-.33594-.75-.75v-4c0-.96484.78516-1.75,1.75-1.75h18c.96484,0,1.75.78516,1.75,1.75v4c0,.41406-.33594.75-.75.75-.68945,0-1.25.56055-1.25,1.25Zm-1.5,0c0-1.25684.84717-2.31836,2-2.64648v-3.35352c0-.1377-.1123-.25-.25-.25H7.69952c-.10382.28979-.37415.5-.69952.5s-.5957-.21021-.69952-.5h-3.30048c-.1377,0-.25.1123-.25.25v3.35352c1.15283.32812,2,1.38965,2,2.64648s-.84717,2.31836-2,2.64648v3.35352c0,.1377.1123.25.25.25h3.30048c.10382-.28979.37415-.5.69952-.5s.5957.21021.69952.5h13.30048c.1377,0,.25-.1123.25-.25v-3.35352c-1.15283-.32812-2-1.38965-2-2.64648Z" stroke-width="0"/></svg>