<?xml version="1.0" encoding="UTF-8"?><svg id="a" xmlns="http://www.w3.org/2000/svg" width="24" height="24" viewBox="0 0 24 24"><path d="m14.36707,12.75c.32886,1.15063,1.37805,2,2.63293,2s2.30408-.84937,2.63293-2h1.36707c.41406,0,.75-.33594.75-.75s-.33594-.75-.75-.75h-1.36707c-.32886-1.15063-1.37805-2-2.63293-2s-2.30408.84937-2.63293,2H3.75v-5.5h5.61707c.32886,1.15063,1.37805,2,2.63293,2s2.30408-.84937,2.63293-2h6.36707c.41406,0,.75-.33594.75-.75s-.33594-.75-.75-.75h-6.36707c-.32886-1.15063-1.37805-2-2.63293-2s-2.30408.84937-2.63293,2H3.75v-1.25c0-.41406-.33594-.75-.75-.75s-.75.33594-.75.75v18c0,.41406.33594.75.75.75s.75-.33594.75-.75v-1.25h1.61707c.32886,1.15063,1.37805,2,2.63293,2s2.30408-.84937,2.63293-2h10.36707c.41406,0,.75-.33594.75-.75s-.33594-.75-.75-.75h-10.36707c-.32886-1.15063-1.37805-2-2.63293-2s-2.30408.84937-2.63293,2h-1.61707v-5.5h10.61707Zm2.63293-2c.68945,0,1.25.56055,1.25,1.25s-.56055,1.25-1.25,1.25-1.25-.56055-1.25-1.25.56055-1.25,1.25-1.25Zm-5-7c.68945,0,1.25.56055,1.25,1.25s-.56055,1.25-1.25,1.25-1.25-.56055-1.25-1.25.56055-1.25,1.25-1.25Zm-4,14c.68945,0,1.25.56055,1.25,1.25s-.56055,1.25-1.25,1.25-1.25-.56055-1.25-1.25.56055-1.25,1.25-1.25Z" stroke-width="0"/></svg>