<?xml version="1.0" encoding="UTF-8"?><svg id="a" xmlns="http://www.w3.org/2000/svg" width="24" height="24" viewBox="0 0 24 24"><path d="m11.75,7.00023c0,.41406-.33594.75-.75.75h-3.75v9.25c0,.41406-.33594.75-.75.75s-.75-.33594-.75-.75V7.75023h-3.75c-.41406,0-.75-.33594-.75-.75s.33594-.75.75-.75h9c.41406,0,.75.33594.75.75Zm10.49805-.70752c-.2998-.10693-.63477-.00928-.83398.23877l-3.41406,4.26807-3.41406-4.26807c-.19922-.24805-.53418-.3457-.83398-.23877-.30078.10547-.50195.38916-.50195.70752v10c0,.41406.33594.75.75.75s.75-.33594.75-.75v-7.86182l2.66406,3.33057c.28516.35547.88672.35547,1.17188,0l2.66406-3.33057v7.86182c0,.41406.33594.75.75.75s.75-.33594.75-.75V7.00023c0-.31836-.20117-.60205-.50195-.70752Z" stroke-width="0"/></svg>