<?xml version="1.0" encoding="UTF-8"?><svg id="a" xmlns="http://www.w3.org/2000/svg" width="24" height="24" viewBox="0 0 24 24"><path d="m19,6.25H5c-.36719,0-.71436-.16064-.95264-.44092-.19287-.22656-.29492-.50439-.29736-.79883v-.01611c.00049-.06885.00635-.13916.01758-.20947.09619-.58984.67188-1.03467,1.33936-1.03467h13.89307c.41406,0,.75-.33594.75-.75s-.33594-.75-.75-.75H5.10693c-1.39453,0-2.60693.98584-2.81982,2.29395-.02295.14111-.03516.2832-.03662.42432-.00049.01025-.00049,14.03174-.00049,14.03174,0,1.5166,1.23389,2.75,2.75,2.75h14c1.5166,0,2.75-1.2334,2.75-2.75v-10c0-1.5166-1.2334-2.75-2.75-2.75Zm1.25,12.75c0,.68945-.56055,1.25-1.25,1.25H5c-.68945,0-1.25-.56055-1.25-1.25V7.44971c.38232.19531.80957.30029,1.25.30029h14c.68945,0,1.25.56055,1.25,1.25v10Zm-5.25-7.75c-1.5166,0-2.75,1.2334-2.75,2.75s1.2334,2.75,2.75,2.75,2.75-1.2334,2.75-2.75-1.2334-2.75-2.75-2.75Zm0,4c-.68945,0-1.25-.56055-1.25-1.25s.56055-1.25,1.25-1.25,1.25.56055,1.25,1.25-.56055,1.25-1.25,1.25Z" stroke-width="0"/></svg>