<?xml version="1.0" encoding="UTF-8"?><svg id="a" xmlns="http://www.w3.org/2000/svg" width="24" height="24" viewBox="0 0 24 24"><path d="m19,8.25h-.25v-3.25c0-1.5166-1.2334-2.75-2.75-2.75h-8c-1.25488,0-2.30408.84937-2.63293,2h-.26013c-1.39453,0-2.60693.98584-2.81982,2.29395-.02008.12384-.01636.24701-.01984.37054-.00348.02936-.01727.05518-.01727.08551v12c0,1.5166,1.2334,2.75,2.75,2.75h14c1.5166,0,2.75-1.2334,2.75-2.75v-8c0-1.5166-1.2334-2.75-2.75-2.75Zm-12.25-3.25c0-.68945.56055-1.25,1.25-1.25h8c.68945,0,1.25.56055,1.25,1.25v3.25H6.75v-3.25Zm-2.98242,1.78467c.09619-.58984.67188-1.03467,1.33936-1.03467h.14307v2.5h-.25c-.36719,0-.71436-.16064-.95264-.44092-.2417-.28369-.34082-.64795-.27979-1.02441Zm16.48242,12.21533c0,.68945-.56055,1.25-1.25,1.25H5c-.68945,0-1.25-.56055-1.25-1.25v-9.56116c.38367.19678.80792.31116,1.25.31116h14c.68945,0,1.25.56055,1.25,1.25v8Zm-5.25-6.75c-1.5166,0-2.75,1.2334-2.75,2.75s1.2334,2.75,2.75,2.75,2.75-1.2334,2.75-2.75-1.2334-2.75-2.75-2.75Zm0,4c-.68945,0-1.25-.56055-1.25-1.25s.56055-1.25,1.25-1.25,1.25.56055,1.25,1.25-.56055,1.25-1.25,1.25Z" stroke-width="0"/></svg>