<?xml version="1.0" encoding="UTF-8"?><svg id="a" xmlns="http://www.w3.org/2000/svg" width="24" height="24" viewBox="0 0 24 24"><path d="m20,2.25H4c-1.5166,0-2.75,1.2334-2.75,2.75v10c0,1.5166,1.2334,2.75,2.75,2.75h4.625l2.7749,3.7002c.1416.18848.36426.2998.6001.2998s.4585-.11133.6001-.2998l2.7749-3.7002h4.625c1.5166,0,2.75-1.2334,2.75-2.75V5c0-1.5166-1.2334-2.75-2.75-2.75Zm1.25,12.75c0,.68945-.56055,1.25-1.25,1.25h-5c-.23633,0-.45801.11133-.59961.2998l-2.40039,3.2002-2.3999-3.2002c-.1416-.18848-.36426-.2998-.6001-.2998h-5c-.68945,0-1.25-.56055-1.25-1.25V5c0-.68945.56055-1.25,1.25-1.25h16c.68945,0,1.25.56055,1.25,1.25v10Zm-2.5-8c0,.41406-.33594.75-.75.75H6c-.41406,0-.75-.33594-.75-.75s.33594-.75.75-.75h12c.41406,0,.75.33594.75.75Zm0,3c0,.41406-.33594.75-.75.75H6c-.41406,0-.75-.33594-.75-.75s.33594-.75.75-.75h12c.41406,0,.75.33594.75.75Zm0,3c0,.41406-.33594.75-.75.75H6c-.41406,0-.75-.33594-.75-.75s.33594-.75.75-.75h12c.41406,0,.75.33594.75.75Z" stroke-width="0"/></svg>