<?xml version="1.0" encoding="UTF-8"?><svg id="a" xmlns="http://www.w3.org/2000/svg" width="24" height="24" viewBox="0 0 24 24"><path d="m20,2.25H4c-1.5166,0-2.75,1.2334-2.75,2.75v16c0,.30322.18262.57666.46289.69287.09277.03857.19043.05713.28711.05713.19482,0,.38672-.07617.53027-.21973l3.78027-3.78027h13.68945c1.5166,0,2.75-1.2334,2.75-2.75V5c0-1.5166-1.2334-2.75-2.75-2.75Zm1.25,12.75c0,.68945-.56055,1.25-1.25,1.25H6c-.19873,0-.38965.0791-.53027.21973l-2.71973,2.71973V5c0-.68945.56055-1.25,1.25-1.25h16c.68945,0,1.25.56055,1.25,1.25v10Zm-2.5-8c0,.41406-.33594.75-.75.75H6c-.41406,0-.75-.33594-.75-.75s.33594-.75.75-.75h12c.41406,0,.75.33594.75.75Zm0,3c0,.41406-.33594.75-.75.75H6c-.41406,0-.75-.33594-.75-.75s.33594-.75.75-.75h12c.41406,0,.75.33594.75.75Zm0,3c0,.41406-.33594.75-.75.75H6c-.41406,0-.75-.33594-.75-.75s.33594-.75.75-.75h12c.41406,0,.75.33594.75.75Z" stroke-width="0"/></svg>