<?xml version="1.0" encoding="UTF-8"?><svg id="a" xmlns="http://www.w3.org/2000/svg" width="24" height="24" viewBox="0 0 24 24"><path d="m15,13.75c1.5166,0,2.75-1.2334,2.75-2.75v-6c0-1.5166-1.2334-2.75-2.75-2.75H5c-1.5166,0-2.75,1.2334-2.75,2.75v11c0,.28418.16016.54395.41504.6709.10547.05322.2207.0791.33496.0791.15918,0,.31738-.05078.4502-.1499l3.7998-2.8501h7.75Zm-8.4502-1.3501l-2.7998,2.1001V5c0-.68945.56055-1.25,1.25-1.25h10c.68945,0,1.25.56055,1.25,1.25v6c0,.68945-.56055,1.25-1.25,1.25H7c-.16211,0-.32031.05273-.4502.1499Zm15.2002-2.3999v11c0,.28418-.16016.54395-.41504.6709-.10547.05322-.2207.0791-.33496.0791-.15918,0-.31738-.05078-.4502-.1499l-3.7998-2.8501h-7.75c-1.49664,0-2.71222-1.20251-2.74408-2.69165l1.41107-1.05835h.08301v1c0,.68945.56055,1.25,1.25,1.25h8c.16211,0,.32031.05273.4502.1499l2.7998,2.1001v-9.5c0-.68945-.56055-1.25-1.25-1.25v-1.5c1.5166,0,2.75,1.2334,2.75,2.75Z" stroke-width="0"/></svg>