<?xml version="1.0" encoding="UTF-8"?><svg id="a" xmlns="http://www.w3.org/2000/svg" width="24" height="24" viewBox="0 0 24 24"><path d="m20,2.25H4c-1.5166,0-2.75,1.2334-2.75,2.75v10c0,1.5166,1.2334,2.75,2.75,2.75h4.625l2.7749,3.7002c.1416.18848.36426.2998.6001.2998s.4585-.11133.6001-.2998l2.7749-3.7002h4.625c1.5166,0,2.75-1.2334,2.75-2.75V5c0-1.5166-1.2334-2.75-2.75-2.75Zm1.25,12.75c0,.68945-.56055,1.25-1.25,1.25h-5c-.23633,0-.45801.11133-.59961.2998l-2.40039,3.2002-2.3999-3.2002c-.1416-.18848-.36426-.2998-.6001-.2998h-5c-.68945,0-1.25-.56055-1.25-1.25V5c0-.68945.56055-1.25,1.25-1.25h16c.68945,0,1.25.56055,1.25,1.25v10Zm-6.5-7c0,.87256-.41992,1.70166-1.12402,2.21875-.32812.23975-.87598.75488-.87598,1.51855v.2627c0,.41406-.33594.75-.75.75s-.75-.33594-.75-.75v-.2627c0-1.0415.54248-2.03564,1.48877-2.72803.32471-.23877.51123-.60645.51123-1.00928,0-.68945-.56055-1.25-1.25-1.25s-1.25.56055-1.25,1.25c0,.41406-.33594.75-.75.75s-.75-.33594-.75-.75c0-1.5166,1.2334-2.75,2.75-2.75s2.75,1.2334,2.75,2.75Zm-1.75,7c0,.55225-.44769,1-1,1s-1-.44775-1-1c0-.55231.44769-1,1-1s1,.44769,1,1Z" stroke-width="0"/></svg>