<?xml version="1.0" encoding="UTF-8"?><svg id="a" xmlns="http://www.w3.org/2000/svg" width="24" height="24" viewBox="0 0 24 24"><path d="m17,4.25h-4.25v-1.25c0-.41406-.33594-.75-.75-.75s-.75.33594-.75.75v1.25h-4.25c-1.5166,0-2.75,1.2334-2.75,2.75v9c0,1.5166,1.2334,2.75,2.75,2.75h2.59863l1.77734,2.66602c.13867.20898.37305.33398.62402.33398s.48535-.125.62402-.33398l1.77734-2.66602h2.59863c1.5166,0,2.75-1.2334,2.75-2.75V7c0-1.5166-1.2334-2.75-2.75-2.75Zm1.25,11.75c0,.68945-.56055,1.25-1.25,1.25h-3c-.25098,0-.48535.125-.62402.33398l-1.37598,2.06348-1.37598-2.06348c-.13867-.20898-.37305-.33398-.62402-.33398h-3c-.68945,0-1.25-.56055-1.25-1.25v-1.25h12.5v1.25Zm0-2.75H5.75v-6.25c0-.68945.56055-1.25,1.25-1.25h10c.68945,0,1.25.56055,1.25,1.25v6.25Zm-8.25-3.25c0,.55225-.44769,1-1,1s-1-.44775-1-1c0-.55231.44769-1,1-1s1,.44769,1,1Zm6,0c0,.55225-.44769,1-1,1s-1-.44775-1-1c0-.55231.44769-1,1-1s1,.44769,1,1Zm-13.25-2v4c0,.41406-.33594.75-.75.75s-.75-.33594-.75-.75v-4c0-.41406.33594-.75.75-.75s.75.33594.75.75Zm20,0v4c0,.41406-.33594.75-.75.75s-.75-.33594-.75-.75v-4c0-.41406.33594-.75.75-.75s.75.33594.75.75Z" stroke-width="0"/></svg>