<?xml version="1.0" encoding="UTF-8"?><svg id="a" xmlns="http://www.w3.org/2000/svg" width="24" height="24" viewBox="0 0 24 24"><path d="m2.00019,22.75c-.19531,0-.3877-.07666-.53027-.21973-.20117-.20068-.27148-.49805-.18164-.76758l1.44434-4.33154c-.9707-1.65234-1.48242-3.52246-1.48242-5.43115C1.25019,6.07227,6.07246,1.25,12.00019,1.25s10.75,4.82227,10.75,10.75-4.82227,10.75-10.75,10.75c-1.90918,0-3.7793-.51172-5.43066-1.48242l-4.33203,1.44385c-.07812.02588-.1582.03857-.2373.03857Zm4.66211-3.0542c.14062,0,.28027.03955.40137.11621,1.48535.94092,3.19238,1.43799,4.93652,1.43799,5.10059,0,9.25-4.14941,9.25-9.25S17.10078,2.75,12.00019,2.75,2.75019,6.89941,2.75019,12c0,1.74414.49707,3.45117,1.4375,4.93652.12012.19043.14941.4248.07812.63867l-1.08008,3.23877,3.23926-1.07959c.07715-.02588.15723-.03857.2373-.03857Zm5.33892-3.009c-.55231,0-1,.44769-1,1,0,.55225.44769,1,1,1s1-.44775,1-1c0-.55231-.44769-1-1-1Zm3.69043-7.67383c-.26465-1.51074-1.50586-2.75146-3.0166-3.01709-1.1084-.19434-2.2334.10352-3.08398.81787-.85156.71533-1.33984,1.76221-1.33984,2.87305,0,.41406.33594.75.75.75s.75-.33594.75-.75c0-.6665.29297-1.29492.80469-1.72412.51758-.43457,1.1748-.60938,1.85938-.48926.90137.1582,1.6416.89795,1.7998,1.79883.1709.97705-.27246,1.91406-1.12988,2.38672-1.14844.6333-1.83398,1.73242-1.83398,2.94092v.08691c0,.41406.33594.70654.75.70654s.75-.37939.75-.79346c0-.65381.39551-1.26221,1.05859-1.62744,1.40527-.7749,2.16113-2.36572,1.88184-3.95947Z" stroke-width="0"/></svg>