<?xml version="1.0" encoding="UTF-8"?><svg id="a" xmlns="http://www.w3.org/2000/svg" width="24" height="24" viewBox="0 0 24 24"><path d="m16.75,9c0-4.27344-3.47656-7.75-7.75-7.75S1.25,4.72656,1.25,9c0,1.34277.35059,2.6582,1.01709,3.82666l-.97852,2.93604c-.08984.26953-.01953.56689.18115.76758.14307.14307.33447.21973.53027.21973.07959,0,.15967-.0127.2373-.03857l2.93604-.97852c1.16846.6665,2.48389,1.01709,3.82666,1.01709,4.27344,0,7.75-3.47656,7.75-7.75Zm-11.48633,5.16211c-.07959,0-.15967.0127-.2373.03857l-1.84033.61328.61328-1.84033c.07129-.21387.04248-.44824-.07764-.63867-.63574-1.00293-.97168-2.15625-.97168-3.33496,0-3.44629,2.80371-6.25,6.25-6.25s6.25,2.80371,6.25,6.25-2.80371,6.25-6.25,6.25c-1.17871,0-2.33203-.33594-3.33496-.97168-.12158-.07666-.26074-.11621-.40137-.11621Zm17.44775,7.60059c.08984.26953.02002.56689-.18115.76758-.14307.14307-.33447.21973-.53027.21973-.07959,0-.15967-.0127-.2373-.03857l-2.93604-.97852c-1.16846.6665-2.48389,1.01709-3.82666,1.01709-3.19116,0-6.00623-1.98456-7.17328-4.83478.388.05139.77893.08478,1.17328.08478.17212,0,.34015-.01624.50989-.02582,1.07013,1.95947,3.15546,3.27582,5.49011,3.27582,1.17871,0,2.33203-.33594,3.33496-.97119.19043-.12109.42432-.14941.63867-.07812l1.84033.61328-.61328-1.84033c-.07129-.21387-.04248-.44824.07812-.63867.63525-1.00293.97119-2.15625.97119-3.33496,0-2.33466-1.31635-4.41998-3.27582-5.49011.00958-.16974.02582-.33777.02582-.50989,0-.39868-.0351-.78845-.08557-1.17358,2.85059,1.16687,4.83557,3.98218,4.83557,7.17358,0,1.34277-.35059,2.6582-1.01709,3.82666l.97852,2.93604Z" stroke-width="0"/></svg>