<?xml version="1.0" encoding="UTF-8"?><svg id="a" xmlns="http://www.w3.org/2000/svg" width="24" height="24" viewBox="0 0 24 24"><path d="m12,1.25C6.07227,1.25,1.25,6.07227,1.25,12c0,1.90869.51172,3.77881,1.48242,5.43115l-1.44434,4.33154c-.08984.26953-.01953.56689.18164.76758.14258.14307.33496.21973.53027.21973.0791,0,.15918-.0127.2373-.03857l4.33203-1.44385c1.65137.9707,3.52148,1.48242,5.43066,1.48242,5.92773,0,10.75-4.82227,10.75-10.75S17.92773,1.25,12,1.25Zm0,20c-1.74414,0-3.45117-.49707-4.93652-1.43799-.12109-.07666-.26074-.11621-.40137-.11621-.08008,0-.16016.0127-.2373.03857l-3.23926,1.07959,1.08008-3.23877c.07129-.21387.04199-.44824-.07812-.63867-.94043-1.48535-1.4375-3.19238-1.4375-4.93652C2.75,6.89941,6.89941,2.75,12,2.75s9.25,4.14941,9.25,9.25-4.14941,9.25-9.25,9.25Zm-4-9.25c0,.55225-.44769,1-1,1s-1-.44775-1-1c0-.55231.44769-1,1-1s1,.44769,1,1Zm5,0c0,.55225-.44769,1-1,1s-1-.44775-1-1c0-.55231.44769-1,1-1s1,.44769,1,1Zm5,0c0,.55225-.44769,1-1,1s-1-.44775-1-1c0-.55231.44769-1,1-1s1,.44769,1,1Z" stroke-width="0"/></svg>