<?xml version="1.0" encoding="UTF-8"?><svg id="a" xmlns="http://www.w3.org/2000/svg" width="24" height="24" viewBox="0 0 24 24"><path d="m21.73535,12.85303l-1.67871-8.3916c-.25537-1.28125-1.38965-2.21143-2.69629-2.21143H6.63965c-1.30664,0-2.44092.93018-2.69629,2.21094l-1.67871,8.39209c-.00977.04834-.01465.09766-.01465.14697v6c0,1.5166,1.2334,2.75,2.75,2.75h14c1.5166,0,2.75-1.2334,2.75-2.75v-6c0-.04932-.00488-.09863-.01465-.14697ZM5.41406,4.75439c.11621-.58203.63184-1.00439,1.22559-1.00439h10.7207c.59375,0,1.10938.42236,1.22559,1.00439v.00049l1.49921,7.49512h-3.36444c-.75439,0-1.42139.48047-1.66016,1.19678l-.31592.94824c-.17041.51123-.64746.85498-1.18604.85498h-3.11719c-.53857,0-1.01562-.34375-1.18604-.85449l-.31592-.94922c-.23877-.71582-.90576-1.19629-1.66016-1.19629h-3.36444l1.49921-7.49561Zm14.83594,14.24561c0,.68945-.56055,1.25-1.25,1.25H5c-.68945,0-1.25-.56055-1.25-1.25v-5.25h3.5293c.10791,0,.20312.06885.2373.17041l.31592.94922c.375,1.12451,1.42334,1.88037,2.60889,1.88037h3.11719c1.18555,0,2.23389-.75586,2.60889-1.88086l.31592-.94824c.03418-.10205.12939-.1709.2373-.1709h3.5293v5.25Z" stroke-width="0"/></svg>