<?xml version="1.0" encoding="UTF-8"?><svg id="a" xmlns="http://www.w3.org/2000/svg" width="24" height="24" viewBox="0 0 24 24"><path d="m19,15.25h-2.2793c-.75439,0-1.42139.48047-1.66016,1.19629l-.31592.94922c-.17041.51074-.64746.85449-1.18604.85449h-3.11719c-.53857,0-1.01562-.34375-1.18604-.85449l-.31592-.94922c-.23877-.71582-.90576-1.19629-1.66016-1.19629h-2.2793c-1.5166,0-2.75,1.2334-2.75,2.75v2c0,1.5166,1.2334,2.75,2.75,2.75h14c1.5166,0,2.75-1.2334,2.75-2.75v-2c0-1.5166-1.2334-2.75-2.75-2.75Zm1.25,4.75c0,.68945-.56055,1.25-1.25,1.25H5c-.68945,0-1.25-.56055-1.25-1.25v-2c0-.68945.56055-1.25,1.25-1.25h2.2793c.10791,0,.20312.06836.2373.1709l.31592.94922c.375,1.12402,1.42383,1.87988,2.60889,1.87988h3.11719c1.18506,0,2.23389-.75586,2.60889-1.87988l.31592-.94922c.03418-.10254.12939-.1709.2373-.1709h2.2793c.68945,0,1.25.56055,1.25,1.25v2ZM7.46973,8.53027c-.29297-.29297-.29297-.76758,0-1.06055s.76758-.29297,1.06055,0l2.71973,2.71973V2c0-.41406.33594-.75.75-.75s.75.33594.75.75v8.18945l2.71973-2.71973c.29297-.29297.76758-.29297,1.06055,0s.29297.76758,0,1.06055l-4,4c-.14648.14648-.33838.21973-.53027.21973s-.38379-.07324-.53027-.21973l-4-4Z" stroke-width="0"/></svg>