<?xml version="1.0" encoding="UTF-8"?><svg id="a" xmlns="http://www.w3.org/2000/svg" width="24" height="24" viewBox="0 0 24 24"><path d="m20,5.25H4c-1.5166,0-2.75,1.2334-2.75,2.75v8c0,1.5166,1.2334,2.75,2.75,2.75h16c1.5166,0,2.75-1.2334,2.75-2.75v-8c0-1.5166-1.2334-2.75-2.75-2.75Zm-8.75,12h-7.25c-.68945,0-1.25-.56055-1.25-1.25v-8c0-.68945.56055-1.25,1.25-1.25h7.25v10.5Zm10-1.25c0,.68945-.56055,1.25-1.25,1.25h-7.25V6.75h7.25c.68945,0,1.25.56055,1.25,1.25v8Zm-16.4873-.28857c.3916.13086.81787-.08203.94873-.47412l.49579-1.4873h1.58557l.49579,1.4873c.10449.31396.39746.5127.71143.5127.07861,0,.15869-.01221.2373-.03857.39307-.13086.60498-.55566.47412-.94873l-2-6c-.10205-.30615-.38867-.5127-.71143-.5127s-.60938.20654-.71143.5127l-2,6c-.13086.39307.08105.81787.47412.94873Zm2.2373-4.33984l.29279.87842h-.58557l.29279-.87842Zm12,.37842h-1.18469c.13037.65668.45319,1.06067.94055,1.66992.26562.33301.56055.70215.86816,1.16406.22949.34473.13672.81006-.20801,1.04004-.12793.08545-.27246.12598-.41504.12598-.24219,0-.48047-.11719-.625-.33398-.28027-.42041-.5498-.75586-.79199-1.05908-.20807-.26013-.40521-.51202-.58398-.77704-.17877.26501-.37592.51691-.58398.77704-.24219.30322-.51172.63867-.79199,1.05908-.14453.2168-.38281.33398-.625.33398-.14258,0-.28711-.04053-.41504-.12598-.34473-.22998-.4375-.69531-.20801-1.04004.30762-.46191.60254-.83105.86816-1.16406.48737-.60925.81018-1.01324.94055-1.66992h-1.18469c-.41406,0-.75-.33594-.75-.75s.33594-.75.75-.75h1.25v-1.25c0-.41406.33594-.75.75-.75s.75.33594.75.75v1.25h1.25c.41406,0,.75.33594.75.75s-.33594.75-.75.75Z" stroke-width="0"/></svg>