<?xml version="1.0" encoding="UTF-8"?><svg id="a" xmlns="http://www.w3.org/2000/svg" width="24" height="24" viewBox="0 0 24 24"><path d="m22.4073,2.37032c-.21191-.13867-.4834-.15918-.71484-.05371L1.69246,11.31661c-.28564.12793-.46143.4209-.44092.73242.02051.3125.2334.58008.5332.66992l6.63806,1.99103,1.85608,6.49628c.07617.26758.29443.4707.56641.52734.05127.01172.10352.0166.15479.0166.21973,0,.43213-.09668.57617-.26953l3.65112-4.3819,6.49438,2.59772c.08984.03613.18457.05371.27832.05371.14746,0,.29492-.04395.4209-.12891.20605-.13965.3291-.37207.3291-.62109V3.0002c0-.25488-.12891-.49121-.34277-.62988ZM4.1407,11.85958l13.23651-5.95685-8.638,7.33557-4.59851-1.37872Zm7.19092,7.57129l-1.47754-5.17188,6.07257-5.15723-4.50323,5.41895c-.15332.18457-.20947.43164-.15039.66406s.22559.42285.44873.51172l2.04089.81635-2.43103,2.91803Zm9.91846-1.53809l-8.01465-3.20605,8.01465-9.64355v12.84961Z" stroke-width="0"/></svg>