<?xml version="1.0" encoding="UTF-8"?><svg id="a" xmlns="http://www.w3.org/2000/svg" width="24" height="24" viewBox="0 0 24 24"><path d="m21.45466,13.54077l-3.0957-1.0249c-.68652-.22705-1.42676-.04932-1.91406.43799l-2.02832,1.85352c-.40161.07996-1.66199.19464-3.15918-1.00439L22.52985,2.53052c.29297-.29297.29297-.76758,0-1.06055s-.76758-.29297-1.06055,0L1.4693,21.46997c-.29297.29297-.29297.76758,0,1.06055.14648.14648.33789.21973.53027.21973s.38379-.07324.53027-.21973l5.23004-5.23004c3.04828,2.74432,6.43726,3.45416,9.05902,3.45416.99219,0,1.875-.09814,2.58594-.21924,1.11328-.18945,2.02832-.97217,2.3877-2.04199l.8584-2.55664c.16113-.48145.12598-.99609-.10156-1.44922-.22559-.45215-.61426-.78809-1.09473-.94678Zm-.22559,1.91895l-.8584,2.55615c-.18262.54541-.64941.94434-1.21777,1.04102-2.30481.39032-6.61359.50726-10.34186-2.80756l1.37793-1.37793c2.50861,2.10132,4.74469,1.3573,4.84479,1.32269.0957-.03369.18359-.08594.25781-.1543l2.18945-2.00195c.10742-.10742.26172-.14502.40625-.09814l3.09668,1.0249c.09863.03271.17773.10156.22461.19434.04688.09375.05371.20068.02051.30078Zm-15.33929-.1778c-2.9718-3.96576-2.83191-8.30151-2.42535-10.68646.18848-1.11328.97168-2.02832,2.04199-2.38818l2.55664-.85791c.48242-.16162.99805-.12549,1.44922.10059.45215.22607.78906.61523.94727,1.09521l1.02441,3.09668c.22656.68359.0498,1.42578-.45996,1.93701l-1.83203,2.00586c-.05902.29016-.13135,1.07098.32611,2.06891l-1.11926,1.11926c-1.1778-2.05829-.62207-3.72156-.59259-3.80634.03418-.0957.08594-.18311.1543-.25781l1.97852-2.16504c.12891-.13037.16699-.29004.12109-.43115l-1.02441-3.09668c-.0332-.09814-.10156-.17822-.19434-.22412-.09473-.04785-.20215-.0542-.30176-.02051l-2.55566.85791c-.5459.18359-.94434.6499-1.04102,1.21777-.35706,2.09808-.49377,5.88202,2.01605,9.36578l-1.06921,1.06921Z" stroke-width="0"/></svg>