<?xml version="1.0" encoding="UTF-8"?><svg id="a" xmlns="http://www.w3.org/2000/svg" width="24" height="24" viewBox="0 0 24 24"><path d="m22.51068,4.8954c-.20508-1.20654-1.05371-2.19824-2.21387-2.58838l-2.83887-.95312c-.5127-.17236-1.0625-.13379-1.54688.10693-.48242.24121-.8418.65576-1.01172,1.16797l-1.13867,3.44189c-.24121.73096-.05176,1.52344.46973,2.04297l2.0752,2.271c.10449.48779.29883,2.24609-1.68848,4.23291-1.99219,1.99268-3.75586,1.79053-4.23145,1.68896l-2.24707-2.05371c-.5459-.54443-1.33691-.7334-2.06836-.4917l-3.44141,1.13867c-.51172.16943-.92676.52832-1.16797,1.01025-.24121.4834-.28027,1.03271-.10742,1.54688l.9541,2.83984c.38867,1.16016,1.38086,2.0083,2.58789,2.21387.78613.13379,1.76074.2417,2.85742.2417,3.0752,0,7.11133-.84961,10.63086-4.36914,4.77637-4.77637,4.63574-10.50049,4.12695-13.48779Zm-5.1875,12.42725c-4.29688,4.29736-9.47363,4.16748-12.17578,3.70947-.66113-.11279-1.20508-.57715-1.41797-1.21289l-.9541-2.83936c-.04395-.13281-.03516-.27441.02734-.39893.06152-.12256.16699-.21387.29688-.25732l3.44141-1.13867c.19238-.06152.39551-.0127.56152.15234l2.40527,2.19873c.07422.06836.16211.12061.25781.1543.11621.04053,2.91992.97949,5.91211-2.01221,2.99023-2.98975,2.05371-5.79492,2.0127-5.9126-.0332-.0957-.08594-.18311-.1543-.25781l-2.22168-2.43066c-.14258-.1416-.19141-.34766-.12988-.53564l1.13867-3.44092c.04297-.13037.13477-.23633.25781-.29736.12305-.0625.2627-.07275.39941-.02734l2.83887.95312c.63574.21387,1.10059.75732,1.21289,1.41846.45996,2.70166.58984,7.87549-3.70898,12.17529Z" stroke-width="0"/></svg>