<?xml version="1.0" encoding="UTF-8"?><svg id="a" xmlns="http://www.w3.org/2000/svg" width="24" height="24" viewBox="0 0 24 24"><path d="m16.24714,22.75269c1.09668,0,2.07129-.10791,2.85742-.2417,1.20703-.20557,2.19922-1.05371,2.58789-2.21387l.9541-2.84033c.17285-.51367.13379-1.06299-.10742-1.54639-.24121-.48193-.65625-.84082-1.16797-1.01025l-3.44141-1.13867c-.72656-.24072-1.52148-.05371-2.04395.46875l-2.27246,2.07715c-.47168.10596-2.23242.30908-4.23047-1.68945-1.99316-1.99268-1.79199-3.75586-1.68945-4.23193l2.05273-2.24707c.54492-.54443.73438-1.33691.49316-2.06885l-1.13867-3.44092c-.16992-.51221-.5293-.92676-1.01172-1.16797-.48438-.2417-1.03613-.28027-1.5459-.10693l-2.84082.95312c-1.15918.39014-2.00781,1.38184-2.21289,2.58838-.50879,2.9873-.64941,8.71143,4.12695,13.48779,3.51953,3.51953,7.55469,4.36914,10.63086,4.36914ZM2.96784,5.14771c.1123-.66113.57715-1.20459,1.21191-1.41846l2.84082-.95312c.05469-.01855.11133-.02783.16699-.02783.08008,0,.1582.01855.23145.05518.12305.06104.21484.16699.25781.29736l1.13867,3.43994c.06152.18896.0127.39502-.15332.56152l-2.19824,2.40576c-.06836.07471-.12109.16211-.1543.25781-.04102.11768-.97754,2.92285,2.0127,5.9126,2.99121,2.9917,5.79395,2.05322,5.91211,2.01221.0957-.03369.18359-.08594.25781-.1543l2.42969-2.22168c.14258-.14258.34766-.18994.53711-.12939l3.44141,1.13867c.12988.04346.23535.13477.29688.25732.0625.12451.07129.26611.02734.39844l-.9541,2.83984c-.21289.63574-.75684,1.1001-1.41797,1.21289-2.70215.45801-7.87793.58887-12.17578-3.70947C2.378,13.0232,2.50788,7.84937,2.96784,5.14771ZM22.53229,1.46803c.29297.29297.29297.76758,0,1.06055l-6.7193,6.71973h4.18903c.41406,0,.75.33594.75.75s-.33594.75-.75.75h-6c-.41406,0-.75-.33594-.75-.75V3.9983c0-.41406.33594-.75.75-.75s.75.33594.75.75v4.18988l6.71973-6.72015c.29297-.29297.76758-.29297,1.06055,0Z" stroke-width="0"/></svg>