<?xml version="1.0" encoding="UTF-8"?><svg id="a" xmlns="http://www.w3.org/2000/svg" width="24" height="24" viewBox="0 0 24 24"><path d="m12.23877,16.3517c-.3042-.60547-.91455-.98145-1.56006-.98145h-.00195l-2.45557-.11084c-.34814-.23682-1.36523-1.11279-1.36523-3.25928,0-2.15527,1.02539-3.0293,1.36377-3.25928l2.42334-.10986c.68018,0,1.2915-.37646,1.5957-.98242l1.32178-2.62842c.21387-.4248.24902-.90723.09863-1.3584-.15137-.45264-.46973-.81934-.89795-1.03174l-2.17676-1.08252c-.93848-.4668-2.04932-.37939-2.90186.22607-2.02881,1.43896-5.43262,4.68115-5.43262,10.22656s3.40381,8.7876,5.43262,10.22656c.48877.34668,1.06299.52344,1.64014.52344.42969,0,.86133-.09814,1.26123-.29688l2.17725-1.08301c.42822-.2124.74658-.5791.89795-1.03174.15039-.45117.11523-.93359-.09863-1.3584l-1.32178-2.62842Zm-.00293,3.5127c-.01367.04102-.05029.11719-.14258.16309l-2.17725,1.08301c-.44092.21826-.96387.17725-1.36523-.10742-1.79297-1.27148-4.80078-4.13184-4.80078-9.00293s3.00781-7.73145,4.80078-9.00293c.22998-.16357.5-.24658.77148-.24658.20215,0,.40576.0459.59375.13965l2.17725,1.08252c.09229.0459.12891.12207.14258.16309.01367.04053.0293.12158-.01514.21045l-1.32227,2.62891c-.04834.09619-.146.15576-.28906.15674l-2.64307.11914c-.10107.00439-.2002.0293-.2915.07324-.09473.04541-2.31885,1.15527-2.31885,4.67578s2.22412,4.63037,2.31885,4.67578c.09131.04395.19043.06885.2915.07324l2.67676.12012c.10938,0,.20703.05957.25537.15576,0,.00049.00049.00049.00049.00049l1.32178,2.62842c.04443.08887.02881.16992.01514.21045Zm9.51416-7.86426c0,2.33691-.91016,4.53418-2.5625,6.18701-.14648.14648-.33789.21973-.53027.21973s-.38379-.07324-.53027-.21973c-.29297-.29248-.29297-.76758,0-1.06055,1.36914-1.36963,2.12305-3.19043,2.12305-5.12646s-.75391-3.75684-2.12305-5.12646c-.29297-.29297-.29297-.76807,0-1.06055.29297-.29297.76758-.29297,1.06055,0,1.65234,1.65283,2.5625,3.8501,2.5625,6.18701Zm-3,0c0,1.53613-.59863,2.98047-1.68457,4.06592-.14648.14648-.33887.21973-.53027.21973-.19238,0-.38379-.07324-.53027-.21973-.29297-.29297-.29297-.76807,0-1.06055.80273-.80273,1.24512-1.87012,1.24512-3.00537s-.44238-2.20264-1.24512-3.00537c-.29297-.29248-.29297-.76758,0-1.06055s.76758-.29297,1.06055,0c1.08594,1.08545,1.68457,2.52979,1.68457,4.06592Zm-3.80566-1.94482c.51953.51904.80566,1.20996.80566,1.94482s-.28613,1.42578-.80566,1.94482c-.14648.146-.33887.21924-.53027.21924-.19238,0-.38379-.07324-.53027-.22021-.29297-.29297-.29297-.76758,0-1.06055.23633-.23535.36621-.54932.36621-.8833s-.12988-.64795-.36621-.8833c-.29297-.29297-.29297-.76758,0-1.06055.29199-.29346.7666-.29346,1.06055-.00098Z" stroke-width="0"/></svg>