<?xml version="1.0" encoding="UTF-8"?><svg id="a" xmlns="http://www.w3.org/2000/svg" width="24" height="24" viewBox="0 0 24 24"><path d="m12,6.24911c-5.54541,0-8.7876,3.40381-10.22656,5.43262-.60547.85303-.69238,1.96484-.22656,2.90137l1.08301,2.17725c.2124.42773.57861.74609,1.03076.89697.45117.15283.93408.11719,1.35938-.09766l2.62793-1.32129c.60645-.30469.98291-.91602.98193-1.5625l.11084-2.45557c.23682-.34814,1.11279-1.36523,3.25928-1.36523,2.15527,0,3.0293,1.02539,3.25928,1.36377l.10986,2.42334c0,.68018.37646,1.2915.98242,1.5957l2.62891,1.32227c.25098.12598.52246.18945.79492.18945.18945,0,.37939-.03027.56396-.09229.45215-.15088.81836-.46924,1.03076-.89697l1.08301-2.17725c.46582-.93652.37891-2.04785-.22656-2.90137-1.43896-2.02881-4.68115-5.43262-10.22656-5.43262Zm9.11035,7.66602l-1.08301,2.17725c-.0459.0918-.12158.12842-.1626.14209s-.12207.02979-.21094-.01465l-2.62891-1.32227c-.09619-.04834-.15576-.146-.15674-.28906l-.11914-2.64307c-.00439-.10107-.0293-.2002-.07324-.2915-.04541-.09473-1.15527-2.31885-4.67578-2.31885s-4.63037,2.22412-4.67578,2.31885c-.04395.09131-.06885.19043-.07324.2915l-.12012,2.67676c0,.10938-.05957.20703-.15625.25586l-2.62793,1.32129c-.08936.0459-.16992.0293-.21143.01514-.04102-.01367-.1167-.05029-.1626-.14209l-1.08301-2.17725c-.21875-.44043-.17773-.96338.10742-1.36523,1.27148-1.79297,4.13184-4.80078,9.00293-4.80078s7.73145,3.00781,9.00293,4.80078c.28516.40186.32617.9248.10742,1.36523Z" stroke-width="0"/></svg>