<?xml version="1.0" encoding="UTF-8"?><svg id="a" xmlns="http://www.w3.org/2000/svg" width="24" height="24" viewBox="0 0 24 24"><path d="m16.24652,22.75292c1.09717-.00049,2.07227-.1084,2.85791-.24219,1.20752-.20557,2.19922-1.0542,2.58838-2.21387l.95312-2.83984c.17285-.51367.13477-1.06299-.10742-1.54639-.24072-.48242-.65576-.84131-1.16748-1.01074l-3.44092-1.13867c-.73047-.24268-1.52295-.05322-2.04395.46875l-2.271,2.07568c-.4873.10498-2.24609.29785-4.23291-1.68799-1.99219-1.99268-1.79102-3.75586-1.68848-4.23193l2.05273-2.24756c.5459-.54541.73438-1.33838.49219-2.06836l-1.13867-3.44092c-.16943-.51172-.52832-.92676-1.01074-1.16748-.48389-.24219-1.03271-.28076-1.54639-.10742l-2.83984.95312c-1.16016.38965-2.0083,1.38135-2.21387,2.58838-.5083,2.98779-.64795,8.71289,4.12744,13.48779,3.51953,3.52002,7.55469,4.36963,10.62988,4.36963ZM2.96772,5.14745c.11279-.66162.57764-1.20508,1.21289-1.41846l2.83984-.95312c.05518-.01855.11133-.02783.16748-.02783.07959,0,.1582.01855.23096.05469.12256.06152.21387.16699.25732.29785l1.13867,3.44092c.06152.18604.01074.396-.15234.56055l-2.19824,2.40576c-.06836.07471-.12061.16211-.1543.25781-.04102.11768-.97803,2.92285,2.01172,5.9126,2.98975,2.98877,5.79492,2.05322,5.9126,2.01221.0957-.03369.18311-.08594.25781-.1543l2.43018-2.22217c.14014-.13916.35107-.18945.53613-.12891l3.44092,1.13867c.13086.04346.23633.13477.29785.25732.06201.12402.07129.26562.02686.39844l-.95312,2.83984c-.21338.63525-.75684,1.1001-1.41846,1.21289-2.70264.45801-7.87695.58887-12.17529-3.70947S2.50824,7.8496,2.96772,5.14745Zm11.50391,3.32031l2.46973-2.46973-2.46973-2.46973c-.29297-.29297-.29297-.76758,0-1.06055s.76758-.29297,1.06055,0l2.46973,2.46973,2.46973-2.46973c.29297-.29297.76758-.29297,1.06055,0s.29297.76758,0,1.06055l-2.46973,2.46973,2.46973,2.46973c.29297.29297.29297.76758,0,1.06055-.14648.14648-.33838.21973-.53027.21973s-.38379-.07324-.53027-.21973l-2.46973-2.46973-2.46973,2.46973c-.14648.14648-.33838.21973-.53027.21973s-.38379-.07324-.53027-.21973c-.29297-.29297-.29297-.76758,0-1.06055Z" stroke-width="0"/></svg>