<?xml version="1.0" encoding="UTF-8"?><svg id="a" xmlns="http://www.w3.org/2000/svg" width="24" height="24" viewBox="0 0 24 24"><path d="m16.24512,22.75439c1.09668,0,2.07129-.10791,2.85742-.2417,1.20703-.20557,2.19922-1.05371,2.58789-2.21387l.9541-2.84033c.17285-.51367.13379-1.06299-.10742-1.54639-.24121-.48193-.65625-.84082-1.16797-1.01025l-3.44141-1.13867c-.72754-.24072-1.52148-.05371-2.04395.46875l-2.27051,2.07568c-.48926.10498-2.24658.29785-4.23291-1.68799-1.99219-1.99268-1.79102-3.75586-1.68848-4.23193l2.05273-2.24756c.5459-.54541.73438-1.33838.49219-2.06836l-1.13867-3.44092c-.16943-.51172-.52832-.92676-1.01074-1.16748-.48389-.24219-1.03271-.28076-1.54639-.10742l-2.83984.95312c-1.16016.38965-2.0083,1.38135-2.21387,2.58838-.5083,2.98779-.64795,8.71289,4.12744,13.48779,3.51904,3.51953,7.5542,4.36914,10.63037,4.36914ZM2.96582,5.14941c.11279-.66162.57764-1.20508,1.21289-1.41846l2.83984-.95312c.05518-.01855.11133-.02783.16748-.02783.07959,0,.1582.01855.23096.05469.12256.06152.21387.16699.25732.29785l1.13867,3.44092c.06152.18604.01074.396-.15234.56055l-2.19824,2.40576c-.06836.07471-.12061.16211-.1543.25781-.04102.11768-.97803,2.92285,2.01172,5.9126s5.79443,2.05225,5.9126,2.01221c.0957-.03369.18359-.08594.25781-.1543l2.42969-2.22168c.14258-.14258.34668-.18994.53711-.12939l3.44141,1.13867c.12988.04346.23535.13477.29688.25732.0625.12451.07129.26611.02734.39844l-.9541,2.83984c-.21289.63574-.75684,1.1001-1.41797,1.21289-2.70215.45801-7.87793.58887-12.17529-3.70947C2.37695,13.02637,2.50635,7.85156,2.96582,5.14941Zm10.50391.71436c-.29297-.29297-.29297-.76758,0-1.06055s.76758-.29297,1.06055,0l1.80273,1.80273,4.13672-4.13623c.29297-.29297.76758-.29297,1.06055,0s.29297.76758,0,1.06055l-4.66699,4.6665c-.14648.14648-.33789.21973-.53027.21973s-.38379-.07324-.53027-.21973l-2.33301-2.33301Z" stroke-width="0"/></svg>