<?xml version="1.0" encoding="UTF-8"?><svg id="a" xmlns="http://www.w3.org/2000/svg" width="24" height="24" viewBox="0 0 24 24"><path d="m22,4.75c.41406,0,.75-.33594.75-.75s-.33594-.75-.75-.75c-4.82471,0-8.75,3.92529-8.75,8.75v4c0,2.61914,2.13086,4.75,4.75,4.75s4.75-2.13086,4.75-4.75-2.13086-4.75-4.75-4.75c-1.2597,0-2.39899.50128-3.25,1.30432v-.55432c0-3.99756,3.25244-7.25,7.25-7.25Zm-4,8c1.79199,0,3.25,1.45801,3.25,3.25s-1.45801,3.25-3.25,3.25-3.25-1.45801-3.25-3.25,1.45801-3.25,3.25-3.25ZM10,4.75c.41406,0,.75-.33594.75-.75s-.33594-.75-.75-.75C5.17529,3.25,1.25,7.17529,1.25,12v4c0,2.61914,2.13086,4.75,4.75,4.75s4.75-2.13086,4.75-4.75-2.13086-4.75-4.75-4.75c-1.2597,0-2.39899.50128-3.25,1.30432v-.55432c0-3.99756,3.25244-7.25,7.25-7.25Zm-4,8c1.79199,0,3.25,1.45801,3.25,3.25s-1.45801,3.25-3.25,3.25-3.25-1.45801-3.25-3.25,1.45801-3.25,3.25-3.25Z" stroke-width="0"/></svg>