<?xml version="1.0" encoding="UTF-8"?><svg id="a" xmlns="http://www.w3.org/2000/svg" width="24" height="24" viewBox="0 0 24 24"><path d="m15.75,13V5c0-1.5166-1.2334-2.75-2.75-2.75H5c-1.5166,0-2.75,1.2334-2.75,2.75v8c0,1.5166,1.2334,2.75,2.75,2.75h8c1.5166,0,2.75-1.2334,2.75-2.75Zm-12,0V5c0-.68945.56055-1.25,1.25-1.25h8c.68945,0,1.25.56055,1.25,1.25v8c0,.68945-.56055,1.25-1.25,1.25H5c-.68945,0-1.25-.56055-1.25-1.25Zm8.92871-.68311c-.12695.27295-.39746.43311-.67969.43311-.10547,0-.21289-.02246-.31445-.06982-.09729-.04492-1.70374-.80847-2.68457-2.2854-.98083,1.47693-2.58728,2.24048-2.68457,2.2854-.10156.04736-.20898.06982-.31445.06982-.28223,0-.55273-.16016-.67969-.43311-.1748-.37451-.0127-.8208.36133-.99658.02216-.01025,1.96423-.94214,2.4552-2.57031h-1.13782c-.41406,0-.75-.33594-.75-.75s.33594-.75.75-.75h1.25v-1.25c0-.41406.33594-.75.75-.75s.75.33594.75.75v1.25h1.25c.41406,0,.75.33594.75.75s-.33594.75-.75.75h-1.13782c.49097,1.62817,2.43304,2.56006,2.4552,2.57031.37402.17578.53613.62207.36133.99658Zm9.07129-1.31689v8c0,1.5166-1.2334,2.75-2.75,2.75h-8c-1.5166,0-2.75-1.2334-2.75-2.75v-2h1.5v2c0,.68945.56055,1.25,1.25,1.25h8c.68945,0,1.25-.56055,1.25-1.25v-8c0-.68945-.56055-1.25-1.25-1.25h-2v-1.5h2c1.5166,0,2.75,1.2334,2.75,2.75Zm-8.75,6c.12213,0,.23724-.02533.35663-.03607l-.68573,1.37152c-.13184.2627-.39648.41455-.67188.41455-.1123,0-.22656-.02539-.33398-.0791-.37109-.18555-.52148-.63574-.33594-1.00635l.33228-.66455h1.33862Zm2.98395-1.35486l-.00244-.00494c.40662-.45868.7066-1.00708.86908-1.61633l1.82031,3.64069c.18555.37061.03516.8208-.33594,1.00635-.10742.05371-.22168.0791-.33398.0791-.27539,0-.54004-.15186-.67188-.41455l-.79272-1.58545h-2.18915c.63593-.22937,1.19507-.61212,1.63672-1.10486Z" stroke-width="0"/></svg>