<?xml version="1.0" encoding="UTF-8"?><svg id="a" xmlns="http://www.w3.org/2000/svg" width="24" height="24" viewBox="0 0 24 24"><path d="m15.75,13V5c0-1.5166-1.2334-2.75-2.75-2.75H5c-1.5166,0-2.75,1.2334-2.75,2.75v8c0,1.5166,1.2334,2.75,2.75,2.75h8c1.5166,0,2.75-1.2334,2.75-2.75Zm-12,0V5c0-.68945.56055-1.25,1.25-1.25h8c.68945,0,1.25.56055,1.25,1.25v8c0,.68945-.56055,1.25-1.25,1.25H5c-.68945,0-1.25-.56055-1.25-1.25Zm5.9209-7.33545c-.25391-.50781-1.08789-.50781-1.3418,0l-3,6c-.18555.37061-.03516.8208.33594,1.00635.37109.18652.82031.03467,1.00586-.33545l.79272-1.58545h3.07275l.79272,1.58545c.13184.2627.39648.41455.67188.41455.1123,0,.22656-.02539.33398-.0791.37109-.18555.52148-.63574.33594-1.00635l-3-6Zm-1.45728,3.58545l.78638-1.57275.78638,1.57275h-1.57275Zm13.53638,1.75v8c0,1.5166-1.2334,2.75-2.75,2.75h-8c-1.5166,0-2.75-1.2334-2.75-2.75v-2h1.5v2c0,.68945.56055,1.25,1.25,1.25h8c.68945,0,1.25-.56055,1.25-1.25v-8c0-.68945-.56055-1.25-1.25-1.25h-2v-1.5h2c1.5166,0,2.75,1.2334,2.75,2.75Zm-5.58771,4.42114c.72058,1.21033,2.13617,1.89044,2.15509,1.89917.37402.17578.53613.62207.36133.99658-.12695.27295-.39746.43311-.67969.43311-.10547,0-.21289-.02246-.31445-.06982-.09656-.04456-1.67877-.79541-2.66162-2.24896.44281-.26208.82733-.60364,1.13934-1.01007Zm-3.16229,1.57886c.71002,0,1.36768-.20148,1.94623-.5271-.98468,1.42517-2.53522,2.16315-2.6308,2.20728-.10156.04736-.20898.06982-.31445.06982-.28223,0-.55273-.16016-.67969-.43311-.1748-.37451-.0127-.8208.36133-.99658.00751-.00348.237-.11487.55328-.32031h.7641Zm4-2.25h-.42047c.2254-.4588.36133-.96368.3952-1.5h.02527c.41406,0,.75.33594.75.75s-.33594.75-.75.75Z" stroke-width="0"/></svg>