<?xml version="1.0" encoding="UTF-8"?><svg id="a" xmlns="http://www.w3.org/2000/svg" width="24" height="24" viewBox="0 0 24 24"><path d="M19,6.25h-5.25v-2.25c0-.96484-.78516-1.75-1.75-1.75h-4c-.96484,0-1.75.78516-1.75,1.75v2.25h-1.25c-1.5166,0-2.75,1.2334-2.75,2.75v10c0,1.5166,1.2334,2.75,2.75,2.75h14c1.5166,0,2.75-1.2334,2.75-2.75v-10c0-1.5166-1.2334-2.75-2.75-2.75ZM12.25,20.25h-7.25c-.68945,0-1.25-.56055-1.25-1.25v-10c0-.68945.56055-1.25,1.25-1.25h2c.41406,0,.75-.33594.75-.75v-3c0-.1377.1123-.25.25-.25h4c.1377,0,.25.1123.25.25v16.25ZM20.25,19c0,.68945-.56055,1.25-1.25,1.25h-5.25V7.75h5.25c.68945,0,1.25.56055,1.25,1.25v10ZM7,9.5v1c0,.27612-.22388.5-.5.5h-1c-.27612,0-.5-.22388-.5-.5v-1c0-.27618.22388-.5.5-.5h1c.27612,0,.5.22382.5.5ZM11,9.5v1c0,.27612-.22388.5-.5.5h-1c-.27612,0-.5-.22388-.5-.5v-1c0-.27618.22388-.5.5-.5h1c.27612,0,.5.22382.5.5ZM11,5.5v1c0,.27612-.22388.5-.5.5h-1c-.27612,0-.5-.22388-.5-.5v-1c0-.27618.22388-.5.5-.5h1c.27612,0,.5.22382.5.5ZM7,13.5v1c0,.27612-.22388.5-.5.5h-1c-.27612,0-.5-.22388-.5-.5v-1c0-.27618.22388-.5.5-.5h1c.27612,0,.5.22382.5.5ZM11,13.5v1c0,.27612-.22388.5-.5.5h-1c-.27612,0-.5-.22388-.5-.5v-1c0-.27618.22388-.5.5-.5h1c.27612,0,.5.22382.5.5ZM7,17.5v1c0,.27612-.22388.5-.5.5h-1c-.27612,0-.5-.22388-.5-.5v-1c0-.27618.22388-.5.5-.5h1c.27612,0,.5.22382.5.5ZM11,17.5v1c0,.27612-.22388.5-.5.5h-1c-.27612,0-.5-.22388-.5-.5v-1c0-.27618.22388-.5.5-.5h1c.27612,0,.5.22382.5.5ZM18.75,10c0,.41406-.33594.75-.75.75h-2c-.41406,0-.75-.33594-.75-.75s.33594-.75.75-.75h2c.41406,0,.75.33594.75.75ZM18.75,14c0,.41406-.33594.75-.75.75h-2c-.41406,0-.75-.33594-.75-.75s.33594-.75.75-.75h2c.41406,0,.75.33594.75.75ZM18.75,18c0,.41406-.33594.75-.75.75h-2c-.41406,0-.75-.33594-.75-.75s.33594-.75.75-.75h2c.41406,0,.75.33594.75.75Z" stroke-width="0"/></svg>