<?xml version="1.0" encoding="UTF-8"?><svg id="a" xmlns="http://www.w3.org/2000/svg" width="24" height="24" viewBox="0 0 24 24"><path d="M22.38574,7.35669L12.38574,1.35669c-.2373-.14258-.53418-.14258-.77148,0L1.61426,7.35669c-.22607.13574-.36426.37988-.36426.64355v2c0,.41406.33594.75.75.75h20c.41406,0,.75-.33594.75-.75v-2c0-.26367-.13867-.50781-.36426-.64355ZM21.25,9.25024H2.75v-.8252L12,2.87524l9.25,5.5498v.8252ZM22,21.25024h-.25v-1.25c0-1.25488-.84937-2.30408-2-2.63293v-5.36707h-1.5v5.25h-2.5v-5.25h-1.5v5.25h-4.5v-5.25h-1.5v5.25h-2.5v-5.25h-1.5v5.36707c-1.15063.32886-2,1.37805-2,2.63293v1.25h-.25c-.41406,0-.75.33594-.75.75s.33594.75.75.75h20c.41406,0,.75-.33594.75-.75s-.33594-.75-.75-.75ZM20.25,21.25024H3.75v-1.25c0-.68945.56055-1.25,1.25-1.25h14c.68945,0,1.25.56055,1.25,1.25v1.25ZM10,6.25024h4c.41406,0,.75.33594.75.75s-.33594.75-.75.75h-4c-.41406,0-.75-.33594-.75-.75s.33594-.75.75-.75Z" stroke-width="0"/></svg>