<?xml version="1.0" encoding="UTF-8"?><svg id="a" xmlns="http://www.w3.org/2000/svg" width="24" height="24" viewBox="0 0 24 24"><path d="M17,1.25H7c-1.5166,0-2.75,1.2334-2.75,2.75v16c0,1.5166,1.2334,2.75,2.75,2.75h10c1.5166,0,2.75-1.2334,2.75-2.75V4c0-1.5166-1.2334-2.75-2.75-2.75ZM13.25,21.25h-2.5v-2.25c0-.68945.56055-1.25,1.25-1.25s1.25.56055,1.25,1.25v2.25ZM18.25,20c0,.68945-.56055,1.25-1.25,1.25h-2.25v-2.25c0-1.5166-1.2334-2.75-2.75-2.75s-2.75,1.2334-2.75,2.75v2.25h-2.25c-.68945,0-1.25-.56055-1.25-1.25V4c0-.68945.56055-1.25,1.25-1.25h10c.68945,0,1.25.56055,1.25,1.25v16ZM17,4.5v1c0,.27612-.22388.5-.5.5h-1c-.27612,0-.5-.22388-.5-.5v-1c0-.27618.22388-.5.5-.5h1c.27612,0,.5.22382.5.5ZM17,10.5v1c0,.27612-.22388.5-.5.5h-1c-.27612,0-.5-.22388-.5-.5v-1c0-.27618.22388-.5.5-.5h1c.27612,0,.5.22382.5.5ZM17,13.5v1c0,.27612-.22388.5-.5.5h-1c-.27612,0-.5-.22388-.5-.5v-1c0-.27618.22388-.5.5-.5h1c.27612,0,.5.22382.5.5ZM13,4.5v1c0,.27612-.22388.5-.5.5h-1c-.27612,0-.5-.22388-.5-.5v-1c0-.27618.22388-.5.5-.5h1c.27612,0,.5.22382.5.5ZM13,10.5v1c0,.27612-.22388.5-.5.5h-1c-.27612,0-.5-.22388-.5-.5v-1c0-.27618.22388-.5.5-.5h1c.27612,0,.5.22382.5.5ZM13,13.5v1c0,.27612-.22388.5-.5.5h-1c-.27612,0-.5-.22388-.5-.5v-1c0-.27618.22388-.5.5-.5h1c.27612,0,.5.22382.5.5ZM9,4.5v1c0,.27612-.22388.5-.5.5h-1c-.27612,0-.5-.22388-.5-.5v-1c0-.27618.22388-.5.5-.5h1c.27612,0,.5.22382.5.5ZM9,10.5v1c0,.27612-.22388.5-.5.5h-1c-.27612,0-.5-.22388-.5-.5v-1c0-.27618.22388-.5.5-.5h1c.27612,0,.5.22382.5.5ZM17,7.5v1c0,.27612-.22388.5-.5.5h-1c-.27612,0-.5-.22388-.5-.5v-1c0-.27618.22388-.5.5-.5h1c.27612,0,.5.22382.5.5ZM13,7.5v1c0,.27612-.22388.5-.5.5h-1c-.27612,0-.5-.22388-.5-.5v-1c0-.27618.22388-.5.5-.5h1c.27612,0,.5.22382.5.5ZM9,7.5v1c0,.27612-.22388.5-.5.5h-1c-.27612,0-.5-.22388-.5-.5v-1c0-.27618.22388-.5.5-.5h1c.27612,0,.5.22382.5.5ZM9,13.5v1c0,.27612-.22388.5-.5.5h-1c-.27612,0-.5-.22388-.5-.5v-1c0-.27618.22388-.5.5-.5h1c.27612,0,.5.22382.5.5Z" stroke-width="0"/></svg>