<?xml version="1.0" encoding="UTF-8"?><svg id="a" xmlns="http://www.w3.org/2000/svg" width="24" height="24" viewBox="0 0 24 24"><path d="M19,2.25H5c-1.5166,0-2.75,1.2334-2.75,2.75v2c0,1.25488.84937,2.30408,2,2.63293v9.36707c0,1.5166,1.2334,2.75,2.75,2.75h10c1.5166,0,2.75-1.2334,2.75-2.75v-9.36707c1.15063-.32886,2-1.37805,2-2.63293v-2c0-1.5166-1.2334-2.75-2.75-2.75ZM8.25,20.25h-1.25c-.68945,0-1.25-.56055-1.25-1.25v-3.25h2.5v4.5ZM5.75,14.25v-4.5h8.5v4.5H5.75ZM18.25,19c0,.68945-.56055,1.25-1.25,1.25h-7.25v-4.5h8.5v3.25ZM18.25,14.25h-2.5v-4.5h2.5v4.5ZM20.25,7c0,.68945-.56055,1.25-1.25,1.25H5c-.68945,0-1.25-.56055-1.25-1.25v-2c0-.68945.56055-1.25,1.25-1.25h14c.68945,0,1.25.56055,1.25,1.25v2Z" stroke-width="0"/></svg>