<?xml version="1.0" encoding="UTF-8"?><svg id="a" xmlns="http://www.w3.org/2000/svg" width="24" height="24" viewBox="0 0 24 24"><path d="M20,12.25h-1.25v-.17969c0-.92139-.45801-1.77686-1.22461-2.28809l-4.77539-3.18359v-1.84863h1.25c.41406,0,.75-.33594.75-.75s-.33594-.75-.75-.75h-1.25v-1.25c0-.41406-.33594-.75-.75-.75s-.75.33594-.75.75v1.25h-1.25c-.41406,0-.75.33594-.75.75s.33594.75.75.75h1.25v1.84863l-4.77539,3.18359c-.7666.51123-1.22461,1.3667-1.22461,2.28809v.17969h-1.25c-1.5166,0-2.75,1.2334-2.75,2.75v5c0,1.5166,1.2334,2.75,2.75,2.75h16c1.5166,0,2.75-1.2334,2.75-2.75v-5c0-1.5166-1.2334-2.75-2.75-2.75ZM5.25,21.25h-1.25c-.68945,0-1.25-.56055-1.25-1.25v-5c0-.68945.56055-1.25,1.25-1.25h1.25v7.5ZM13.25,21.25h-2.5v-3.25c0-.68945.56055-1.25,1.25-1.25s1.25.56055,1.25,1.25v3.25ZM17.25,21.25h-2.5v-3.25c0-1.5166-1.2334-2.75-2.75-2.75s-2.75,1.2334-2.75,2.75v3.25h-2.5v-9.17969c0-.41895.20801-.80762.55664-1.04004l4.69336-3.12891,4.69336,3.12891c.34863.23242.55664.62109.55664,1.04004v9.17969ZM21.25,20c0,.68945-.56055,1.25-1.25,1.25h-1.25v-7.5h1.25c.68945,0,1.25.56055,1.25,1.25v5Z" stroke-width="0"/></svg>