<?xml version="1.0" encoding="UTF-8"?><svg id="a" xmlns="http://www.w3.org/2000/svg" width="24" height="24" viewBox="0 0 24 24"><path d="M19.65039,11.80029v-.00049l-6.90039-5.17505v-1.87476h1.25c.41406,0,.75-.33594.75-.75s-.33594-.75-.75-.75h-1.25v-1.25c0-.41406-.33594-.75-.75-.75s-.75.33594-.75.75v1.25h-1.25c-.41406,0-.75.33594-.75.75s.33594.75.75.75h1.25v1.87476l-6.90039,5.17554c-.68848.51709-1.09961,1.33936-1.09961,2.19971v6c0,1.5166,1.2334,2.75,2.75,2.75h12c1.5166,0,2.75-1.2334,2.75-2.75v-6c0-.86035-.41113-1.68262-1.09961-2.19971ZM13.25,21.25h-2.5v-3.25c0-.68945.56055-1.25,1.25-1.25s1.25.56055,1.25,1.25v3.25ZM19.25,20c0,.68945-.56055,1.25-1.25,1.25h-3.25v-3.25c0-1.5166-1.2334-2.75-2.75-2.75s-2.75,1.2334-2.75,2.75v3.25h-3.25c-.68945,0-1.25-.56055-1.25-1.25v-6c0-.39111.1875-.76514.5-1l6.75-5.0625,6.75,5.0625c.31348.23535.5.60938.5,1v6Z" stroke-width="0"/></svg>