<?xml version="1.0" encoding="UTF-8"?><svg id="a" xmlns="http://www.w3.org/2000/svg" width="24" height="24" viewBox="0 0 24 24"><path d="M19,5.25h-2.25v-1.25c0-1.5166-1.2334-2.75-2.75-2.75h-4c-1.5166,0-2.75,1.2334-2.75,2.75v1.25h-2.25c-1.5166,0-2.75,1.2334-2.75,2.75v12c0,1.5166,1.2334,2.75,2.75,2.75h14c1.5166,0,2.75-1.2334,2.75-2.75v-12c0-1.5166-1.2334-2.75-2.75-2.75ZM7.25,10h-1.75c-.27612,0-.5.22382-.5.5v1c0,.27612.22388.5.5.5h1.75v2h-1.75c-.27612,0-.5.22382-.5.5v1c0,.27612.22388.5.5.5h1.75v2h-1.75c-.27612,0-.5.22382-.5.5v1c0,.27612.22388.5.5.5h1.75v1.25h-2.25c-.68945,0-1.25-.56055-1.25-1.25v-12c0-.68945.56055-1.25,1.25-1.25h2.25v3.25ZM12.75,21.25h-1.5v-2.75c0-.41357.33643-.75.75-.75s.75.33643.75.75v2.75ZM15.25,21.25h-1v-2.75c0-1.24072-1.00928-2.25-2.25-2.25s-2.25,1.00928-2.25,2.25v2.75h-1V4c0-.68945.56055-1.25,1.25-1.25h4c.68945,0,1.25.56055,1.25,1.25v17.25ZM20.25,20c0,.68945-.56055,1.25-1.25,1.25h-2.25v-1.25h1.75c.27612,0,.5-.22388.5-.5v-1c0-.27618-.22388-.5-.5-.5h-1.75v-2h1.75c.27612,0,.5-.22388.5-.5v-1c0-.27618-.22388-.5-.5-.5h-1.75v-2h1.75c.27612,0,.5-.22388.5-.5v-1c0-.27618-.22388-.5-.5-.5h-1.75v-3.25h2.25c.68945,0,1.25.56055,1.25,1.25v12ZM14,4.5v1c0,.27612-.22388.5-.5.5h-3c-.27612,0-.5-.22388-.5-.5v-1c0-.27618.22388-.5.5-.5h3c.27612,0,.5.22382.5.5ZM14,8.5v1c0,.27612-.22388.5-.5.5h-3c-.27612,0-.5-.22388-.5-.5v-1c0-.27618.22388-.5.5-.5h3c.27612,0,.5.22382.5.5ZM14,12.5v1c0,.27612-.22388.5-.5.5h-3c-.27612,0-.5-.22388-.5-.5v-1c0-.27618.22388-.5.5-.5h3c.27612,0,.5.22382.5.5Z" stroke-width="0"/></svg>