<?xml version="1.0" encoding="UTF-8"?><svg id="a" xmlns="http://www.w3.org/2000/svg" width="24" height="24" viewBox="0 0 24 24"><path d="M20,2.25h-2c-.96484,0-1.75.78516-1.75,1.75v6.25h-2.5v-1.25c0-.24902-.12305-.48145-.3291-.62109-.20605-.14062-.46777-.16895-.69922-.0752l-3.97168,1.58838v-.89209c0-.24902-.12305-.48145-.3291-.62109-.20703-.14062-.46875-.16895-.69922-.0752l-3.74316,1.49707c-1.0498.42041-1.72852,1.42236-1.72852,2.55322v6.646c0,1.5166,1.2334,2.75,2.75,2.75h14c1.5166,0,2.75-1.2334,2.75-2.75V4c0-.96484-.78516-1.75-1.75-1.75ZM20.25,19c0,.68945-.56055,1.25-1.25,1.25H5c-.68945,0-1.25-.56055-1.25-1.25v-6.646c0-.51416.30859-.96973.78516-1.16064l2.71484-1.08545v.89209c0,.24902.12305.48145.3291.62109s.46777.16699.69922.0752l3.97168-1.58838v.89209c0,.41406.33594.75.75.75h4c.41406,0,.75-.33594.75-.75v-3.25h2.5v11.25ZM20.25,6.25h-2.5v-2.25c0-.1377.1123-.25.25-.25h2c.1377,0,.25.1123.25.25v2.25ZM9,13.5v1c0,.27612-.22388.5-.5.5h-3c-.27612,0-.5-.22388-.5-.5v-1c0-.27618.22388-.5.5-.5h3c.27612,0,.5.22382.5.5ZM9,17.5v1c0,.27612-.22388.5-.5.5h-3c-.27612,0-.5-.22388-.5-.5v-1c0-.27618.22388-.5.5-.5h3c.27612,0,.5.22382.5.5ZM15,13.5v1c0,.27612-.22388.5-.5.5h-3c-.27612,0-.5-.22388-.5-.5v-1c0-.27618.22388-.5.5-.5h3c.27612,0,.5.22382.5.5ZM15,17.5v1c0,.27612-.22388.5-.5.5h-3c-.27612,0-.5-.22388-.5-.5v-1c0-.27618.22388-.5.5-.5h3c.27612,0,.5.22382.5.5ZM17.5,13h1c.27612,0,.5.22382.5.5v1c0,.27612-.22388.5-.5.5h-1c-.27612,0-.5-.22388-.5-.5v-1c0-.27618.22388-.5.5-.5ZM19,17.5v1c0,.27612-.22388.5-.5.5h-1c-.27612,0-.5-.22388-.5-.5v-1c0-.27618.22388-.5.5-.5h1c.27612,0,.5.22382.5.5Z" stroke-width="0"/></svg>