<?xml version="1.0" encoding="UTF-8"?><svg id="a" xmlns="http://www.w3.org/2000/svg" width="24" height="24" viewBox="0 0 24 24"><path d="M19,2.25H5c-1.5166,0-2.75,1.2334-2.75,2.75v14c0,1.5166,1.2334,2.75,2.75,2.75h4c.41406,0,.75-.33594.75-.75v-4.83008c0-1.271.95459-2.35498,2.12842-2.4165.62939-.03418,1.21826.18555,1.67041.61426.45215.4292.70117,1.00879.70117,1.63232v5c0,.41406.33594.75.75.75h4c1.5166,0,2.75-1.2334,2.75-2.75V5c0-1.5166-1.2334-2.75-2.75-2.75ZM20.25,19c0,.68945-.56055,1.25-1.25,1.25h-3.25v-4.25c0-1.02393-.42578-2.01562-1.16895-2.7207-.75293-.71484-1.74902-1.07568-2.78125-1.02393-1.99072.10449-3.5498,1.82373-3.5498,3.91455v4.08008h-3.25c-.68945,0-1.25-.56055-1.25-1.25V7.75h16.5v11.25ZM20.25,6.25H3.75v-1.25c0-.68945.56055-1.25,1.25-1.25h14c.68945,0,1.25.56055,1.25,1.25v1.25Z" stroke-width="0"/></svg>