<?xml version="1.0" encoding="UTF-8"?><svg id="a" xmlns="http://www.w3.org/2000/svg" width="24" height="24" viewBox="0 0 24 24"><path d="M21.6084,9.4375c-.14648.20312-.37598.31152-.60938.31152-.15137,0-.30566-.0459-.4375-.1416l-7.77246-5.60938c-.45703-.33008-1.12109-.33008-1.57812,0l-7.77246,5.60938c-.33496.24414-.80469.16504-1.04688-.16992-.24219-.33594-.16602-.80469.16992-1.04688l7.77246-5.60938c.98047-.70703,2.35156-.70703,3.33203,0l7.77246,5.60938c.33594.24219.41211.71094.16992,1.04688ZM9.92957,14.00085v-.00372c.00006-.11212-.05133-.21759-.14709-.27368l-.4845-.28369c-.14148-.08282-.19-.2663-.10828-.40979l.57764-1.01465c.08167-.14349.26263-.19263.40411-.1098l.49115.2876c.0918.05371.20306.04724.29486-.00665.00098-.00061.00195-.00116.00299-.00177.09149-.05353.1521-.14795.1521-.255v-.63068c0-.16571.13245-.29999.29578-.29999h1.18335c.16333,0,.29578.13428.29578.29999v.63068c0,.10706.06061.20148.1521.255.00104.00061.00201.00116.00299.00177.0918.05389.20306.06036.29486.00665l.49115-.2876c.14148-.08282.32245-.03369.40411.1098l.57764,1.01465c.08173.14349.0332.32697-.10828.40979l-.47931.28064c-.09729.05701-.15723.16229-.15723.27631v.00464c0,.11395.05994.21924.15723.27625l.47931.28064c.14148.08282.19.2663.10828.40979l-.57764,1.01465c-.08167.14349-.26263.19269-.40411.1098l-.49115-.28754c-.0918-.05377-.20306-.04724-.29486.00659-.00098.00061-.00195.00122-.00299.00183-.09149.05347-.1521.14795-.1521.255v.63068c0,.16565-.13245.29999-.29578.29999h-1.18335c-.16333,0-.29578-.13434-.29578-.29999v-.63068c0-.10706-.06061-.20154-.1521-.255-.00104-.00061-.00201-.00122-.00299-.00183-.0918-.05383-.20306-.06036-.29486-.00659l-.49115.28754c-.14148.08289-.32245.03369-.40411-.1098l-.57764-1.01465c-.08173-.14349-.0332-.32697.10828-.40979l.4845-.28369c.09576-.05603.14716-.16156.14709-.27368ZM11.09998,13.99902c0,.49707.40295.89996.90002.89996s.90002-.40289.90002-.89996-.40295-.90002-.90002-.90002-.90002.40295-.90002.90002ZM18.25,18.99902c0,.68945-.56055,1.25-1.25,1.25H7c-.68945,0-1.25-.56055-1.25-1.25v-9.5177l-1.5,1.0827v8.435c0,1.5166,1.2334,2.75,2.75,2.75h10c1.5166,0,2.75-1.2334,2.75-2.75v-8.435l-1.5-1.08258v9.51758Z" stroke-width="0"/></svg>