<?xml version="1.0" encoding="UTF-8"?><svg id="a" xmlns="http://www.w3.org/2000/svg" width="24" height="24" viewBox="0 0 24 24"><path d="M10.21075,3.99805l-7.77246,5.60938c-.33496.24316-.80469.16504-1.04688-.16992-.24219-.33594-.16602-.80469.16992-1.04688l7.77246-5.60938c.98047-.70703,2.35156-.70703,3.33203,0l7.77246,5.60938c.33594.24219.41211.71094.16992,1.04688-.14648.20312-.37598.31152-.60938.31152-.15137,0-.30566-.0459-.4375-.1416l-7.77246-5.60938c-.45703-.33008-1.12109-.33008-1.57812,0ZM22.65215,15.62988c-.13281-.23535-.38184-.38086-.65234-.38086h-1.67578l2.31934-3.86426c.21289-.35547.09766-.81543-.25781-1.0293-.35742-.21387-.81641-.09766-1.0293.25781l-3,5c-.13867.23145-.14258.52051-.00879.75488.13281.23535.38184.38086.65234.38086h1.67578l-2.31934,3.86426c-.21289.35547-.09766.81543.25781,1.0293.12109.07227.25391.10645.38477.10645.25488,0,.50391-.12988.64453-.36426l3-5c.13867-.23145.14258-.52051.00879-.75488ZM16.99981,15.24902h-1.67578l2.31934-3.86426c.21289-.35547.09766-.81543-.25781-1.0293-.35742-.21387-.81641-.09766-1.0293.25781l-3,5c-.13867.23145-.14258.52051-.00879.75488.13281.23535.38184.38086.65234.38086h1.67578l-2.31934,3.86426c-.21289.35547-.09766.81543.25781,1.0293.12109.07227.25391.10645.38477.10645.25488,0,.50391-.12988.64453-.36426l3-5c.13867-.23145.14258-.52051.00879-.75488-.13281-.23535-.38184-.38086-.65234-.38086ZM5.99981,20.24902c-.68945,0-1.25-.56055-1.25-1.25v-9.5177l-1.5,1.0827v8.435c0,1.5166,1.2334,2.75,2.75,2.75h6.1535c-.19104-.4718-.20026-1.00739.00018-1.5h-6.15369Z" stroke-width="0"/></svg>