<?xml version="1.0" encoding="UTF-8"?><svg id="a" xmlns="http://www.w3.org/2000/svg" width="24" height="24" viewBox="0 0 24 24"><path d="M10.21104,3.99805l-7.77148,5.60938c-.33643.24023-.80469.16602-1.04688-.16992-.24268-.33496-.16699-.80469.16895-1.04688l7.77197-5.60938c.98193-.70703,2.35254-.70703,3.3335,0l7.77246,5.60938c.33594.24219.41162.71191.16895,1.04688-.14648.20312-.37598.31152-.6084.31152-.15234,0-.30566-.0459-.43848-.1416l-7.77197-5.60938c-.45703-.33008-1.12061-.33008-1.57861,0ZM19.50059,15.99902c0,1.24023-1.00928,2.25-2.25,2.25s-2.25-1.00977-2.25-2.25,1.00928-2.25,2.25-2.25,2.25,1.00977,2.25,2.25ZM18.00059,15.99902c0-.41309-.33643-.75-.75-.75s-.75.33691-.75.75.33643.75.75.75.75-.33691.75-.75ZM22.58702,17.98438l-.96338,1.69141c-.1665.29199-.43604.5-.75928.58691-.32129.08496-.65723.04102-.94482-.12695l-.43994-.25781v.62109c0,.68945-.55762,1.25-1.24316,1.25h-1.97168c-.68555,0-1.24316-.56055-1.24316-1.25v-.62109l-.43994.25781c-.28809.16699-.62451.21094-.94482.12695-.32324-.08691-.59277-.29492-.75928-.58691l-.96289-1.69043c-.33691-.59375-.13379-1.35645.45215-1.70117l.4873-.28516-.48584-.28418c-.5874-.3457-.79053-1.1084-.4541-1.70117l.96338-1.69141c.1665-.29199.43604-.5.75928-.58691.32178-.08594.65674-.04102.94482.12695l.43994.25781v-.62109c0-.68945.55762-1.25,1.24316-1.25h1.97168c.68555,0,1.24316.56055,1.24316,1.25v.62109l.43994-.25781c.2876-.16895.62256-.21289.94482-.12695.32324.08691.59277.29492.75928.58691l.96289,1.69043c.33691.59375.13379,1.35645-.45215,1.70117l-.4873.28516.48584.28418c.00049.00098.00098.00098.00146.00098.58594.34473.78906,1.10742.45264,1.7002ZM19.94298,16.00293c0-.46289.24268-.88672.63379-1.11523l.58643-.34375-.71436-1.25293-.59033.3457c-.37891.22266-.85889.21875-1.25-.01172-.396-.2334-.62891-.63379-.62891-1.0752v-.80078h-1.45801v.80078c0,.44141-.23291.8418-.62256,1.07227-.396.2334-.87695.2373-1.25732.01367l-.58936-.34473-.71436,1.25293.5957.34863c.38525.22363.61621.63672.61621,1.10352,0,.47266-.23096.88574-.61816,1.11035l-.59375.34766.71436,1.25293.59033-.3457c.37842-.22266.85938-.21875,1.25.01172.396.2334.62891.63379.62891,1.0752v.80078h1.45801v-.80078c0-.44141.23291-.8418.62256-1.07227.39648-.2334.87744-.2373,1.25732-.01367l.58936.34473.71436-1.25293-.58691-.34375c-.39062-.22852-.6333-.65234-.6333-1.10742ZM12.00059,20.24902h-6c-.68945,0-1.25-.56055-1.25-1.25v-9.51813l-1.5,1.08276v8.43536c0,1.5166,1.2334,2.75,2.75,2.75h6c.41406,0,.75-.33594.75-.75s-.33594-.75-.75-.75Z" stroke-width="0"/></svg>