<?xml version="1.0" encoding="UTF-8"?><svg id="a" xmlns="http://www.w3.org/2000/svg" width="24" height="24" viewBox="0 0 24 24"><path d="M10.21047,3.99805l-7.77148,5.60938c-.33594.24121-.80469.16602-1.04688-.16992-.24268-.33496-.16699-.80469.16895-1.04688l7.77197-5.60938c.98193-.70801,2.35254-.70605,3.3335,0l7.77246,5.60938c.33594.24219.41162.71191.16895,1.04688-.14648.20312-.37598.31152-.6084.31152-.15234,0-.30566-.0459-.43848-.1416l-7.77197-5.60938c-.45703-.33008-1.12061-.33008-1.57861,0ZM22.75002,15.33203v1.33398c0,.96484-.78516,1.75-1.75,1.75h-1.5835v1.58301c0,.96484-.78516,1.75-1.75,1.75h-1.33301c-.96484,0-1.75-.78516-1.75-1.75v-1.58301h-1.5835c-.96484,0-1.75-.78516-1.75-1.75v-1.33398c0-.96484.78516-1.75,1.75-1.75h1.5835v-1.58301c0-.96484.78516-1.75,1.75-1.75h1.33301c.96484,0,1.75.78516,1.75,1.75v1.58301h1.5835c.96484,0,1.75.78516,1.75,1.75ZM21.25002,15.33203c0-.1377-.1123-.25-.25-.25h-2.3335c-.41406,0-.75-.33594-.75-.75v-2.33301c0-.1377-.1123-.25-.25-.25h-1.33301c-.1377,0-.25.1123-.25.25v2.33301c0,.41406-.33594.75-.75.75h-2.3335c-.1377,0-.25.1123-.25.25v1.33398c0,.1377.1123.25.25.25h2.3335c.41406,0,.75.33594.75.75v2.33301c0,.1377.1123.25.25.25h1.33301c.1377,0,.25-.1123.25-.25v-2.33301c0-.41406.33594-.75.75-.75h2.3335c.1377,0,.25-.1123.25-.25v-1.33398ZM11.00002,20.24902h-5c-.68945,0-1.25-.56055-1.25-1.25v-9.51813l-1.5,1.08276v8.43536c0,1.5166,1.2334,2.75,2.75,2.75h5c.41406,0,.75-.33594.75-.75s-.33594-.75-.75-.75Z" stroke-width="0"/></svg>