<?xml version="1.0" encoding="UTF-8"?><svg id="a" xmlns="http://www.w3.org/2000/svg" width="24" height="24" viewBox="0 0 24 24"><path d="M21.6084,9.43817c-.14648.20312-.37598.31104-.60938.31104-.15137,0-.30469-.0459-.4375-.1416l-7.77246-5.60889c-.45703-.33105-1.12012-.33057-1.57715-.00049l-7.77344,5.60938c-.33496.24414-.80469.1665-1.04688-.16943s-.16602-.80469.16992-1.04736l7.77246-5.60889c.98047-.70801,2.35059-.7085,3.33301.00049l7.77148,5.6084c.33594.24268.41211.71143.16992,1.04736ZM18.25,18.99921c0,.68945-.56055,1.25-1.25,1.25h-2.25v-3.25c0-.80762-.35352-1.57129-.96875-2.09521s-1.43164-.74805-2.2373-.61768c-1.30762.21289-2.29395,1.42529-2.29395,2.81982v3.14307h-2.25c-.68945,0-1.25-.56055-1.25-1.25v-9.51862l-1.5,1.0824v8.43622c0,1.51611,1.2334,2.75,2.75,2.75h3c.41406,0,.75-.33594.75-.75v-3.89307c0-.66748.44434-1.24316,1.03418-1.33936.38379-.06055.74219.03906,1.02539.27979.2793.23828.44043.58545.44043.95264v4c0,.41406.33594.75.75.75h3c1.5166,0,2.75-1.23389,2.75-2.75v-8.43622l-1.5-1.08246v9.51868Z" stroke-width="0"/></svg>