<?xml version="1.0" encoding="UTF-8"?><svg id="a" xmlns="http://www.w3.org/2000/svg" width="24" height="24" viewBox="0 0 24 24"><path d="M20.44824,12.38477l-4.1123-2.05664c-.29004-.1416-.63867-.08984-.86621.14062-.22852.22852-.28516.57715-.14062.86621l1.18262,2.36328c.34473.68945.20996,1.51855-.33496,2.06348-.09766.09766-.25586.09766-.35352,0-.04688-.04688-.07324-.11133-.07324-.17676v-1.58594c0-.30371-.18262-.57715-.46289-.69336-.28027-.11523-.60254-.05078-.81738.16309l-1,1c-.78613.78613-1.21973,1.83203-1.21973,2.94434v.17188c0,1.1123.43359,2.1582,1.21973,2.94434s1.83203,1.21973,2.94434,1.21973h1.01367c1.8623,0,3.58984-.9248,4.62305-2.47363.45703-.68652.69922-1.48535.69922-2.31055v-.85547c0-1.58789-.88184-3.01465-2.30176-3.72461ZM21.24999,16.96484c0,.52832-.1543,1.03906-.44727,1.47852-.75391,1.13086-2.01562,1.80566-3.375,1.80566h-1.01367c-.71191,0-1.38086-.27734-1.88379-.78027s-.78027-1.17188-.78027-1.88379v-.17188c0-.57617.18164-1.125.51855-1.5791.05371.37109.22754.72168.49414.98828.68164.68164,1.79297.68164,2.47461,0,1.00195-1.00195,1.25-2.52734.61621-3.79492l-.17578-.35059,2.09863,1.0498h.00098c.9082.4541,1.47266,1.36719,1.47266,2.38281v.85547ZM10.21093,3.99805l-7.77246,5.60938c-.33496.24316-.80566.16504-1.04688-.16992-.24219-.33594-.16602-.80469.16992-1.04688l7.77246-5.60938c.98047-.70703,2.35156-.70703,3.33203,0l7.77246,5.60938c.33594.24219.41211.71094.16992,1.04688-.14648.20312-.37598.31152-.60938.31152-.15137,0-.30566-.0459-.4375-.1416l-7.77246-5.60938c-.45703-.33008-1.12109-.33008-1.57812,0ZM12.58593,21.41309c.12646.12646.27234.22375.40863.33594h-6.99457c-1.5166,0-2.75-1.2334-2.75-2.75v-8.435l1.5-1.0827v9.5177c0,.68945.56055,1.25,1.25,1.25h5.72589c.23773.41705.51147.81549.86005,1.16406Z" stroke-width="0"/></svg>