<?xml version="1.0" encoding="UTF-8"?><svg id="a" xmlns="http://www.w3.org/2000/svg" width="24" height="24" viewBox="0 0 24 24"><path d="M21.41504,7.4425L13.41504,2.6427c-.87305-.52441-1.95752-.52441-2.82959,0L2.58545,7.4425c-.82373.49365-1.33545,1.39746-1.33545,2.35791v9.2002c0,1.5166,1.2334,2.75,2.75,2.75h16c1.5166,0,2.75-1.2334,2.75-2.75v-9.2002c0-.96094-.51172-1.86426-1.33496-2.35791ZM17.25,20.25061H6.75v-2.5h10.5v2.5ZM5.88525,16.25061l.25-1.5h11.729l.25,1.5H5.88525ZM6.38525,13.25061l.25-1.5h10.729l.25,1.5H6.38525ZM21.25,19.00061c0,.68945-.56055,1.25-1.25,1.25h-1.25v-2.5h.25c.2207,0,.42969-.09717.57227-.26514.14258-.16846.2041-.39062.16797-.6084l-1-6c-.06055-.36133-.37402-.62646-.74023-.62646H6c-.3667,0-.67969.26514-.73975.62646l-1,6c-.03613.21777.0249.43994.16748.6084.14258.16797.35156.26514.57227.26514h.25v2.5h-1.25c-.68945,0-1.25-.56055-1.25-1.25v-9.2002c0-.43652.23242-.84717.60693-1.07178L11.35742,3.92883c.19824-.11914.42041-.17871.64258-.17871.22266,0,.44482.05957.64355.17871l8,4.7998c.37402.22461.60645.63525.60645,1.07178v9.2002ZM15.75,8.00061c0,.41406-.33594.75-.75.75h-6c-.41406,0-.75-.33594-.75-.75s.33594-.75.75-.75h6c.41406,0,.75.33594.75.75Z" stroke-width="0"/></svg>