<?xml version="1.0" encoding="UTF-8"?><svg id="a" xmlns="http://www.w3.org/2000/svg" width="24" height="24" viewBox="0 0 24 24"><path d="M20.59912,7.78882l-7.05371-5.0415c-.9248-.66016-2.16699-.66016-3.09082,0L3.40088,7.78882c-.7207.51514-1.15088,1.35156-1.15088,2.23779v8.97119c0,1.51611,1.2334,2.75,2.75,2.75h14c1.5166,0,2.75-1.23389,2.75-2.75v-8.97119c0-.88623-.43018-1.72266-1.15088-2.23779ZM16.25,20.2478H7.75v-4.5h8.5v4.5ZM16.25,14.2478H7.75v-1.25c0-.68945.56055-1.25,1.25-1.25h6c.68945,0,1.25.56055,1.25,1.25v1.25ZM20.25,18.9978c0,.68945-.56055,1.25-1.25,1.25h-1.25v-7.25c0-1.5166-1.2334-2.75-2.75-2.75h-6c-1.5166,0-2.75,1.2334-2.75,2.75v7.25h-1.25c-.68945,0-1.25-.56055-1.25-1.25v-8.97119c0-.40283.19531-.7832.52295-1.01709l7.05371-5.0415c.20117-.14404.4375-.21582.67334-.21582s.47217.07178.67334.21582l7.05371,5.0415c.32764.23389.52295.61426.52295,1.01709v8.97119ZM9.25,17.9978c0-.41406.33594-.75.75-.75h4c.41406,0,.75.33594.75.75s-.33594.75-.75.75h-4c-.41406,0-.75-.33594-.75-.75Z" stroke-width="0"/></svg>