<?xml version="1.0" encoding="UTF-8"?><svg id="a" xmlns="http://www.w3.org/2000/svg" width="24" height="24" viewBox="0 0 24 24"><path d="M2.39209,9.4375c-.24268-.33496-.16699-.80469.16895-1.04688l7.77197-5.60938c.98193-.70703,2.35254-.70703,3.3335,0l7.77246,5.60938c.33594.24219.41162.71191.16895,1.04688-.14648.20312-.37598.31152-.6084.31152-.15234,0-.30566-.0459-.43848-.1416l-7.77197-5.60938c-.45703-.33008-1.12061-.33008-1.57861,0l-7.77148,5.60938c-.33545.24121-.80518.16602-1.04688-.16992ZM2,18.74902c1.22998,0,2.375-.35352,3.1416-.96875.12012-.09766.26367-.09766.38379,0,.7666.61523,1.91162.96875,3.14111.96875,1.22998,0,2.375-.35352,3.1416-.96875.12012-.09766.26367-.09766.38379,0,.7666.61523,1.91162.96875,3.1416.96875,1.22949,0,2.37451-.35352,3.14111-.96875.12012-.09766.26367-.09766.38379,0,.7666.61523,1.91162.96875,3.1416.96875.41406,0,.75-.33594.75-.75s-.33594-.75-.75-.75c-.88135,0-1.70459-.23828-2.20215-.63867-.66602-.53516-1.59668-.53516-2.2627,0-.99561.80078-3.40918.80078-4.40381,0-.66602-.53516-1.59668-.53516-2.2627,0-.99414.80078-3.4082.80176-4.40381,0-.66602-.53516-1.59668-.53516-2.2627,0-.49756.40039-1.3208.63867-2.20215.63867-.41406,0-.75.33594-.75.75s.33594.75.75.75ZM22,20.24902c-.88135,0-1.70459-.23828-2.20215-.63867-.66602-.53516-1.59668-.53516-2.2627,0-.99561.80078-3.40918.80078-4.40381,0-.66602-.53516-1.59668-.53516-2.2627,0-.99414.80078-3.4082.80078-4.40381,0-.66602-.53516-1.59668-.53516-2.2627,0-.49756.40039-1.3208.63867-2.20215.63867-.41406,0-.75.33594-.75.75s.33594.75.75.75c1.22998,0,2.375-.35352,3.1416-.96875.12012-.09766.26367-.09766.38379,0,.7666.61523,1.91162.96875,3.14111.96875,1.22998,0,2.375-.35352,3.1416-.96875.12012-.09766.26367-.09766.38379,0,.7666.61523,1.91162.96875,3.1416.96875,1.22949,0,2.37451-.35352,3.14111-.96875.12012-.09766.26367-.09766.38379,0,.7666.61523,1.91162.96875,3.1416.96875.41406,0,.75-.33594.75-.75s-.33594-.75-.75-.75ZM15,8.24902c.96484,0,1.75.78516,1.75,1.75v2c0,.96484-.78516,1.75-1.75,1.75h-6c-.96484,0-1.75-.78516-1.75-1.75v-2c0-.96484.78516-1.75,1.75-1.75h6ZM11.25,9.74902h-2.25c-.1377,0-.25.1123-.25.25v2c0,.1377.1123.25.25.25h2.25v-2.5ZM15,9.74902h-2.25v2.5h2.25c.1377,0,.25-.1123.25-.25v-2c0-.1377-.1123-.25-.25-.25ZM19.75,15.16492v-4.60126l-1.5-1.08264v5.51147c.5036-.07007,1.01782-.01251,1.5.17242ZM5.75,14.99249v-5.5116l-1.5,1.08276v4.60126c.48218-.18494.9964-.24249,1.5-.17242Z" stroke-width="0"/></svg>