<?xml version="1.0" encoding="UTF-8"?><svg id="a" xmlns="http://www.w3.org/2000/svg" width="24" height="24" viewBox="0 0 24 24"><path d="M21.60791,9.4375c-.14648.20312-.37598.31152-.6084.31152-.15234,0-.30566-.0459-.43848-.1416l-7.77197-5.60938c-.45703-.33008-1.12061-.33008-1.57861,0l-7.77148,5.60938c-.33643.24121-.80518.16602-1.04688-.16992-.24268-.33496-.16699-.80469.16895-1.04688l7.77197-5.60938c.98145-.70801,2.35205-.70605,3.3335,0l7.77246,5.60938c.33594.24219.41162.71191.16895,1.04688ZM12.5,10.99902h-1c-.27612,0-.5.22382-.5.5v1.5h-1.5c-.27612,0-.5.22382-.5.5v1c0,.27612.22388.5.5.5h1.5v1.5c0,.27612.22388.5.5.5h1c.27612,0,.5-.22388.5-.5v-1.5h1.5c.27612,0,.5-.22388.5-.5v-1c0-.27618-.22388-.5-.5-.5h-1.5v-1.5c0-.27618-.22388-.5-.5-.5ZM18.25,18.99902c0,.68945-.56055,1.25-1.25,1.25H7c-.68945,0-1.25-.56055-1.25-1.25v-9.51813l-1.5,1.08276v8.43536c0,1.5166,1.2334,2.75,2.75,2.75h10c1.5166,0,2.75-1.2334,2.75-2.75v-8.43536l-1.5-1.08264v9.51801Z" stroke-width="0"/></svg>