<?xml version="1.0" encoding="UTF-8"?><svg id="a" xmlns="http://www.w3.org/2000/svg" width="24" height="24" viewBox="0 0 24 24"><path d="M21.60843,9.4375c-.14648.20312-.37598.31152-.60938.31152-.15137,0-.30566-.0459-.4375-.1416l-7.77295-5.60938c-.45703-.33008-1.12012-.33008-1.57812,0l-7.77148,5.60938c-.33643.24023-.8042.16602-1.04688-.16992-.24268-.33496-.16699-.80469.16895-1.04688l7.77197-5.60938c.98145-.70703,2.35254-.70703,3.33301,0l7.77246,5.60938c.33594.24219.41211.71094.16992,1.04688ZM12.00003,16.24902c-1.79199,0-3.25-1.45801-3.25-3.25s1.45801-3.25,3.25-3.25,3.25,1.45801,3.25,3.25-1.45801,3.25-3.25,3.25ZM12.00003,14.74902c.96484,0,1.75-.78516,1.75-1.75s-.78516-1.75-1.75-1.75-1.75.78516-1.75,1.75.78516,1.75,1.75,1.75ZM16.51273,19.18457c-.09082.60742-.62207,1.06445-1.23535,1.06445h-6.55469c-.61377,0-1.14502-.45801-1.23633-1.06445l-1.48138-9.8877-1.36877.98804,1.36676,9.12231c.20361,1.35742,1.34766,2.3418,2.71973,2.3418h6.55469c1.35059,0,2.51953-1.00684,2.71973-2.3418l1.36707-9.12177-1.36963-.98846-1.48181,9.88757Z" stroke-width="0"/></svg>