<?xml version="1.0" encoding="UTF-8"?><svg id="a" xmlns="http://www.w3.org/2000/svg" width="24" height="24" viewBox="0 0 24 24"><path d="M21.6084,9.43817c-.14697.20312-.37646.31104-.60889.31104-.15234,0-.30566-.0459-.43848-.1416l-7.77197-5.60889c-.45703-.33105-1.12109-.33057-1.57812-.00049l-7.77197,5.60938c-.33643.2417-.80518.1665-1.04736-.16943s-.1665-.80469.16943-1.04736l7.77197-5.60889c.98145-.7085,2.35254-.70801,3.33398.00049l7.77197,5.6084c.33594.24268.41162.71143.16943,1.04736ZM18.25,9.48083l1.5,1.08252v8.43585c0,1.51611-1.2334,2.75-2.75,2.75H7c-1.5166,0-2.75-1.23389-2.75-2.75v-8.43585l1.5-1.08246v9.51831c0,.68945.56055,1.25,1.25,1.25h2.25v-3.14307c0-1.39453.98584-2.60693,2.29346-2.81982.80762-.13135,1.62256.09473,2.23779.61768.61572.52393.96875,1.2876.96875,2.09521v3.25h2.25c.68945,0,1.25-.56055,1.25-1.25v-9.51837ZM13.25,16.99921c0-.36719-.16064-.71436-.44092-.95264-.28418-.2417-.64844-.3418-1.0249-.27979-.58936.09619-1.03418.67188-1.03418,1.33936v3.14307h2.5v-3.25Z" stroke-width="0"/></svg>