<?xml version="1.0" encoding="UTF-8"?><svg id="a" xmlns="http://www.w3.org/2000/svg" width="24" height="24" viewBox="0 0 24 24"><path d="M19,6.25h-3.25v-1.25c0-1.5166-1.2334-2.75-2.75-2.75H5c-1.5166,0-2.75,1.2334-2.75,2.75v14c0,1.5166,1.2334,2.75,2.75,2.75h14c1.5166,0,2.75-1.2334,2.75-2.75v-10c0-1.5166-1.2334-2.75-2.75-2.75ZM10.25,20.25h-2.5v-3.25c0-.68945.56055-1.25,1.25-1.25s1.25.56055,1.25,1.25v3.25ZM14.25,20.25h-2.5v-3.25c0-1.5166-1.2334-2.75-2.75-2.75s-2.75,1.2334-2.75,2.75v3.25h-1.25c-.68945,0-1.25-.56055-1.25-1.25V5c0-.68945.56055-1.25,1.25-1.25h8c.68945,0,1.25.56055,1.25,1.25v15.25ZM20.25,19c0,.68945-.56055,1.25-1.25,1.25h-3.25V7.75h3.25c.68945,0,1.25.56055,1.25,1.25v10ZM11.75,8c0,.41406-.33594.75-.75.75h-1.25v1.25c0,.41406-.33594.75-.75.75s-.75-.33594-.75-.75v-1.25h-1.25c-.41406,0-.75-.33594-.75-.75s.33594-.75.75-.75h1.25v-1.25c0-.41406.33594-.75.75-.75s.75.33594.75.75v1.25h1.25c.41406,0,.75.33594.75.75ZM17,13h2v2h-2v-2ZM19,9.5v1c0,.27612-.22388.5-.5.5h-1c-.27612,0-.5-.22388-.5-.5v-1c0-.27618.22388-.5.5-.5h1c.27612,0,.5.22382.5.5ZM19,17.5v1c0,.27612-.22388.5-.5.5h-1c-.27612,0-.5-.22388-.5-.5v-1c0-.27618.22388-.5.5-.5h1c.27612,0,.5.22382.5.5Z" stroke-width="0"/></svg>