<?xml version="1.0" encoding="UTF-8"?><svg id="a" xmlns="http://www.w3.org/2000/svg" width="24" height="24" viewBox="0 0 24 24"><path d="M20,6.25h-2.25v-2.25c0-1.5166-1.2334-2.75-2.75-2.75h-6c-1.5166,0-2.75,1.2334-2.75,2.75v2.25h-2.25c-1.5166,0-2.75,1.2334-2.75,2.75v11c0,1.5166,1.2334,2.75,2.75,2.75h16c1.5166,0,2.75-1.2334,2.75-2.75v-11c0-1.5166-1.2334-2.75-2.75-2.75ZM13.25,21.25h-2.5v-1.25c0-.68945.56055-1.25,1.25-1.25s1.25.56055,1.25,1.25v1.25ZM21.25,20c0,.68945-.56055,1.25-1.25,1.25h-5.25v-1.25c0-1.5166-1.2334-2.75-2.75-2.75s-2.75,1.2334-2.75,2.75v1.25h-5.25c-.68945,0-1.25-.56055-1.25-1.25v-11c0-.68945.56055-1.25,1.25-1.25h3c.41406,0,.75-.33594.75-.75v-3c0-.68945.56055-1.25,1.25-1.25h6c.68945,0,1.25.56055,1.25,1.25v3c0,.41406.33594.75.75.75h3c.68945,0,1.25.56055,1.25,1.25v11ZM14,6.75h-1.25v1.25c0,.41406-.33594.75-.75.75s-.75-.33594-.75-.75v-1.25h-1.25c-.41406,0-.75-.33594-.75-.75s.33594-.75.75-.75h1.25v-1.25c0-.41406.33594-.75.75-.75s.75.33594.75.75v1.25h1.25c.41406,0,.75.33594.75.75s-.33594.75-.75.75ZM7,10.5v1c0,.27612-.22388.5-.5.5h-1c-.27612,0-.5-.22388-.5-.5v-1c0-.27618.22388-.5.5-.5h1c.27612,0,.5.22382.5.5ZM11,10.5v1c0,.27612-.22388.5-.5.5h-1c-.27612,0-.5-.22388-.5-.5v-1c0-.27618.22388-.5.5-.5h1c.27612,0,.5.22382.5.5ZM15,10.5v1c0,.27612-.22388.5-.5.5h-1c-.27612,0-.5-.22388-.5-.5v-1c0-.27618.22388-.5.5-.5h1c.27612,0,.5.22382.5.5ZM19,10.5v1c0,.27612-.22388.5-.5.5h-1c-.27612,0-.5-.22388-.5-.5v-1c0-.27618.22388-.5.5-.5h1c.27612,0,.5.22382.5.5ZM7,14.5v1c0,.27612-.22388.5-.5.5h-1c-.27612,0-.5-.22388-.5-.5v-1c0-.27618.22388-.5.5-.5h1c.27612,0,.5.22382.5.5ZM11,14.5v1c0,.27612-.22388.5-.5.5h-1c-.27612,0-.5-.22388-.5-.5v-1c0-.27618.22388-.5.5-.5h1c.27612,0,.5.22382.5.5ZM15,14.5v1c0,.27612-.22388.5-.5.5h-1c-.27612,0-.5-.22388-.5-.5v-1c0-.27618.22388-.5.5-.5h1c.27612,0,.5.22382.5.5ZM19,14.5v1c0,.27612-.22388.5-.5.5h-1c-.27612,0-.5-.22388-.5-.5v-1c0-.27618.22388-.5.5-.5h1c.27612,0,.5.22382.5.5ZM7,18.5v1c0,.27612-.22388.5-.5.5h-1c-.27612,0-.5-.22388-.5-.5v-1c0-.27618.22388-.5.5-.5h1c.27612,0,.5.22382.5.5ZM19,18.5v1c0,.27612-.22388.5-.5.5h-1c-.27612,0-.5-.22388-.5-.5v-1c0-.27618.22388-.5.5-.5h1c.27612,0,.5.22382.5.5Z" stroke-width="0"/></svg>