<?xml version="1.0" encoding="UTF-8"?><svg id="a" xmlns="http://www.w3.org/2000/svg" width="24" height="24" viewBox="0 0 24 24"><path d="M19,6.25h-5.25v-1.25c0-1.5166-1.2334-2.75-2.75-2.75h-6c-1.5166,0-2.75,1.2334-2.75,2.75v14c0,1.5166,1.2334,2.75,2.75,2.75h14c1.5166,0,2.75-1.2334,2.75-2.75v-10c0-1.5166-1.2334-2.75-2.75-2.75ZM12.25,20.25h-7.25c-.68945,0-1.25-.56055-1.25-1.25V5c0-.68945.56055-1.25,1.25-1.25h6c.68945,0,1.25.56055,1.25,1.25v15.25ZM20.25,19c0,.68945-.56055,1.25-1.25,1.25h-5.25V7.75h5.25c.68945,0,1.25.56055,1.25,1.25v10ZM18.75,10c0,.41406-.33594.75-.75.75h-2c-.41406,0-.75-.33594-.75-.75s.33594-.75.75-.75h2c.41406,0,.75.33594.75.75ZM18.75,14c0,.41406-.33594.75-.75.75h-2c-.41406,0-.75-.33594-.75-.75s.33594-.75.75-.75h2c.41406,0,.75.33594.75.75ZM18.75,18c0,.41406-.33594.75-.75.75h-2c-.41406,0-.75-.33594-.75-.75s.33594-.75.75-.75h2c.41406,0,.75.33594.75.75ZM10.75,18c0,.41406-.33594.75-.75.75h-4c-.41406,0-.75-.33594-.75-.75s.33594-.75.75-.75h4c.41406,0,.75.33594.75.75ZM10.75,14c0,.41406-.33594.75-.75.75h-4c-.41406,0-.75-.33594-.75-.75s.33594-.75.75-.75h4c.41406,0,.75.33594.75.75ZM10.75,10c0,.41406-.33594.75-.75.75h-4c-.41406,0-.75-.33594-.75-.75s.33594-.75.75-.75h4c.41406,0,.75.33594.75.75ZM10.75,6c0,.41406-.33594.75-.75.75h-4c-.41406,0-.75-.33594-.75-.75s.33594-.75.75-.75h4c.41406,0,.75.33594.75.75Z" stroke-width="0"/></svg>