<?xml version="1.0" encoding="UTF-8"?><svg id="a" xmlns="http://www.w3.org/2000/svg" width="24" height="24" viewBox="0 0 24 24"><path d="M18.66602,3.88488c-1.9873-1.8623-4.58496-2.79199-7.31348-2.61328C6.24805,1.60167,2.25,6.01085,2.25,11.3087v8.69141c0,1.5166,1.2334,2.75,2.75,2.75h14c1.5166,0,2.75-1.2334,2.75-2.75v-9c0-2.68457-1.12402-5.27832-3.08398-7.11523ZM19.06696,6.75011c.46747.77295.80707,1.61267.99677,2.5h-4.31372v-2.5h3.31696ZM17.25,10.75011v2.5h-4.5v-2.5h4.5ZM12.75,2.79631c1.8183.16547,3.52997.90796,4.89062,2.18329.09222.08643.17334.18079.26099.27051h-5.15161v-2.4538ZM14.25,6.75011v2.5h-4.5v-2.5h4.5ZM11.25,10.75011v2.5h-4.5v-2.5h4.5ZM11.25,2.79088v2.45923h-5.07007c1.32343-1.3728,3.09125-2.28046,5.07007-2.45923ZM5.01892,6.75011h3.23108v2.5h-4.24951c.21375-.89508.55658-1.73853,1.01843-2.5ZM3.75,11.3087c0-.18829.01453-.37311.02612-.55859h1.47388v2.5h-1.5v-1.94141ZM5.25,21.25011h-.25c-.68945,0-1.25-.56055-1.25-1.25v-1.25h1.5v2.5ZM8.25,21.25011h-1.5v-2.5h1.5v2.5ZM8.25,17.00011v.25H3.75v-2.5h5.26935c-.47601.62872-.76935,1.40259-.76935,2.25ZM14.25,21.25011h-4.5v-4.25c0-1.24023,1.00977-2.25,2.25-2.25s2.25,1.00977,2.25,2.25v4.25ZM17.25,21.25011h-1.5v-2.5h1.5v2.5ZM20.25,20.00011c0,.68945-.56055,1.25-1.25,1.25h-.25v-2.5h1.5v1.25ZM20.25,17.25011h-4.5v-.25c0-.84741-.29333-1.62128-.76935-2.25h5.26935v2.5ZM20.25,13.25011h-1.5v-2.5h1.48743c.00244.08368.01257.16583.01257.25v2.25Z" stroke-width="0"/></svg>