<?xml version="1.0" encoding="UTF-8"?><svg id="a" xmlns="http://www.w3.org/2000/svg" width="24" height="24" viewBox="0 0 24 24"><path d="M22.27832,5.30359L12.27832,1.30359c-.17773-.07129-.37891-.07129-.55664,0L1.72168,5.30359c-.28516.11377-.47168.38965-.47168.69629v14c0,.35742.25195.66553.60254.73535l10,2c.04883.00977.09863.01465.14746.01465s.09863-.00488.14746-.01465l10-2c.35059-.06982.60254-.37793.60254-.73535V5.99988c0-.30664-.18652-.58252-.47168-.69629ZM21.25,11.69983l-.25-.09998v2l.25.09998v5.6853l-9.25,1.8501-9.25-1.8501v-5.6853l.25-.09998v-2l-.25.09998v-1.19232l9.25-3.70001,9.25,3.70001v1.19232ZM21.25,8.89227l-8.97168-3.58868c-.17773-.07129-.37891-.07129-.55664,0l-8.97168,3.58868v-2.38458l9.25-3.7002,9.25,3.7002v2.38458ZM7,10.7384v.92291c0,.20447-.12445.38837-.31433.46429l-1,.39996c-.32843.13135-.68567-.11053-.68567-.46423v-.92297c0-.20447.12445-.38831.31433-.46423l1-.40002c.32843-.13135.68567.11053.68567.46429ZM17,11.66132v-.92291c0-.35376.35724-.59564.68567-.46429l1,.40002c.18988.07593.31433.25977.31433.46423v.92297c0,.3537-.35724.59558-.68567.46423l-1-.39996c-.18988-.07593-.31433-.25983-.31433-.46429ZM13,10.06134v-.92291c0-.35376.35724-.59564.68567-.46429l1,.40002c.18988.07593.31433.25977.31433.46423v.92297c0,.3537-.35724.59558-.68567.46423l-1-.39996c-.18988-.07593-.31433-.25983-.31433-.46429ZM11,9.13843v.92291c0,.20447-.12445.38837-.31433.46429l-1,.39996c-.32843.13135-.68567-.11053-.68567-.46423v-.92297c0-.20447.12445-.38831.31433-.46423l1-.40002c.32843-.13135.68567.11053.68567.46429Z" stroke-width="0"/></svg>