<?xml version="1.0" encoding="UTF-8"?><svg id="a" xmlns="http://www.w3.org/2000/svg" width="24" height="24" viewBox="0 0 24 24"><path d="M22,21.25h-.25v-1.25c0-1.25488-.84937-2.30408-2-2.63293v-5.36707h-1.5v5.25h-2.5v-5.25h-1.5v5.25h-4.5v-5.25h-1.5v5.25h-2.5v-5.25h-1.5v5.36707c-1.15063.32886-2,1.37805-2,2.63293v1.25h-.25c-.41406,0-.75.33594-.75.75s.33594.75.75.75h20c.41406,0,.75-.33594.75-.75s-.33594-.75-.75-.75ZM20.25,21.25H3.75v-1.25c0-.68945.56055-1.25,1.25-1.25h14c.68945,0,1.25.56055,1.25,1.25v1.25ZM3,10.75h18c.41406,0,.75-.33594.75-.75s-.33594-.75-.75-.75h-.28796c-.38232-4.47467-4.14001-8-8.71204-8S3.67029,4.77533,3.28796,9.25h-.28796c-.41406,0-.75.33594-.75.75s.33594.75.75.75ZM12,2.75c3.74414,0,6.83496,2.85352,7.21191,6.5H4.78809c.37695-3.64648,3.46777-6.5,7.21191-6.5ZM13,6c0,.55225-.44769,1-1,1s-1-.44775-1-1c0-.55231.44769-1,1-1s1,.44769,1,1Z" stroke-width="0"/></svg>