<?xml version="1.0" encoding="UTF-8"?><svg id="a" xmlns="http://www.w3.org/2000/svg" width="24" height="24" viewBox="0 0 24 24"><path d="M22,21.23364h-1.41455l-.85791-3.43164c-.0835-.33398-.3833-.56836-.72754-.56836h-1.38513l-1.87952-9.39746c-.01312-.06506-.03461-.12714-.06409-.18634-.00037-.00073-.00055-.00153-.00098-.00232l-2.99939-5.99884c-.25391-.50977-1.08789-.50977-1.3418,0l-2.99939,5.99884c-.00043.00079-.00061.00159-.00098.00232-.02948.0592-.05096.12128-.06409.18634l-1.87952,9.39746h-1.38513c-.34424,0-.64404.23438-.72754.56836l-.85791,3.43164h-1.41455c-.41406,0-.75.33594-.75.75s.33594.75.75.75h20c.41406,0,.75-.33594.75-.75s-.33594-.75-.75-.75ZM16.08496,17.23364h-3.33496v-9.20898l1.60004.53333,1.73492,8.67566ZM12,3.6604l1.51935,3.0387-1.28204-.42737c-.1543-.05078-.32031-.05078-.47461,0l-1.28204.42737,1.51935-3.0387ZM9.64996,8.55798l1.60004-.53333v9.20898h-3.33496l1.73492-8.67566ZM4.96045,21.23364l.625-2.5h12.8291l.625,2.5H4.96045Z" stroke-width="0"/></svg>