<?xml version="1.0" encoding="UTF-8"?><svg id="a" xmlns="http://www.w3.org/2000/svg" width="24" height="24" viewBox="0 0 24 24"><path d="M19.46973,1.46973c-1.43164,1.43213-2.21973,3.33496-2.21973,5.35889v4.42139h-.95923c.26904-.59503.45923-1.41937.45923-2.5835,0-2.86816-2.09277-4.97998-3.34277-6.24121-.34766-.35059-.64746-.65332-.79834-.86328-.28223-.3916-.93555-.3916-1.21777,0-.15088.20996-.45117.5127-.79834.86328-1.25,1.26123-3.34277,3.37305-3.34277,6.24121,0,1.16412.19019,1.98846.45923,2.5835h-.95923v-4.42139c0-2.02441-.78809-3.92773-2.21973-5.35889-.29297-.29297-.76758-.29297-1.06055,0-1.43164,1.43115-2.21973,3.33447-2.21973,5.35889v13.17139c0,1.5166,1.2334,2.75,2.75,2.75h16c1.5166,0,2.75-1.2334,2.75-2.75V6.82861c0-2.02393-.78809-3.92676-2.21973-5.35889-.28125-.28125-.7793-.28125-1.06055,0ZM5.25,21.25h-1.25c-.68945,0-1.25-.56055-1.25-1.25V6.82861c0-1.35303.43896-2.63867,1.25-3.69434.81104,1.05566,1.25,2.34131,1.25,3.69434v14.42139ZM11.6582,3.48096c.11963-.12061.23389-.23633.3418-.34717.10791.11084.22217.22656.3418.34717,1.1582,1.16846,2.9082,2.93457,2.9082,5.18555,0,2.02295-.64355,2.55176-.84961,2.5835h-4.76398c-.25146-.03986-.88641-.57361-.88641-2.5835,0-2.25098,1.75-4.01709,2.9082-5.18555ZM13.25,21.25h-2.5v-3.25c0-.68945.56055-1.25,1.25-1.25s1.25.56055,1.25,1.25v3.25ZM17.25,21.25h-2.5v-3.25c0-1.5166-1.2334-2.75-2.75-2.75s-2.75,1.2334-2.75,2.75v3.25h-2.5v-8.5h10.5v8.5ZM21.25,20c0,.68945-.56055,1.25-1.25,1.25h-1.25V6.82861c0-1.35303.43945-2.63818,1.25-3.69385.81055,1.05566,1.25,2.34082,1.25,3.69385v13.17139Z" stroke-width="0"/></svg>