<?xml version="1.0" encoding="UTF-8"?><svg id="a" xmlns="http://www.w3.org/2000/svg" width="24" height="24" viewBox="0 0 24 24"><path d="M20.53027,1.46973c-.28125-.28125-.7793-.28125-1.06055,0-1.43164,1.43213-2.21973,3.33496-2.21973,5.35889v3.77002l-3.47443-2.31628c1.16943-.63556,1.97443-1.86029,1.97443-3.28235,0-.41406-.33594-.75-.75-.75s-.75.33594-.75.75c0,1.24072-1.00977,2.25-2.25,2.25s-2.25-1.00928-2.25-2.25,1.00977-2.25,2.25-2.25c.41406,0,.75-.33594.75-.75s-.33594-.75-.75-.75c-2.06738,0-3.75,1.68213-3.75,3.75,0,1.42206.80499,2.64679,1.97443,3.28235l-3.47443,2.31628v-3.77002c0-2.02393-.78809-3.92676-2.21973-5.35889-.28125-.28125-.7793-.28125-1.06055,0-1.43164,1.43213-2.21973,3.33496-2.21973,5.35889v13.17139c0,1.5166,1.2334,2.75,2.75,2.75h16c1.5166,0,2.75-1.2334,2.75-2.75V6.82861c0-2.02393-.78809-3.92676-2.21973-5.35889ZM5.25,21.25h-1.25c-.68945,0-1.25-.56055-1.25-1.25V6.82861c0-1.35303.43945-2.63818,1.25-3.69385.81055,1.05566,1.25,2.34082,1.25,3.69385v14.42139ZM13.25,21.25h-2.5v-3.25c0-.68945.56055-1.25,1.25-1.25s1.25.56055,1.25,1.25v3.25ZM17.25,21.25h-2.5v-3.25c0-1.5166-1.2334-2.75-2.75-2.75s-2.75,1.2334-2.75,2.75v3.25h-2.5v-8.84863l5.25-3.5,5.25,3.5v8.84863ZM21.25,20c0,.68945-.56055,1.25-1.25,1.25h-1.25V6.82861c0-1.35303.43945-2.63818,1.25-3.69385.81055,1.05566,1.25,2.34082,1.25,3.69385v13.17139Z" stroke-width="0"/></svg>