<?xml version="1.0" encoding="UTF-8"?><svg id="a" xmlns="http://www.w3.org/2000/svg" width="24" height="24" viewBox="0 0 24 24"><path d="M22,21.25h-4.08527l.29999-1.5h2.78528c.41406,0,.75-.33594.75-.75s-.33594-.75-.75-.75h-2.48523l.5-2.5h1.98523c.41406,0,.75-.33594.75-.75s-.33594-.75-.75-.75h-1.68524l.42059-2.10303c.08154-.40625-.18213-.80127-.58838-.88232-.40234-.08301-.80127.18262-.88232.58838l-.47937,2.39697h-2.47052l.42059-2.10303c.08154-.40625-.18213-.80127-.58838-.88232-.40332-.08301-.80078.18262-.88232.58838l-.47937,2.39697h-2.78528c-.41406,0-.75.33594-.75.75s.33594.75.75.75h2.48523l-.5,2.5h-1.98523c-.41406,0-.75.33594-.75.75s.33594.75.75.75h1.68524l-.29999,1.5h-5.63525v-5.57581c1.70966-.34839,3-1.86316,3-3.67419v-7c0-2.06787-1.68213-3.75-3.75-3.75s-3.75,1.68213-3.75,3.75v7c0,1.81104,1.29034,3.32581,3,3.67419v5.57581h-3.25c-.41406,0-.75.33594-.75.75s.33594.75.75.75h20c.41406,0,.75-.33594.75-.75s-.33594-.75-.75-.75ZM3.75,12v-7c0-1.24072,1.00928-2.25,2.25-2.25s2.25,1.00928,2.25,2.25v7c0,1.24072-1.00928,2.25-2.25,2.25s-2.25-1.00928-2.25-2.25ZM16.38525,21.25h-2.47052l.29999-1.5h2.47052l-.29999,1.5ZM16.98523,18.25h-2.47046l.5-2.5h2.47046l-.5,2.5Z" stroke-width="0"/></svg>