<?xml version="1.0" encoding="UTF-8"?><svg id="a" xmlns="http://www.w3.org/2000/svg" width="24" height="24" viewBox="0 0 24 24"><path d="M4.43066,8.85638c-.26953-.31445-.2334-.78809.08105-1.05762l5.69824-4.88428c1.03711-.88867,2.54297-.88965,3.58008,0l5.69824,4.88428c.31445.26953.35059.74316.08105,1.05762-.14844.17285-.3584.26172-.56982.26172-.17285,0-.34619-.05908-.48779-.18066l-5.69824-4.88428c-.4707-.4043-1.15625-.4043-1.62695,0l-5.69824,4.88428c-.31543.26904-.78809.23242-1.05762-.08105ZM22.75,13.00238v6c0,1.5166-1.2334,2.75-2.75,2.75H4c-1.5166,0-2.75-1.2334-2.75-2.75v-6c0-1.5166,1.2334-2.75,2.75-2.75h2.25v-.32971c.01666-.01337.03546-.02203.05176-.03601l1.44824-1.24139v11.60712h1.5v-3.25c0-1.5166,1.2334-2.75,2.75-2.75s2.75,1.2334,2.75,2.75v3.25h1.5v-11.60712l1.44824,1.24139c.01642.01404.03503.02338.05176.0368v.32892h2.25c1.5166,0,2.75,1.2334,2.75,2.75ZM6.25,11.75238h-2.25c-.68945,0-1.25.56055-1.25,1.25v6c0,.68945.56055,1.25,1.25,1.25h2.25v-8.5ZM13.25,17.00238c0-.68945-.56055-1.25-1.25-1.25s-1.25.56055-1.25,1.25v3.25h2.5v-3.25ZM21.25,13.00238c0-.68945-.56055-1.25-1.25-1.25h-2.25v8.5h2.25c.68945,0,1.25-.56055,1.25-1.25v-6ZM12,8.00238c-.55231,0-1,.44769-1,1,0,.55225.44769,1,1,1s1-.44775,1-1c0-.55231-.44769-1-1-1Z" stroke-width="0"/></svg>