<?xml version="1.0" encoding="UTF-8"?><svg id="a" xmlns="http://www.w3.org/2000/svg" width="24" height="24" viewBox="0 0 24 24"><path d="M19,2.25h-11c-.96484,0-1.75.78516-1.75,1.75v4.25h-.25c-.96484,0-1.75.78516-1.75,1.75v4.25h-.25c-.96484,0-1.75.78516-1.75,1.75v4c0,.96484.78516,1.75,1.75,1.75h15c1.5166,0,2.75-1.2334,2.75-2.75V5c0-1.5166-1.2334-2.75-2.75-2.75ZM7.75,4c0-.1377.1123-.25.25-.25h8.25v4.5H7.75v-4.25ZM12.25,20.25H4c-.1377,0-.25-.1123-.25-.25v-4c0-.1377.1123-.25.25-.25h8.25v4.5ZM5.75,14.25v-4.25c0-.1377.1123-.25.25-.25h8.25v4.5H5.75ZM20.25,19c0,.68945-.56055,1.25-1.25,1.25h-5.25v-4.5h1.25c.41406,0,.75-.33594.75-.75v-5.25h1.25c.41406,0,.75-.33594.75-.75V3.75h1.25c.68945,0,1.25.56055,1.25,1.25v14Z" stroke-width="0"/></svg>