<?xml version="1.0" encoding="UTF-8"?><svg id="a" xmlns="http://www.w3.org/2000/svg" width="24" height="24" viewBox="0 0 24 24"><path d="M21.99512,8.15332l-.93848-4.69189c-.25586-1.28125-1.38965-2.21143-2.69629-2.21143H5.63965c-1.30664,0-2.44043.93018-2.69629,2.21094l-.93848,4.69238c-.22656,1.1333.06348,2.29639.7959,3.18994.7334.89404,1.81641,1.40674,2.97266,1.40674,1.2699,0,2.40625-.62695,3.10834-1.59277.09216.12695.17615.25952.28424.375.72461.77393,1.74707,1.21777,2.86133,1.21777,1.05957,0,2.08203-.44385,2.80664-1.21777.10809-.11548.19208-.24805.28424-.375.70209.96582,1.83844,1.59277,3.10834,1.59277,1.15625,0,2.23926-.5127,2.97266-1.40674.73242-.89355,1.02246-2.05664.7959-3.18994ZM8.16815,8.2085l-.02948.44287v.00037l-.02734.41125c-.08203,1.22607-1.10938,2.18701-2.33789,2.18701-.70508,0-1.36523-.3125-1.8125-.85742-.44629-.54541-.62305-1.25391-.48535-1.94531l.93848-4.69287c.11621-.58203.63184-1.00439,1.22559-1.00439h2.8916l-.3631,5.4585ZM13.73828,10.50781c-.44824.47852-1.05566.74219-1.76562.74219-.65527,0-1.2627-.26367-1.71094-.74219-.44714-.47882-.6698-1.10223-.62695-1.75616l.03314-.49768.36725-5.50397h3.92969l.36725,5.50397.03314.49768c.04285.65393-.17981,1.27734-.62695,1.75616ZM20.03906,10.39258c-.44727.54492-1.10742.85742-1.8125.85742-1.22852,0-2.25586-.96094-2.33789-2.18701l-.02734-.41125v-.00037l-.02948-.44287-.3631-5.4585h2.8916c.59375,0,1.10938.42236,1.22559,1.00488l.93848,4.69238c.1377.69141-.03906,1.3999-.48535,1.94531ZM19.25,20c0,.68945-.56055,1.25-1.25,1.25h-3.25v-3.25c0-1.5166-1.2334-2.75-2.75-2.75s-2.75,1.2334-2.75,2.75v3.25h-3.25c-.68945,0-1.25-.56055-1.25-1.25v-6.1076c-.52985-.10803-1.0343-.30054-1.5-.56683v6.67444c0,1.51611,1.2334,2.75,2.75,2.75h12c1.5166,0,2.75-1.23389,2.75-2.75v-6.67444c-.4657.2663-.97015.4588-1.5.56683v6.1076ZM13.25,21.25h-2.5v-3.25c0-.68945.56055-1.25,1.25-1.25s1.25.56055,1.25,1.25v3.25Z" stroke-width="0"/></svg>