<?xml version="1.0" encoding="UTF-8"?><svg id="a" xmlns="http://www.w3.org/2000/svg" width="24" height="24" viewBox="0 0 24 24"><path d="M6,11.5v-1c0-.27618.22388-.5.5-.5h1c.27612,0,.5.22382.5.5v1c0,.27612-.22388.5-.5.5h-1c-.27612,0-.5-.22388-.5-.5ZM6.5,16h1c.27612,0,.5-.22388.5-.5v-1c0-.27618-.22388-.5-.5-.5h-1c-.27612,0-.5.22382-.5.5v1c0,.27612.22388.5.5.5ZM6.5,20h1c.27612,0,.5-.22388.5-.5v-1c0-.27618-.22388-.5-.5-.5h-1c-.27612,0-.5.22382-.5.5v1c0,.27612.22388.5.5.5ZM22.41895,8.02344c-.32764.45508-.8584.72656-1.41943.72656h-.24951v11.25c0,1.5166-1.2334,2.75-2.75,2.75H6c-1.5166,0-2.75-1.2334-2.75-2.75v-11.25h-.24951c-.56104,0-1.0918-.27148-1.41943-.72656-.32812-.45508-.41797-1.04492-.24072-1.57715l1.10547-3.31641c.375-1.12402,1.42383-1.87988,2.60889-1.87988h13.89111c1.18555,0,2.23389.75586,2.6084,1.87988l1.10547,3.31641c.17725.53223.0874,1.12207-.24072,1.57715ZM9.25,8.75h-4.5v11.25c0,.68945.56055,1.25,1.25,1.25h3.25v-12.5ZM19.25,15.75h-8.5v5.5h7.25c.68945,0,1.25-.56055,1.25-1.25v-4.25ZM19.25,8.75h-8.5v5.5h8.5v-5.5ZM21.23682,6.9209l-1.10547-3.31641c-.17041-.51074-.64648-.85449-1.18555-.85449H5.05469c-.53857,0-1.01562.34375-1.18604.85449l-1.10547,3.31641c-.03516.10547.00635.18652.03467.22559.02783.03809.09131.10352.20264.10352h17.99902c.11133,0,.1748-.06543.20264-.10352.02832-.03906.06982-.12012.03467-.22559Z" stroke-width="0"/></svg>