<?xml version="1.0" encoding="UTF-8"?><svg id="a" xmlns="http://www.w3.org/2000/svg" width="24" height="24" viewBox="0 0 24 24"><path d="M2,8.75h20c.33008,0,.62207-.2168.71777-.53223.0957-.31641-.02637-.6582-.30176-.8418l-2.83398-1.88965-1.3584-2.71582c-.46875-.93848-1.41114-1.52051-2.45996-1.52051h-7.52734c-1.04883,0-1.99121.58203-2.45996,1.52051l-1.3584,2.71582-2.83398,1.88965c-.27539.18359-.39746.52539-.30176.8418.0957.31543.3877.53223.71777.53223ZM5.41602,6.62402c.1084-.07227.19629-.17188.25488-.28906l1.44727-2.89453c.21289-.42578.6416-.69043,1.11816-.69043h7.52734c.47656,0,.90527.26465,1.11816.69043l1.44727,2.89453c.05859.11719.14648.2168.25488.28906l.93848.62598H4.47754l.93848-.62598ZM22,21.25h-.25v-1.25c0-1.25488-.84937-2.30408-2-2.63293v-7.36707h-1.5v7.25h-2.5v-7.25h-1.5v7.25h-4.5v-7.25h-1.5v7.25h-2.5v-7.25h-1.5v7.36707c-1.15063.32886-2,1.37805-2,2.63293v1.25h-.25c-.41406,0-.75.33594-.75.75s.33594.75.75.75h20c.41406,0,.75-.33594.75-.75s-.33594-.75-.75-.75ZM20.25,21.25H3.75v-1.25c0-.68945.56055-1.25,1.25-1.25h14c.68945,0,1.25.56055,1.25,1.25v1.25ZM14.75,5c0,.41406-.33594.75-.75.75h-4c-.41406,0-.75-.33594-.75-.75s.33594-.75.75-.75h4c.41406,0,.75.33594.75.75Z" stroke-width="0"/></svg>