<?xml version="1.0" encoding="UTF-8"?><svg id="a" xmlns="http://www.w3.org/2000/svg" width="24" height="24" viewBox="0 0 24 24"><path d="M22.28711,1.30666c-.2793-.11523-.60352-.05176-.81738.16309-1.13184,1.13184-2.69824,1.78027-4.29785,1.78027H6.82861c-1.62354,0-3.1499-.63184-4.29834-1.78027-.21436-.21387-.5376-.27734-.81738-.16309-.28027.11621-.46289.38965-.46289.69336v4c0,1.5166,1.2334,2.75,2.75,2.75h16c1.5166,0,2.75-1.2334,2.75-2.75V2.00002c0-.30371-.18262-.57715-.46289-.69336ZM21.25,6.00002c0,.68945-.56055,1.25-1.25,1.25H4c-.68945,0-1.25-.56055-1.25-1.25v-2.43848c1.20703.77441,2.61084,1.18848,4.07861,1.18848h10.34326c1.44434,0,2.86719-.42383,4.07812-1.19434v2.44434ZM21,21.25002h-2.25v-4.5h1.25c.41406,0,.75-.33594.75-.75s-.33594-.75-.75-.75h-1.25v-2.5h1.25c.41406,0,.75-.33594.75-.75s-.33594-.75-.75-.75h-1.25v-1.25h-1.5v1.25h-4.5v-1.25h-1.5v1.25h-4.5v-1.25h-1.5v1.25h-1.25c-.41406,0-.75.33594-.75.75s.33594.75.75.75h1.25v2.5h-1.25c-.41406,0-.75.33594-.75.75s.33594.75.75.75h1.25v4.5h-2.25c-.41406,0-.75.33594-.75.75s.33594.75.75.75h18c.41406,0,.75-.33594.75-.75s-.33594-.75-.75-.75ZM17.25,21.25002H6.75v-4.5h10.5v4.5ZM17.25,15.25002H6.75v-2.5h10.5v2.5Z" stroke-width="0"/></svg>