<?xml version="1.0" encoding="UTF-8"?><svg id="a" xmlns="http://www.w3.org/2000/svg" width="24" height="24" viewBox="0 0 24 24"><path d="M18.66699,3.88495c-1.9873-1.8623-4.58594-2.78662-7.31445-2.61426C6.24902,1.60175,2.25,6.00995,2.25,11.30781v8.69189c0,1.51611,1.2334,2.75,2.75,2.75h14c1.5166,0,2.75-1.23389,2.75-2.75v-9c0-2.68457-1.12402-5.27783-3.08301-7.11475ZM15.32367,3.45148c.84021.37146,1.62476.87891,2.31696,1.52771.19495.18268.37726.37463.55164.57178l-2.10596,1.41479c-.07294-.07397-.14191-.15125-.21912-.22144-.49994-.45447-1.06207-.80365-1.66315-1.05359l1.11963-2.23926ZM11.4502,2.76777c.8324-.05634,1.65137.01514,2.43866.19879l-1.16522,2.33057c-.41968-.05176-.84955-.06122-1.28614-.02057-.05358.00513-.10278.02423-.15594.03088l-1.16479-2.32959c.43304-.10406.87653-.18054,1.33344-.21008ZM8.68616,3.47107l1.12518,2.25049c-.69495.30096-1.31915.73383-1.8454,1.2793l-2.09943-1.41046c.7782-.90057,1.73706-1.6261,2.81964-2.11932ZM6.25,21.2497h-1.25c-.68945,0-1.25-.56055-1.25-1.25v-1.25h2.5v2.5ZM6.25,17.2497h-2.5v-2.5h2.5v2.5ZM6.25,11.21454v2.03516h-2.5v-1.94189c0-.18817.01447-.3728.02606-.55811h2.51691c-.01202.1557-.04297.30652-.04297.46484ZM6.59174,9.2497h-2.59131c.2085-.87341.54156-1.69641.98694-2.44318l2.07281,1.39258c-.18903.33173-.34314.68365-.46844,1.0506ZM16.25,21.2497H7.75v-2.5h8.5v2.5ZM16.25,17.2497H7.75v-6.03516c0-2.2876,1.68262-4.23975,3.83008-4.44482,1.21094-.11523,2.38184.26904,3.27832,1.08447.88379.8042,1.3916,1.95068,1.3916,3.14551v6.25ZM16.99756,8.16034l2.07837-1.39636c.46289.76904.79926,1.604.98773,2.48572h-2.58868c-.12122-.37854-.28119-.74365-.47742-1.08936ZM20.25,19.9997c0,.68945-.56055,1.25-1.25,1.25h-1.25v-2.5h2.5v1.25ZM20.25,17.2497h-2.5v-2.5h2.5v2.5ZM20.25,13.2497h-2.5v-2.25c0-.08386-.00958-.16656-.01324-.25h2.50067c.00244.08368.01257.16583.01257.25v2.25ZM14.75,13.9997c0,.41406-.33594.75-.75.75h-4c-.41406,0-.75-.33594-.75-.75s.33594-.75.75-.75h4c.41406,0,.75.33594.75.75ZM10.25,9.9997c0-.41406.33594-.75.75-.75h2c.41406,0,.75.33594.75.75s-.33594.75-.75.75h-2c-.41406,0-.75-.33594-.75-.75Z" stroke-width="0"/></svg>