<?xml version="1.0" encoding="UTF-8"?>
<svg id="Layer_1" data-name="Layer 1" xmlns="http://www.w3.org/2000/svg" viewBox="0 0 64 64">
  <defs>
    <style>
      .cls-1 {
        fill: #020e32;
      }
    </style>
  </defs>
  <path class="cls-1" d="M27.08,15.3c-1.32-1.27-2.95-2.19-4.82-2.84h0s-.02,0-.04-.01c-2.08-.72-4.48-1.08-7.18-1.08H0v42.76h4.25v-13.5h10.79c2.7,0,5.1-.36,7.18-1.08,1.53-.52,2.88-1.23,4.07-2.14.28-.21.55-.43.81-.66,2.23-1.99,3.61-4.56,4.12-7.72,0-.02,0-.04,0-.05l.03.05,10.86,19.66h2.01l15.79-28.77v34.21h4.08V11.37h-3.5l-17.28,31.7s-11.67-21.37-13.06-23.72c-1.28-2.17-1.83-2.85-3.07-4.05ZM26.3,30.82c-.52,1.18-1.26,2.2-2.23,3.05-.55.48-1.16.9-1.84,1.25-1.92,1.02-4.35,1.53-7.29,1.53H4.25V15.28h10.68c2.95,0,5.38.51,7.29,1.53.68.35,1.29.77,1.84,1.25.97.85,1.71,1.87,2.23,3.07.62,1.4.92,3.03.92,4.9s-.31,3.42-.92,4.8Z"/>
  <path class="cls-1" d="M22.26,41.07v13.06h4.07v-14.99c-1.24.84-2.61,1.49-4.07,1.93Z"/>
</svg>