<?xml version="1.0" encoding="UTF-8"?><svg id="a" xmlns="http://www.w3.org/2000/svg" width="24" height="24" viewBox="0 0 24 24"><path d="m20.29671,7.709c-.29297-.29297-.76758-.29297-1.06055,0-1.90039,1.90234-3.75195.19922-3.9541,0l-.00018-.00018,1.55939-1.55939c.23083-.23083.23077-.60498,0-.83575l-.83582-.83582c-.23077-.23077-.60498-.23083-.83582,0l-1.55933,1.55933-.83508-.83502c-.73047-.7334-2.00391-.73047-2.73242-.00098l-.83594.83594c-.36523.36523-.56641.85059-.56641,1.36621s.20117,1.00098.56641,1.36621l.83557.83557L1.79695,17.8506c-.23077.23077-.23077.60498,0,.83575l.83582.83582c.23077.23077.60498.23077.83575,0l8.24548-8.24548c.63257.63269.88641,1.22345.77606,1.80634-.25098,1.33105-2.28906,2.49121-3.05273,2.82617-.24707.1084-.41797.34082-.44531.60938-.02832.26855.08984.53125.30957.68848,1.28613.91895,3.57031,1.98535,5.97754,1.98535,1.71582,0,3.49414-.54199,5.01758-2.06543,3.72461-3.72461,1.62891-7.78906,0-9.41797Zm-1.06055,8.35742c-2.7041,2.70508-6.22168,1.46777-7.97656.56348,1.05078-.65527,2.4209-1.77441,2.7041-3.26562.20703-1.09277-.19336-2.15234-1.18945-3.14844l-2.50684-2.50684c-.16797-.16895-.16797-.44238,0-.61133l.83691-.83691c.16113-.16113.44434-.16406.60938.00098l2.50781,2.50781c.96094.96094,3.2373,2.17969,5.46094.53223.85254,1.14453,2.37109,3.94727-.44629,6.76465Z" stroke-width="0"/></svg>