<?xml version="1.0" encoding="UTF-8"?><svg id="a" xmlns="http://www.w3.org/2000/svg" width="24" height="24" viewBox="0 0 24 24"><path d="m12,1.25C6.07227,1.25,1.25,6.07227,1.25,12s4.82227,10.75,10.75,10.75,10.75-4.82227,10.75-10.75S17.92773,1.25,12,1.25Zm0,20c-5.10059,0-9.25-4.14941-9.25-9.25S6.89941,2.75,12,2.75s9.25,4.14941,9.25,9.25-4.14941,9.25-9.25,9.25Zm0-17c-4.27344,0-7.75,3.47656-7.75,7.75s3.47656,7.75,7.75,7.75,7.75-3.47656,7.75-7.75-3.47656-7.75-7.75-7.75Zm.96619,1.58258c1.00214.15662,1.92456.54993,2.71014,1.12415-.04645.03271-.09924.05194-.14081.09351-.08368.08368-.1405.18237-.18835.28363-.70349-.5061-1.52417-.8551-2.41431-1.00122.03754-.1051.06714-.21466.06714-.33264,0-.05939-.02386-.11084-.03381-.16742Zm-1.93237,0c-.00995.05658-.03381.10803-.03381.16742,0,.11798.0296.22754.06714.33264-.89008.14612-1.71075.49518-2.41425,1.00128-.04779-.10126-.10468-.19995-.18842-.28369-.04156-.04156-.09436-.06079-.14081-.09351.78558-.57422,1.70801-.96753,2.71014-1.12415Zm-3.98358,9.70294c-.04156.04156-.06079.09436-.09351.14081-.57428-.78558-.96759-1.70795-1.12421-2.71014.05658.00995.10809.03381.16748.03381.11798,0,.22754-.02966.33264-.0672.14618.89014.49518,1.71088,1.00128,2.41437-.10126.04779-.19995.10461-.28369.18835Zm-.71759-4.46838c-.1051-.03754-.21466-.06714-.33264-.06714-.05939,0-.11084.02386-.16742.03381.15662-1.00214.54993-1.92456,1.12415-2.71014.03271.04645.05194.09924.09351.14081.08374.08374.18243.14056.28369.18835-.5061.70349-.8551,1.52417-1.00128,2.41431Zm4.70117,7.10034c-1.0022-.15662-1.9245-.54999-2.71014-1.12427.04651-.03271.09924-.05194.14081-.09351.08374-.08374.1405-.18243.18835-.28369.70349.5061,1.52423.85516,2.41431,1.00134-.03754.1051-.06714.21466-.06714.33264,0,.05939.02386.1109.03381.16748Zm1.93237,0c.00995-.05658.03381-.10809.03381-.16748,0-.11798-.0296-.22754-.06714-.33264.8902-.14612,1.71088-.49512,2.41437-1.00122.04779.1012.10461.19989.18829.28357.04156.04156.0943.06079.14081.09351-.78564.57428-1.70795.96765-2.71014,1.12427Zm-.96619-1.91748c-2.34326,0-4.25-1.90625-4.25-4.25s1.90674-4.25,4.25-4.25c2.34375,0,4.25,1.90625,4.25,4.25s-1.90625,4.25-4.25,4.25Zm5.04327-.57367c-.03271-.04645-.05194-.09924-.09351-.14081-.08374-.08368-.18243-.1405-.28363-.18835.5061-.70349.8551-1.52417,1.00122-2.41437.1051.03754.21466.0672.33264.0672.05939,0,.1109-.02386.16748-.03381-.15662,1.0022-.54993,1.92456-1.12421,2.71014Zm.95673-4.67633c-.11798,0-.22754.0296-.33264.06714-.14612-.89014-.49512-1.71082-1.00122-2.41431.1012-.04785.19989-.10468.28363-.18835.04156-.04156.06079-.09436.09351-.14081.57422.78558.96753,1.70801,1.12415,2.71014-.05658-.00995-.10803-.03381-.16742-.03381Z" stroke-width="0"/></svg>