<?xml version="1.0" encoding="UTF-8"?><svg id="a" xmlns="http://www.w3.org/2000/svg" width="24" height="24" viewBox="0 0 24 24"><path d="m15.26074,15.23242c-.41309-.86816-.20117-1.9082.56641-2.78125.6709-.76465.65527-1.8623-.03613-2.55371l-1.64844-1.64844c-.71191-.71289-1.85449-.74512-2.60156-.06836-.73242.66309-1.84961.85449-2.90918.5l-.28711-.09668c-.87305-.28809-2.02441-.01855-2.67773.63281l-.6416.6416c-1.18066,1.18066-1.18066,3.10254,0,4.2832l.27539.27539-3.49707,3.49707c-.29297.29297-.29297.76758,0,1.06055s.76758.29297,1.06055,0l5.1084-5.1084,2.16113,2.16113-5.1084,5.1084c-.29297.29297-.29297.76758,0,1.06055.14648.14648.33789.21973.53027.21973s.38379-.07324.53027-.21973l3.49707-3.49707.27539.27539c.59082.59082,1.36621.88574,2.1416.88574s1.55078-.29492,2.1416-.88574l.64258-.6416c.80273-.80469.98926-2.02148.47656-3.10059Zm-.56055-3.77148c-1.1582,1.31836-1.46289,3.00977-.79395,4.41602.2373.49902.16504,1.04688-.18359,1.39551l-.6416.6416c-.5957.5957-1.56641.5957-2.16211,0l-.27539-.27539.55078-.55078.27539.27539c.14648.14648.33789.21973.53027.21973s.38379-.07324.53027-.21973c.29297-.29297.29297-.76758,0-1.06055l-4.83301-4.83301c-.29297-.29297-.76758-.29297-1.06055,0s-.29297.76758,0,1.06055l.27539.27539-.55078.55078-.27539-.27539c-.5957-.5957-.5957-1.56641,0-2.16211l.64062-.64062c.24805-.24707.81445-.37988,1.14355-.27148l.28613.09668c1.57227.52344,3.25488.21484,4.38965-.80957.15625-.14062.38867-.13086.53516.01465l1.64941,1.64941c.14355.14355.09375.3623-.03027.50293ZM3.41406,4.47461c-.29297-.29297-.29297-.76758,0-1.06055s.76758-.29297,1.06055,0l1.61133,1.61133c.29297.29297.29297.76758,0,1.06055-.14648.14648-.33789.21973-.53027.21973s-.38379-.07324-.53027-.21973l-1.61133-1.61133Zm-1.41406,4.71973c-.41406,0-.75-.33594-.75-.75s.33594-.75.75-.75h2.27832c.41406,0,.75.33594.75.75s-.33594.75-.75.75h-2.27832Zm5.69434-4.91602v-2.27832c0-.41406.33594-.75.75-.75s.75.33594.75.75v2.27832c0,.41406-.33594.75-.75.75s-.75-.33594-.75-.75Zm12.8916,15.24707c.29297.29297.29297.76758,0,1.06055-.14648.14648-.33789.21973-.53027.21973s-.38379-.07324-.53027-.21973l-1.61133-1.61133c-.29297-.29297-.29297-.76758,0-1.06055s.76758-.29297,1.06055,0l1.61133,1.61133Zm-4.28027.19629v2.27832c0,.41406-.33594.75-.75.75s-.75-.33594-.75-.75v-2.27832c0-.41406.33594-.75.75-.75s.75.33594.75.75Zm6.44434-4.16602c0,.41406-.33594.75-.75.75h-2.27832c-.41406,0-.75-.33594-.75-.75s.33594-.75.75-.75h2.27832c.41406,0,.75.33594.75.75Zm-6.09662-.10358c-.06537-.25616-.14679-.51007-.26373-.7558-.11914-.25018-.09723-.50623-.02344-.73492.03271.00293.0686.00854.0918.00543.07129-.00879.20215-.04492.28809-.18652.01855-.03125.03906-.06152.0625-.08984l1.45703-1.77734c.48242-.84766.34082-1.91211-.35156-2.60449l-3.22266-3.22266c-.69434-.69238-1.75781-.83301-2.60449-.35156l-1.77734,1.45703c-.02832.02344-.05859.04395-.08984.0625-.1416.08594-.17773.2168-.18652.28809-.00061.00482.00165.01447.00116.0199-.31433.06232-.66339.04822-1.00409-.06677l-.29102-.09766c-.06226-.02057-.12848-.03033-.1922-.04724.07062-.5575.3775-1.04626.84845-1.34924l1.78613-1.46387c.02832-.02344.05859-.04395.08984-.0625,1.2243-.7359,2.73114-.67804,3.88977.08105l2.75281-2.75195c.29297-.29297.76758-.29297,1.06055,0s.29297.76758,0,1.06055l-2.69238,2.69141,2.16211,2.16211,2.69141-2.69238c.29297-.29297.76758-.29297,1.06055,0s.29297.76758,0,1.06055l-2.75208,2.75287c.75842,1.15802.81696,2.66473.08118,3.88971-.01855.03125-.03906.06152-.0625.08984l-1.46387,1.78613c-.30231.46991-.78961.776-1.34564.8476Z" stroke-width="0"/></svg>