<?xml version="1.0" encoding="UTF-8"?><svg id="a" xmlns="http://www.w3.org/2000/svg" width="24" height="24" viewBox="0 0 24 24"><path d="m19,2.25H5c-1.5166,0-2.75,1.2334-2.75,2.75v14c0,1.5166,1.2334,2.75,2.75,2.75h14c1.5166,0,2.75-1.2334,2.75-2.75V5c0-1.5166-1.2334-2.75-2.75-2.75Zm-10.25,1.5h6.5v3h-6.5v-3Zm-5,1.25c0-.68945.56055-1.25,1.25-1.25h2.25v3h-3.5v-1.75Zm0,3.25h7.5v3H3.75v-3Zm0,4.5h3.5v3h-3.5v-3Zm7.5,7.5h-6.25c-.68945,0-1.25-.56055-1.25-1.25v-1.75h7.5v3Zm-2.5-4.5v-3h6.5v3h-6.5Zm11.5,3.25c0,.68945-.56055,1.25-1.25,1.25h-6.25v-3h7.5v1.75Zm0-3.25h-3.5v-3h3.5v3Zm0-4.5h-7.5v-3h7.5v3Zm0-4.5h-3.5v-3h2.25c.68945,0,1.25.56055,1.25,1.25v1.75Z" stroke-width="0"/></svg>