<?xml version="1.0" encoding="UTF-8"?><svg id="a" xmlns="http://www.w3.org/2000/svg" width="24" height="24" viewBox="0 0 24 24"><path d="m21.68066,13.8125h-.00049l-2.59912-2.16504c-.63672-.5332-1.52539-.53223-2.16113-.00098l-2.60059,2.16602c-.67969.56738-1.06934,1.4248-1.06934,2.35449v4.72168c0,1.02637.78516,1.86133,1.75,1.86133h6c.96484,0,1.75-.83496,1.75-1.86133v-4.72168c0-.92969-.38965-1.78711-1.06934-2.35449Zm-.43066,7.07617c0,.21289-.13184.36133-.25.36133h-6c-.11816,0-.25-.14844-.25-.36133v-4.72168c0-.47559.19824-.92578.52979-1.20215l2.60107-2.16699c.03809-.03125.07861-.04785.11914-.04785s.08105.0166.12012.04883l2.6001,2.16602c.33154.27734.52979.72656.52979,1.20215v4.72168Zm-18.5-3.88867v-6.25h13.29224l.07739-.06445c.89398-.74536,2.11627-.86853,3.13037-.3894.10034.04736.19867.10028.2951.15729.11542.07172.23029.1449.33722.23407l.07501.0625.79266.66022v-4.41022c0-2.06738-1.68213-3.75-3.75-3.75h-1.25v-1.25c0-.41406-.33594-.75-.75-.75s-.75.33594-.75.75v1.25h-6.5v-1.25c0-.41406-.33594-.75-.75-.75s-.75.33594-.75.75v1.25h-1.25c-2.06787,0-3.75,1.68262-3.75,3.75v10c0,2.06738,1.68213,3.75,3.75,3.75h7v-1.5h-7c-1.24072,0-2.25-1.00977-2.25-2.25Zm0-10c0-1.24023,1.00928-2.25,2.25-2.25h1.25v1.25c0,.41406.33594.75.75.75s.75-.33594.75-.75v-1.25h6.5v1.25c0,.41406.33594.75.75.75s.75-.33594.75-.75v-1.25h1.25c1.24072,0,2.25,1.00977,2.25,2.25v2.25H2.75v-2.25Z" stroke-width="0"/></svg>