<?xml version="1.0" encoding="UTF-8"?><svg id="a" xmlns="http://www.w3.org/2000/svg" width="24" height="24" viewBox="0 0 24 24"><path d="m22.12354,3.25977L10.12354,1.25977c-.04102-.00684-.08203-.00977-.12354-.00977h-4c-.11621,0-.23145.02734-.33545.0791L1.66455,3.3291c-.25391.12695-.41455.38672-.41455.6709v2c0,.41406.33594.75.75.75h3.25v14.5h-3.25c-.41406,0-.75.33594-.75.75s.33594.75.75.75h12c.41406,0,.75-.33594.75-.75s-.33594-.75-.75-.75h-3.25V6.75h6.5v3h-1.25c-.41406,0-.75.33594-.75.75s.33594.75.75.75h1.25v3.75c0,.41406.33594.75.75.75.68945,0,1.25.56055,1.25,1.25s-.56055,1.25-1.25,1.25-1.25-.56055-1.25-1.25c0-.41406-.33594-.75-.75-.75s-.75.33594-.75.75c0,1.5166,1.2334,2.75,2.75,2.75s2.75-1.2334,2.75-2.75c0-1.25684-.84717-2.31836-2-2.64648v-3.10352h1.25c.41406,0,.75-.33594.75-.75s-.33594-.75-.75-.75h-1.25v-3h3.25c.41406,0,.75-.33594.75-.75v-2c0-.36621-.26514-.67969-.62646-.74023Zm-16.87354,1.99023h-2.5v-.78613l2.5-1.25018v2.03632Zm1.5,2.56055l2.18945,2.18945-2.18945,2.18945v-4.37891Zm0,8l2.18945,2.18945-2.18945,2.18945v-4.37891Zm2.5,5.43945h-1.43945l1.43945-1.43945v1.43945Zm0-5.06055l-2.18945-2.18945,2.18945-2.18945v4.37891Zm0-8l-1.43945-1.43945h1.43945v1.43945Zm0-2.93945h-2.5v-2.5h2.5v2.5Zm12,0h-10.5v-2.36462l10.5,1.75037v.61426Z" stroke-width="0"/></svg>