<?xml version="1.0" encoding="UTF-8"?><svg id="a" xmlns="http://www.w3.org/2000/svg" width="24" height="24" viewBox="0 0 24 24"><path d="m22,6.25h-3.3985c-.23584-.59277-.73956-1.0578-1.38861-1.22021h-.00098l-2.53339-.63312c-.27637-1.22638-1.36981-2.14667-2.67853-2.14667h-6C3.38086,2.25,1.25,4.38086,1.25,7s2.13086,4.75,4.75,4.75h.00616l-1.57147,5.5h-.93469c-1.24023,0-2.25,1.00928-2.25,2.25s1.00977,2.25,2.25,2.25h7c1.24023,0,2.25-1.00928,2.25-2.25s-1.00977-2.25-2.25-2.25h-.50616l1.57147-5.5h.43469c1.30872,0,2.40216-.92029,2.67853-2.14661l2.53436-.63318c.64905-.16241,1.15277-.62744,1.38861-1.22021h3.3985c.41406,0,.75-.33594.75-.75s-.33594-.75-.75-.75ZM6,10.25c-1.79199,0-3.25-1.45801-3.25-3.25s1.45801-3.25,3.25-3.25h3.25v6.5h-3.25Zm4.5,8.5c.41309,0,.75.33643.75.75s-.33691.75-.75.75H3.5c-.41309,0-.75-.33643-.75-.75s.33691-.75.75-.75h7Zm-2.06543-1.5h-2.44043l1.57129-5.5h2.44043l-1.57129,5.5Zm4.81543-8.25c0,.68945-.56055,1.25-1.25,1.25h-1.25V3.75h1.25c.68945,0,1.25.56055,1.25,1.25v4Zm3.59863-1.48486l-2.09863.52441v-2.0791l2.09766.52441c.2373.05908.40234.271.40234.51514s-.16504.45605-.40137.51514Z" stroke-width="0"/></svg>