<?xml version="1.0" encoding="UTF-8"?><svg id="a" xmlns="http://www.w3.org/2000/svg" width="24" height="24" viewBox="0 0 24 24"><path d="m1.99902,7.99902c-.0174,0-.03345.0047-.05072.00513l1.86322-4.96997c.40039-1.06738,1.43555-1.78418,2.5752-1.78418h11.22754c1.13965,0,2.1748.7168,2.5752,1.78418l1.8642,4.97034c-.01862-.00049-.03589-.00549-.05463-.00549h-1.54926l-1.66461-4.4375c-.18262-.48535-.65234-.81152-1.1709-.81152h-.47656l.51569,2.29236.66534,2.95667h-1.53729l-.45923-2.04138-.7218-3.20764h-1.39142l.39423,5.24902h-1.50488l-.39423-5.24902h-1.40723l-.39423,5.24902h-1.50488l.39423-5.24902h-1.39142l-.7218,3.20764-.45923,2.04138h-1.53729l.66534-2.95667.51569-2.29236h-.47656c-.51855,0-.98828.32617-1.1709.81152l-1.6637,4.4375h-1.5531Zm20.75195,10.85254c0,2.14941-1.74902,3.89844-3.89941,3.89844h-.70215c-2.14941,0-3.89844-1.74902-3.89844-3.89844,0-.69043.18359-1.37012.53125-1.96484l3.07129-5.26465c.13379-.23047.38086-.37207.64746-.37207s.51367.1416.64746.37207l3.07031,5.26465c.34863.5957.53223,1.27539.53223,1.96484Zm-1.5,0c0-.42383-.11328-.8418-.32715-1.20898l-2.42285-4.1543-2.42383,4.1543c-.21289.36621-.32617.78418-.32617,1.20898,0,1.32227,1.07617,2.39844,2.39844,2.39844h.70215c1.32324,0,2.39941-1.07617,2.39941-2.39844Zm-6.5-4.85156c0-.41406-.33594-.75-.75-.75h-4c-.41406,0-.75.33594-.75.75s.33594.75.75.75h4c.41406,0,.75-.33594.75-.75Zm-1.66913,3.98969c.00006-.00055.00024-.00098.00031-.00146.04279-.25079.10553-.49658.18475-.73822h-7.67999l-1.62567-6.50098h12.99976c.37628-.46228.93243-.74902,1.539-.74902s1.16272.28674,1.539.74902h.00177l-.00018.00067c.06451.07935.1355.15259.18793.24249l.90808,1.55725.45007-1.80042h.41235c.41406,0,.75-.33594.75-.75s-.33594-.75-.75-.75H1.99902c-.41406,0-.75.33594-.75.75s.33594.75.75.75h.41626l1.83569,7.34277v1.9082c0,.41406.33594.75.75.75s.75-.33594.75-.75v-1.25h7.25574c.00513-.25586.03235-.50916.07513-.76031Z" stroke-width="0"/></svg>