<?xml version="1.0" encoding="UTF-8"?><svg id="a" xmlns="http://www.w3.org/2000/svg" width="24" height="24" viewBox="0 0 24 24"><path d="m20.44824,13.38574l-4.1123-2.05664c-.29004-.14258-.63867-.08887-.86621.14062-.22852.22852-.28516.57715-.14062.86621l1.18262,2.36328c.34473.68945.20996,1.51855-.33496,2.06348-.09766.09766-.25586.09766-.35352,0-.04688-.04688-.07324-.11133-.07324-.17676v-1.58594c0-.30371-.18262-.57715-.46289-.69336-.2793-.11523-.60254-.05078-.81738.16309l-1,1c-.78613.78613-1.21973,1.83203-1.21973,2.94434v.17188c0,1.1123.43359,2.1582,1.21973,2.94434s1.83203,1.21973,2.94434,1.21973h1.01367c1.8623,0,3.58984-.9248,4.62305-2.47363.45703-.68652.69922-1.48535.69922-2.31055v-.85547c0-1.58789-.88184-3.01465-2.30176-3.72461Zm.80176,4.58008c0,.52832-.1543,1.03906-.44727,1.47852-.75391,1.13086-2.01562,1.80566-3.375,1.80566h-1.01367c-.71191,0-1.38086-.27734-1.88379-.78027s-.78027-1.17188-.78027-1.88379v-.17188c0-.57617.18164-1.125.51855-1.5791.05371.37109.22754.72168.49414.98828.68164.68164,1.79297.68164,2.47461,0,1.00195-1.00195,1.25-2.52734.61621-3.79492l-.17578-.35059,2.09863,1.0498h.00098c.9082.4541,1.47266,1.36719,1.47266,2.38281v.85547ZM1.99902,7.99902c-.0174,0-.03345.0047-.05072.00513l1.86322-4.96997c.40039-1.06738,1.43555-1.78418,2.5752-1.78418h11.22754c1.13965,0,2.1748.7168,2.5752,1.78418l1.8642,4.97034c-.01862-.00049-.03589-.00549-.05463-.00549h-1.54926l-1.66461-4.4375c-.18262-.48535-.65234-.81152-1.1709-.81152h-.47656l.51569,2.29236.66534,2.95667h-1.53729l-.45923-2.04138-.7218-3.20764h-1.39142l.39423,5.24902h-1.50488l-.39423-5.24902h-1.40723l-.39423,5.24902h-1.50488l.39423-5.24902h-1.39142l-.7218,3.20764-.45923,2.04138h-1.53729l.66534-2.95667.51569-2.29236h-.47656c-.51855,0-.98828.32617-1.1709.81152l-1.6637,4.4375h-1.5531Zm8.00098,5.25098h4c.01324,0,.02429.0069.03741.00757-.16174.08923-.31641.1933-.45148.32837l-1,1c-.05078.05078-.08643.11169-.13489.16406h-2.45105c-.41406,0-.75-.33594-.75-.75s.33594-.75.75-.75Zm1,5.16406v.17188c0,.05573.0144.10858.01605.16406h-5.26605v1.25c0,.41406-.33594.75-.75.75s-.75-.33594-.75-.75v-1.9082l-1.83545-7.3418h-.41455c-.41406,0-.75-.33594-.75-.75s.33594-.75.75-.75h20c.41406,0,.75.33594.75.75s-.33594.75-.75.75h-.41455l-.40509,1.62042c-.05957-.03259-.11334-.07227-.1745-.10284l-1.19635-.59845.22955-.91913h-2.06689l-1.07764-.53906c-.77148-.38379-1.7002-.2334-2.30859.375-.04907.04901-.07605.11115-.11914.16406H3.96094l1.625,6.5h5.54822c-.08282.37897-.13416.76678-.13416,1.16406Z" stroke-width="0"/></svg>