<?xml version="1.0" encoding="UTF-8"?><svg id="a" xmlns="http://www.w3.org/2000/svg" width="24" height="24" viewBox="0 0 24 24"><path d="m9.25,15c0-.41406.33594-.75.75-.75h4c.41406,0,.75.33594.75.75s-.33594.75-.75.75h-4c-.41406,0-.75-.33594-.75-.75Zm13.5-4.00098c0,.41406-.33594.75-.75.75h-.41431l-1.83569,7.34277v1.9082c0,.41406-.33594.75-.75.75s-.75-.33594-.75-.75v-1.25H5.75v1.25c0,.41406-.33594.75-.75.75s-.75-.33594-.75-.75v-1.9082l-1.83569-7.34277h-.41431c-.41406,0-.75-.33594-.75-.75s.33594-.75.75-.75h20c.41406,0,.75.33594.75.75Zm-2.71027.75H3.96027l1.62567,6.50098h12.82812l1.62567-6.50098ZM3.55127,8.99902l1.66455-4.4375v-.00098c.18164-.48438.65137-.81055,1.16992-.81055h.47656l-.66119,2.93988-.51953,2.30914h1.53729l.37982-1.6889.80096-3.56012h1.39136l-.39349,5.24902h1.50488l.39349-5.24902h1.4082l.39349,5.24902h1.50488l-.39349-5.24902h1.39136l.80096,3.56012.37982,1.6889h1.53729l-.51953-2.30914-.66119-2.93988h.47656c.51855,0,.98828.32617,1.16992.81055v.00098l1.66455,4.4375h1.55127c.01794,0,.03455.00482.05243.00531l-1.86395-4.96918c-.39941-1.06738-1.43359-1.78516-2.57422-1.78516H6.38574c-1.14062,0-2.1748.71777-2.57422,1.78516l-1.86395,4.96918c.01788-.00049.03448-.00531.05243-.00531h1.55127Z" stroke-width="0"/></svg>