<?xml version="1.0" encoding="UTF-8"?><svg id="a" xmlns="http://www.w3.org/2000/svg" width="24" height="24" viewBox="0 0 24 24"><path d="m13.75,20c0,1.5166-1.2334,2.75-2.75,2.75h-2c-2.06787,0-3.75-1.68262-3.75-3.75v-3c0-.67578-.54932-1.23633-1.2251-1.25-1.55566-.03027-2.7749-1.20312-2.7749-2.66992v-3.08008C1.25,4.72656,4.72656,1.25,9,1.25s7.75,3.47656,7.75,7.75c0,.41406-.33594.75-.75.75s-.75-.33594-.75-.75c0-3.44629-2.80371-6.25-6.25-6.25s-6.25,2.80371-6.25,6.25v3.08008c0,.74316.67236,1.1582,1.30518,1.16992,1.48633.03125,2.69482,1.26465,2.69482,2.75v3c0,1.24023,1.00928,2.25,2.25,2.25h2c.68945,0,1.25-.56055,1.25-1.25,0-.41406.33594-.75.75-.75s.75.33594.75.75Zm-4.75-15.75c-2.61914,0-4.75,2.13086-4.75,4.75v2c0,.41406.33594.75.75.75s.75-.33594.75-.75v-2c0-1.79199,1.45801-3.25,3.25-3.25s3.25,1.45801,3.25,3.25c0,.41406.33594.75.75.75s.75-.33594.75-.75c0-2.61914-2.13086-4.75-4.75-4.75Zm13.75,10.75c0,.41406-.33594.75-.75.75h-3.2912c-.19775,2.32288-1.29114,4-2.7088,4-.94501,0-1.76794-.7395-2.26697-2h-2.73303c-1.5166,0-2.75-1.2334-2.75-2.75s1.2334-2.75,2.75-2.75h2.73279c.49792-1.26129,1.32135-2,2.26721-2,1.41766,0,2.51105,1.67712,2.7088,4h3.2912c.41406,0,.75.33594.75.75Zm-5.5,0c0-1.9541-.75195-3.25-1.25-3.25-.17828,0-.4198.22113-.64435.60199.23132.12775.39435.36517.39435.64801,0,.41406-.33594.75-.75.75h-4c-.68945,0-1.25.56055-1.25,1.25s.56055,1.25,1.25,1.25h4c.41406,0,.75.33594.75.75,0,.28278-.1629.52008-.39417.64789.22467.38092.46631.60211.64417.60211.49805,0,1.25-1.2959,1.25-3.25Z" stroke-width="0"/></svg>