<?xml version="1.0" encoding="UTF-8"?><svg id="a" xmlns="http://www.w3.org/2000/svg" width="24" height="24" viewBox="0 0 24 24"><path d="m7.75,19.625c0,.41406-.33594.75-.75.75H3c-.41406,0-.75-.33594-.75-.75s.33594-.75.75-.75h4c.41406,0,.75.33594.75.75Zm-2.75,1.375c-.55231,0-1,.44769-1,1,0,.55225.44769,1,1,1s1-.44775,1-1c0-.55231-.44769-1-1-1Zm12-15.875h4c.41406,0,.75-.33594.75-.75s-.33594-.75-.75-.75h-4c-.41406,0-.75.33594-.75.75s.33594.75.75.75Zm5.75,1.875c0,.41406-.33594.75-.75.75h-.75v2.75c0,.97607-.62885,1.80103-1.5,2.11169v5.88831c0,2.34375-1.90674,4.25-4.25,4.25s-4.25-1.90625-4.25-4.25V5.5c0-1.5166-1.2334-2.75-2.75-2.75s-2.75,1.2334-2.75,2.75v5.88824c.87115.31067,1.5,1.13568,1.5,2.11176v2.75h.75c.41406,0,.75.33594.75.75s-.33594.75-.75.75H2c-.41406,0-.75-.33594-.75-.75s.33594-.75.75-.75h.75v-2.75c0-.97607.62885-1.80109,1.5-2.11176v-5.88824c0-2.34375,1.90674-4.25,4.25-4.25s4.25,1.90625,4.25,4.25v13c0,1.5166,1.2334,2.75,2.75,2.75s2.75-1.2334,2.75-2.75v-5.88831c-.87115-.31067-1.5-1.13562-1.5-2.11169v-2.75h-.75c-.41406,0-.75-.33594-.75-.75s.33594-.75.75-.75h6c.41406,0,.75.33594.75.75ZM5.75,13.5c0-.41309-.33643-.75-.75-.75s-.75.33691-.75.75v2.75h1.5v-2.75Zm14-5.75h-1.5v2.75c0,.41309.33643.75.75.75s.75-.33691.75-.75v-2.75Zm-.75-4.75c.55231,0,1-.44769,1-1,0-.55225-.44769-1-1-1s-1,.44775-1,1c0,.55231.44769,1,1,1Z" stroke-width="0"/></svg>