<?xml version="1.0" encoding="UTF-8"?><svg id="a" xmlns="http://www.w3.org/2000/svg" width="24" height="24" viewBox="0 0 24 24"><path d="m20.15723,1.82031c-.37598-.33203-.875-.48535-1.375-.42383l-5.99902.75c-.65344.08179-1.1864.51965-1.414,1.10352h-.6192v-1.25c0-.41406-.33594-.75-.75-.75s-.75.33594-.75.75v1.25h-3.25c-1.5166,0-2.75,1.2334-2.75,2.75v2c0,.41406.33594.75.75.75s.75-.33594.75-.75v-2c0-.68945.56055-1.25,1.25-1.25h3.25v.57587c-2.26166.36261-4,2.31183-4,4.67413v10c0,1.5166,1.2334,2.75,2.75,2.75h4c1.5166,0,2.75-1.2334,2.75-2.75v-10c0-2.3623-1.73834-4.31152-4-4.67413v-.57587h.61926c.22754.58374.76038,1.02173,1.41345,1.10352l6.00049.75c.07227.00879.14453.01367.21631.01367.42432,0,.8374-.1543,1.15918-.43848.37598-.33203.59131-.81055.59131-1.31152v-1.73438c0-.50195-.21582-.98047-.59277-1.3125Zm-6.90723,18.17969c0,.68945-.56055,1.25-1.25,1.25h-4c-.68945,0-1.25-.56055-1.25-1.25v-2.25h6.5v2.25Zm0-3.75h-6.5v-4.5h6.5v4.5Zm0-6.25v.25h-6.5v-.25c0-1.79199,1.45801-3.25,3.25-3.25s3.25,1.45801,3.25,3.25Zm6-5.13281c0,.09766-.05273.15918-.08447.1875-.03174.02734-.10107.07227-.19629.06055l-6.00049-.75c-.12451-.01562-.21875-.12207-.21875-.24805v-.23438c0-.12598.09424-.23242.21924-.24805l6-.75h.00049c.01123-.00098.02197-.00195.03223-.00195.07959,0,.13525.03809.16309.0625.03174.02734.08496.08887.08496.1875v1.73438Z" stroke-width="0"/></svg>