<?xml version="1.0" encoding="UTF-8"?><svg id="a" xmlns="http://www.w3.org/2000/svg" width="24" height="24" viewBox="0 0 24 24"><path d="m19.44824,13.38574l-4.1123-2.05664c-.29004-.14258-.63867-.08887-.86621.14062-.22852.22852-.28516.57715-.14062.86621l1.18262,2.36328c.34473.68945.20996,1.51855-.33496,2.06348-.09766.09766-.25586.09766-.35352,0-.04688-.04688-.07324-.11133-.07324-.17676v-1.58594c0-.30371-.18262-.57715-.46289-.69336-.28027-.11523-.60254-.05176-.81738.16309l-1.00049,1c-.78613.78711-1.21924,1.83301-1.21924,2.94434v.17188c0,1.11133.43311,2.15723,1.21973,2.94434.78613.78613,1.83203,1.21973,2.94434,1.21973h1.01367c1.8623,0,3.58984-.9248,4.62305-2.47363.45703-.68652.69922-1.48535.69922-2.31055v-.85547c0-1.58789-.88184-3.01465-2.30176-3.72461Zm.80176,4.58008c0,.52832-.1543,1.03906-.44727,1.47852-.75391,1.13086-2.01562,1.80566-3.375,1.80566h-1.01367c-.71191,0-1.38086-.27734-1.88379-.78027-.50293-.50391-.78027-1.17285-.78027-1.88379v-.17188c0-.57617.18164-1.12402.51855-1.5791.05371.37109.22754.72168.49414.98828.68164.68164,1.79297.68164,2.47461,0,1.00195-1.00195,1.25-2.52734.61621-3.79492l-.17578-.35059,2.09863,1.0498h.00098c.9082.4541,1.47266,1.36719,1.47266,2.38281v.85547Zm-9.52399,3.28418h-3.72601c-.68945,0-1.25-.56055-1.25-1.25v-2.25h4.31488c.06384-.52069.18622-1.02576.39355-1.5h-4.70844v-4.5h6.5v2.17169l.33594-.33575c.2124-.21289.46484-.37012.7373-.46777l-.1123-.22363c-.38477-.76953-.23389-1.7002.375-2.30859.04901-.04901.11115-.07605.16406-.11908v-.46686c0-2.3623-1.73834-4.31152-4-4.67413v-.57587h.61926c.22754.58374.76038,1.02173,1.41345,1.10352l6.00049.75c.07227.00879.14453.01367.21582.01367.4248,0,.83789-.1543,1.15918-.43848.37598-.33203.5918-.81055.5918-1.31152v-1.73438c0-.50195-.21582-.98047-.59277-1.3125s-.87988-.48438-1.375-.42383l-5.99902.75c-.65344.08179-1.1864.51965-1.414,1.10352h-.6192v-1.25c0-.41406-.33594-.75-.75-.75s-.75.33594-.75.75v1.25h-3.25c-1.5166,0-2.75,1.2334-2.75,2.75v2c0,.41406.33594.75.75.75s.75-.33594.75-.75v-2c0-.68945.56055-1.25,1.25-1.25h3.25v.57587c-2.26166.36261-4,2.31183-4,4.67413v10c0,1.5166,1.2334,2.75,2.75,2.75h4c.28198,0,.55713-.05585.82422-.14001-.07715-.06891-.16455-.12219-.23828-.19592-.34857-.34875-.62225-.74713-.85992-1.16406Zm1.02399-17.36719c0-.12598.09424-.23242.21924-.24805l5.99951-.75h.00098c.01074-.00098.02246-.00195.03223-.00195.08008,0,.13574.03809.16309.0625.03223.02734.08496.08887.08496.1875v1.73438c0,.09766-.05273.15918-.08398.1875-.03223.02734-.0918.06641-.19727.06055l-6-.75c-.12451-.01562-.21875-.12207-.21875-.24805v-.23438Zm-6,6.11719c0-1.79199,1.45801-3.25,3.25-3.25s3.25,1.45801,3.25,3.25v.25h-6.5v-.25Z" stroke-width="0"/></svg>