<?xml version="1.0" encoding="UTF-8"?><svg id="a" xmlns="http://www.w3.org/2000/svg" width="24" height="24" viewBox="0 0 24 24"><path d="m17,12.25h-.41455l-1.479-5.91699c-.30664-1.22656-1.4043-2.08301-2.66797-2.08301h-4.43848c-1.5166,0-2.75,1.2334-2.75,2.75v3.25h-1.25c-1.5166,0-2.75,1.2334-2.75,2.75v4c0,1.28766.89264,2.36292,2.08929,2.66071.29779,1.19666,1.37305,2.08929,2.66071,2.08929,1.25488,0,2.30408-.84937,2.63293-2h2.73413c.32886,1.15063,1.37805,2,2.63293,2,1.28766,0,2.36292-.89264,2.66071-2.08929,1.19666-.29779,2.08929-1.37305,2.08929-2.66071v-3c0-.96484-.78516-1.75-1.75-1.75ZM6.75,7c0-.68945.56055-1.25,1.25-1.25h4.43848c.57422,0,1.07324.38965,1.21289.94629l1.3877,5.55371h-1.49805l-.8291-2.4873c-.13184-.39258-.55176-.60352-.94922-.47461-.39258.13184-.60547.55566-.47461.94922l.6709,2.0127h-3.95898c-.68945,0-1.25-.56055-1.25-1.25v-4Zm-.75,13.25c-.68945,0-1.25-.56055-1.25-1.25s.56055-1.25,1.25-1.25,1.25.56055,1.25,1.25-.56055,1.25-1.25,1.25Zm8,0c-.68945,0-1.25-.56055-1.25-1.25s.56055-1.25,1.25-1.25,1.25.56055,1.25,1.25-.56055,1.25-1.25,1.25Zm3.25-3.25c0,.47546-.27618.87555-.66779,1.08685-.37854-1.06653-1.38733-1.83685-2.58221-1.83685-1.25488,0-2.30408.84937-2.63293,2h-2.73413c-.32886-1.15063-1.37805-2-2.63293-2-1.19489,0-2.20361.77026-2.58221,1.83679-.39154-.2113-.66779-.61139-.66779-1.08679v-4c0-.68945.56055-1.25,1.25-1.25h1.36707c.32886,1.15063,1.37805,2,2.63293,2h9c.1377,0,.25.1123.25.25v3Zm5.5,0c0,.41406-.33594.75-.75.75h-2c-.41406,0-.75-.33594-.75-.75V3c0-.41406.33594-.75.75-.75s.75.33594.75.75v13.25h1.25c.41406,0,.75.33594.75.75Z" stroke-width="0"/></svg>