<?xml version="1.0" encoding="UTF-8"?><svg id="a" xmlns="http://www.w3.org/2000/svg" width="24" height="24" viewBox="0 0 24 24"><path d="m21.46973,9.77441l-.22394.22394c-2.76312-2.04938-5.19476-4.48102-7.24414-7.24414l.22394-.22394c.29297-.29297.29297-.76758,0-1.06055s-.76758-.29297-1.06055,0l-.69189.69189-5.53662,5.53662-.69189.69189c-.29297.29297-.29297.76758,0,1.06055.14648.14648.33838.21973.53027.21973s.38379-.07324.53027-.21973l.22394-.22394c1.17963.87488,2.29657,1.82098,3.35187,2.83173l-1.33801,1.33801-.16162-.16162c-.67432-.6748-1.77148-.67383-2.44482,0l-5.17969,5.17969c-.32715.32666-.50684.76074-.50684,1.22266s.17969.896.50635,1.22217l1.38379,1.38379c.32666.32715.76074.50684,1.22266.50684s.896-.17969,1.22217-.50635l5.18018-5.18018c.67432-.67383.67432-1.771,0-2.44482l-.16162-.16162,1.33801-1.33801c1.01074,1.0553,1.95685,2.17224,2.83173,3.35187l-.22394.22394c-.29297.29297-.29297.76758,0,1.06055.14648.14648.33838.21973.53027.21973s.38379-.07324.53027-.21973l.69189-.69189,5.53662-5.53662.69189-.69189c.29297-.29297.29297-.76758,0-1.06055s-.76758-.29297-1.06055,0Zm-11.76514,6.22852l-5.18066,5.18066c-.11035.11035-.21143.11084-.32275-.00049l-1.38477-1.38477c-.05518-.05518-.06641-.11816-.06641-.16113s.01123-.10596.06689-.16162l5.18018-5.18018c.04443-.04443.10303-.06689.16211-.06689.05859,0,.11719.02246.16162.06689l1.38379,1.38379c.08936.08936.08936.23438,0,.32373Zm6.15479-.61865c-2.06445-2.74805-4.49561-5.1792-7.24365-7.24365l4.2998-4.2998c2.06445,2.74805,4.49561,5.1792,7.24365,7.24365l-4.2998,4.2998Z" stroke-width="0"/></svg>