<?xml version="1.0" encoding="UTF-8"?><svg id="a" xmlns="http://www.w3.org/2000/svg" width="24" height="24" viewBox="0 0 24 24"><path d="m22.21973,16.8877c0-.00098-.00098-.00098-.00098-.00098l-3.07129-5.26465c-.26758-.46094-1.02734-.46094-1.29492,0l-3.07227,5.26562c-.34668.5957-.53027,1.27539-.53027,1.96387,0,2.14941,1.74902,3.89844,3.89844,3.89844h.70312c2.14941,0,3.89844-1.74902,3.89844-3.89844,0-.68848-.18359-1.36816-.53027-1.96387Zm-3.36816,4.3623h-.70312c-1.32227,0-2.39844-1.07617-2.39844-2.39844,0-.42383.11328-.8418.32617-1.20898l2.42383-4.1543,2.42285,4.15332c.21387.36816.32715.78613.32715,1.20996,0,1.32227-1.07617,2.39844-2.39844,2.39844Zm-7.10156-2v-7.5h3.5v1.85205l1.5-2.57135.02246-.03851c.18634-.3194.45593-.5705.76965-.74219h-.79211V2.75h1.25c.68945,0,1.25.56055,1.25,1.25v6.164c.40118.16412.75208.44177.97754.82819l.52246.89557v-7.88776c0-1.5166-1.2334-2.75-2.75-2.75H4c-1.5166,0-2.75,1.2334-2.75,2.75v14c0,1.5166,1.2334,2.75,2.75,2.75h9.37299c-.18726-.46918-.29163-.97516-.3327-1.5h-1.29028Zm0-16.5h3.5v7.5h-3.5V2.75Zm-6.5,16.5h-1.25c-.68945,0-1.25-.56055-1.25-1.25v-6.25h2.5v7.5Zm0-9h-2.5v-6.25c0-.68945.56055-1.25,1.25-1.25h1.25v7.5Zm5,9h-3.5v-7.5h3.5v7.5Zm0-9h-3.5V2.75h3.5v7.5Z" stroke-width="0"/></svg>