<?xml version="1.0" encoding="UTF-8"?><svg id="a" xmlns="http://www.w3.org/2000/svg" width="24" height="24" viewBox="0 0 24 24"><path d="m19,2.25H5c-1.5166,0-2.75,1.2334-2.75,2.75v14c0,1.5166,1.2334,2.75,2.75,2.75h14c1.5166,0,2.75-1.2334,2.75-2.75V5c0-1.5166-1.2334-2.75-2.75-2.75ZM6.25,20.25h-1.25c-.68945,0-1.25-.56055-1.25-1.25v-6.25h2.5v7.5Zm0-9h-2.5v-6.25c0-.68945.56055-1.25,1.25-1.25h1.25v7.5Zm5,9h-3.5v-7.5h3.5v7.5Zm0-9h-3.5V3.75h3.5v7.5Zm5,9h-3.5v-7.5h3.5v7.5Zm0-9h-3.5V3.75h3.5v7.5Zm4,7.75c0,.68945-.56055,1.25-1.25,1.25h-1.25v-7.5h2.5v6.25Zm0-7.75h-2.5V3.75h1.25c.68945,0,1.25.56055,1.25,1.25v6.25Z" stroke-width="0"/></svg>