<?xml version="1.0" encoding="UTF-8"?><svg id="a" xmlns="http://www.w3.org/2000/svg" width="24" height="24" viewBox="0 0 24 24"><path d="m20.33301,1.25h-7.5459C7.90332,1.25,3.51367,3.96338,1.3291,8.33105c-.11621.23242-.10352.50879.0332.72949.13672.22119.37793.35596.6377.35596h3.33301c1.42108,0,2.57678,1.15332,2.58289,2.57257l-.71179,9.95721c-.0293.41357.28125.77246.69434.80176.40723.03906.77246-.28125.80176-.69434l.66504-9.30371h5.26953l.66504,9.30371c.02832.39453.35742.69629.74707.69629.01855,0,.03613-.00049.05469-.00195.41309-.0293.72363-.38818.69434-.80176l-.71179-9.95721c.0061-1.41925,1.1618-2.57257,2.58289-2.57257h1.66602c1.33301,0,2.41699-1.08398,2.41699-2.4165v-3.3335c0-1.33252-1.08398-2.4165-2.41699-2.4165Zm.91699,5.75c0,.50537-.41113.9165-.91699.9165h-1.66602c-1.99609,0-3.66211,1.43896-4.01465,3.3335h-5.30469c-.35254-1.89453-2.01855-3.3335-4.01465-3.3335h-2.04395c2.07031-3.21533,5.60645-5.1665,9.49805-5.1665h7.5459c.50586,0,.91699.41113.91699.9165v3.3335Z" stroke-width="0"/></svg>