<?xml version="1.0" encoding="UTF-8"?><svg id="a" xmlns="http://www.w3.org/2000/svg" width="24" height="24" viewBox="0 0 24 24"><path d="m22.07031,6.01465l-3.71973-2.95312h-.00098c-2.49023-1.97754-5.83203-2.37305-8.71484-1.03711-.23633.10938-.39844.3335-.42969.5918-.03027.25879.0752.51465.2793.67627l1.64258,1.3042c.28223.22363.45996.54346.5.90039.04083.35443-.06055.70312-.2821.98279L2.21973,16.58936c-.6875.74805-1.03711,1.75732-.95898,2.76953.0791,1.01416.58203,1.95898,1.37988,2.5918.6543.51953,1.46875.79883,2.29688.79883.18066,0,.3623-.01318.54297-.04053,1.00684-.15088,1.91406-.71729,2.48535-1.54834l7.83881-11.13501c.46448-.57849,1.31293-.67346,1.89459-.21167l.82227.65283c.33105.26172.72559.38916,1.11816.38916.53027,0,1.05566-.23193,1.40918-.67627l1.30859-1.63818c.2998-.37549.43555-.84473.38086-1.32178-.05371-.47803-.29102-.90576-.66797-1.20508Zm-15.33594,14.28955c-.3457.50342-.87012.83057-1.47656.92139-.60742.08984-1.2041-.06885-1.68555-.44971-.47852-.38037-.76855-.9248-.81543-1.5332-.04785-.60791.1543-1.19043.56934-1.63965.00098-.00195.00293-.00391.00488-.00586L12.01367,7.97705l2.18066,1.73096-7.45996,10.59619Zm14.45117-12.69873l-1.30957,1.63916c-.10254.12988-.29492.14893-.42188.04688l-.82129-.65234c-.52344-.41553-1.14941-.61719-1.77148-.61719-.59766,0-1.19238.18652-1.6875.54834l-2.26758-1.80029c.19336-.44873.26855-.94287.21191-1.44189-.08594-.75586-.46191-1.43262-1.05859-1.90625l-.58691-.46582c2.05176-.52441,4.24023-.07227,5.94531,1.28027l3.71973,2.95312c.08398.06689.10547.15332.11035.19922.00488.04492.00391.1333-.0625.2168Z" stroke-width="0"/></svg>