<?xml version="1.0" encoding="UTF-8"?><svg id="a" xmlns="http://www.w3.org/2000/svg" width="24" height="24" viewBox="0 0 24 24"><path d="m15.12394,10.89383c.2915.23145.64062.34375.9873.34375.46777,0,.93164-.20459,1.24512-.59717l1.04688-1.31055c.26465-.33203.38428-.74707.33643-1.16895-.04785-.42139-.25781-.79932-.59033-1.06348l-2.97607-2.3623c-2.03613-1.6167-4.76758-1.94141-7.12842-.84863-.23584.10938-.39844.3335-.4292.5918-.03076.25879.07471.51465.27832.67627l1.31445,1.04346c.19385.15381.31641.37402.34424.61914.02759.24316-.04187.48199-.19312.6745L2.06535,15.57351c-.57812.62842-.87207,1.47705-.80615,2.32812.06641.85303.48877,1.64746,1.15967,2.17969.55029.43652,1.23486.67139,1.93115.67139.15186,0,.30469-.01123.45654-.03369.84619-.12695,1.60938-.60352,2.08887-1.30078l6.26599-8.90161c.31995-.39636.9043-.46252,1.30481-.14478l.65771.52197Zm-9.45996,7.66797c-.25293.36768-.63623.60742-1.07959.67383-.44336.06689-.88135-.0498-1.23291-.3291-.3501-.27783-.56201-.67627-.59668-1.12109-.03467-.44434.11328-.86963.41602-1.19824.00195-.00195.00391-.00391.00537-.00586l6.8515-7.59174.35107.27869,1.17194.93073-5.88672,8.36279Zm6.88086-9.48926l-1.63916-1.30127c.13281-.354.18115-.73682.13721-1.12354-.07324-.64404-.39355-1.22119-.90186-1.62451l-.22363-.17773c1.50732-.29102,3.08154.07812,4.32324,1.06445l2.97607,2.3623.01416.12207-1.04639,1.31006c-.03125.03906-.08936.0459-.12793.01465l-.65771-.52197c-.4458-.354-.97949-.52588-1.50977-.52588-.47266,0-.94189.13623-1.34424.40137Zm10.09814,7.54492c.17725.29492.13037.67285-.11279.91602-.14453.14453-.33643.21973-.53076.21973-.13232,0-.26562-.03516-.38525-.10693l-4.19824-2.51904-.70459,2.11328c-.10205.30615-.38867.5127-.71143.5127s-.60938-.20654-.71143-.5127l-1-3c-.13086-.39307.08105-.81787.47412-.94873.39355-.13086.81787.08154.94873.47412l.28857.86572.28857-.86572c.07178-.21582.23779-.38721.45117-.46631.21436-.07764.45166-.05615.646.06055l2.42773,1.45654-1.45654-2.42773c-.11719-.19482-.13916-.43262-.06055-.646.0791-.21338.25049-.37939.46631-.45117l.86572-.28857-.7594-.25311.51135-.64044c.15839-.19873.27618-.41827.37494-.6452l2.48199.82733c.30615.10205.5127.38867.5127.71143s-.20654.60938-.5127.71143l-2.11328.70459,2.51904,4.19824Z" stroke-width="0"/></svg>