<?xml version="1.0" encoding="UTF-8"?><svg id="a" xmlns="http://www.w3.org/2000/svg" width="24" height="24" viewBox="0 0 24 24"><path d="m22.71851,7.97365c-.09668-.43115-.40186-.77783-.81689-.92676-1.46387-.52686-2.60498-1.66846-3.13135-3.13232-.14941-.41455-.49658-.71973-.92773-.81592-.43701-.09668-.88672.03369-1.20215.3501L1.46949,18.61965c-.29297.29297-.29297.76758,0,1.06055l.38232.38232c.57471.57422,1.34863.87012,2.10791.87012.46582,0,.92578-.11133,1.33105-.33838l5.3667-2.1958c2.79492-1.14307,5.29492-2.80566,7.43164-4.94189l4.27979-4.27979c.31641-.31641.44727-.76611.34961-1.20312Zm-12.62891,9.03613l-5.44727,2.23438c-.49951.27881-1.11865.23047-1.5708-.10498l9.49176-9.49219.39447,1.18262c.05664.16992.17188.31348.32568.40576l3.02356,1.81427c-1.83295,1.67249-3.90997,3.01672-6.21741,3.96014Zm7.35303-5.02783l-3.1499-1.89014-.54346-1.63037,3.72949-3.72949c.67969,1.63525,1.9707,2.92627,3.60693,3.60693l-3.64307,3.64307Zm3.9502-3.52393c.00049.00049.00098.00049.00146.00049,0,0,.00049,0,.00049.00049-.00049-.00049-.00146-.00049-.00195-.00098Zm-2.30615.57861c0,.41406-.33594.75-.75.75-1.69189,0-2.30615-1.37939-2.30615-2.30615,0-.41406.33594-.75.75-.75.41211,0,.74609.33203.75.74316.00781.3042.12305.81299.80615.81299.41406,0,.75.33594.75.75Z" stroke-width="0"/></svg>