<?xml version="1.0" encoding="UTF-8"?><svg id="a" xmlns="http://www.w3.org/2000/svg" width="24" height="24" viewBox="0 0 24 24"><path d="m3.33057,6.61566l.38458,2.69189c-.27258.1123-.46515.37939-.46515.69244,0,.38525.2948.69128.66882.73358l.92932,6.505c.09692.23492.15186.49158.15186.76141h1.47186l-1.0354-7.25h1.14093l2.07135,7.25h1.55939l-1.20807-4.22833,2.72638-3.27167h.54712l2.72638,3.27167-1.20807,4.22833h1.55914l2.07153-7.25h1.14087l-.78882,5.52264c.37433-.17078.78662-.27264,1.2254-.27264h.32849l.7525-5.26636c.37402-.04218.66901-.34833.66901-.73364,0-.31305-.19257-.58014-.46521-.69244l.38464-2.69189c.63348-.26355,1.08057-.88794,1.08057-1.61566v-2c0-.96484-.78516-1.75-1.75-1.75h-2c-.85889,0-1.57166.62329-1.71869,1.44055l-4.00793,4.80945h-.54675L7.71869,2.69055c-.14703-.81726-.8598-1.44055-1.71869-1.44055h-2c-.96484,0-1.75.78516-1.75,1.75v2c0,.72766.44708,1.35211,1.08057,1.61566Zm15.44708,2.63434h-.92651l.71429-2.5h.56934l-.35712,2.5Zm-1.02765-6.25c0-.1377.1123-.25.25-.25h2c.1377,0,.25.1123.25.25v2c0,.1377-.1123.25-.25.25h-2c-.1377,0-.25-.1123-.25-.25v-2Zm-4.25,5.37177l2.75647-3.30768c.02216.60016.34576,1.12109.82587,1.41925l-.79047,2.76666h-.29187c-.41406,0-.75.33594-.75.75,0,.36823.27069.66052.62073.72388l-.37207,1.30243-1.99866-2.39832v-1.25623Zm-5.75647-3.30768l2.75647,3.30768v1.25623l-1.99866,2.39832-.37207-1.30243c.35004-.06335.62073-.35565.62073-.72388,0-.41406-.33594-.75-.75-.75h-.29187l-.79047-2.76666c.4801-.29816.80371-.81909.82587-1.41925Zm-2.52124,4.18591l-.35706-2.5h.56934l.71423,2.5h-.92651Zm-1.47229-6.25c0-.1377.1123-.25.25-.25h2c.1377,0,.25.1123.25.25v2c0,.1377-.1123.25-.25.25h-2c-.1377,0-.25-.1123-.25-.25v-2Zm17.25,14.25h-2c-.96484,0-1.75.78516-1.75,1.75v.25H2.75v-1.25c0-.41406-.33594-.75-.75-.75s-.75.33594-.75.75v4c0,.41406.33594.75.75.75s.75-.33594.75-.75v-1.25h14.5v.25c0,.96484.78516,1.75,1.75,1.75h2c.96484,0,1.75-.78516,1.75-1.75v-2c0-.96484-.78516-1.75-1.75-1.75Zm.25,3.75c0,.1377-.1123.25-.25.25h-2c-.1377,0-.25-.1123-.25-.25v-2c0-.1377.1123-.25.25-.25h2c.1377,0,.25.1123.25.25v2Z" stroke-width="0"/></svg>