<?xml version="1.0" encoding="UTF-8"?><svg id="a" xmlns="http://www.w3.org/2000/svg" width="24" height="24" viewBox="0 0 24 24"><path d="m21,15.25H3c-.96484,0-1.75.78516-1.75,1.75v2c0,.96484.78516,1.75,1.75,1.75h18c.96484,0,1.75-.78516,1.75-1.75v-2c0-.96484-.78516-1.75-1.75-1.75Zm.25,3.75c0,.1377-.1123.25-.25.25H3c-.1377,0-.25-.1123-.25-.25v-2c0-.1377.1123-.25.25-.25h18c.1377,0,.25.1123.25.25v2ZM3,14c-.2605,0-.50885.04382-.75.10651v-.10651c0-4.39484,2.8689-8.1615,7.03796-9.35974.1665-.79279.87054-1.39026,1.71204-1.39026h2c.84149,0,1.54553.59747,1.71204,1.39026,4.16907,1.19824,7.03796,4.9649,7.03796,9.35974v.10651c-.24115-.06268-.4895-.10651-.75-.10651h-.75c0-3.5567-2.22076-6.62738-5.5-7.77539v5.77539c0,.41406-.33594.75-.75.75s-.75-.33594-.75-.75v-7c0-.1377-.1123-.25-.25-.25h-2c-.1377,0-.25.1123-.25.25v7c0,.41406-.33594.75-.75.75s-.75-.33594-.75-.75v-5.77539c-3.27924,1.14801-5.5,4.21869-5.5,7.77539h-.75Z" stroke-width="0"/></svg>