<?xml version="1.0" encoding="UTF-8"?><svg id="a" xmlns="http://www.w3.org/2000/svg" width="24" height="24" viewBox="0 0 24 24"><path d="m22.75,13.72559c0,4.75293-3.58887,8.70898-8.16895,9.00488-.19727.0127-.39355.01953-.58887.01953-2.23242,0-4.33496-.82812-5.97461-2.36523-1.75879-1.64844-2.76758-3.97559-2.76758-6.38477,0-3.56873,2.14978-6.63989,5.22003-8h1.80438c1.18091,0,2.29639.27417,3.29834.75h-1.57275c-3.99805,0-7.25,3.25195-7.25,7.25,0,2.02539.81445,3.9043,2.29297,5.29102,1.47754,1.38379,3.41211,2.06152,5.44043,1.94336,3.79492-.24609,6.7666-3.54395,6.7666-7.50879,0-4.94922-4.02637-8.97559-8.97559-8.97559h-5.52441v1.25c0,.41406-.33594.75-.75.75s-.75-.33594-.75-.75v-.1875l-2.53607-.63403c-.08185.32544-.36316.57153-.71393.57153-.41406,0-.75-.33594-.75-.75v-2c0-.41406.33594-.75.75-.75.35077,0,.63208.24609.71393.57153l2.53607-.63403v-.1875c0-.41406.33594-.75.75-.75s.75.33594.75.75v1.25h5.52441c5.77637,0,10.47559,4.69922,10.47559,10.47559Zm-8.75-5.47559c3.1709,0,5.75,2.5791,5.75,5.75s-2.5791,5.75-5.75,5.75-5.75-2.5791-5.75-5.75,2.5791-5.75,5.75-5.75Zm0,1.5c-2.34375,0-4.25,1.90625-4.25,4.25s1.90625,4.25,4.25,4.25,4.25-1.90625,4.25-4.25-1.90625-4.25-4.25-4.25Zm0,1.5c1.5166,0,2.75,1.2334,2.75,2.75s-1.2334,2.75-2.75,2.75-2.75-1.2334-2.75-2.75,1.2334-2.75,2.75-2.75Zm0,1.5c-.68945,0-1.25.56055-1.25,1.25s.56055,1.25,1.25,1.25,1.25-.56055,1.25-1.25-.56055-1.25-1.25-1.25Z" stroke-width="0"/></svg>