<?xml version="1.0" encoding="UTF-8"?><svg id="a" xmlns="http://www.w3.org/2000/svg" width="24" height="24" viewBox="0 0 24 24"><path d="m21.75,20c0,.41406-.33594.75-.75.75H3c-.41406,0-.75-.33594-.75-.75s.33594-.75.75-.75h18c.41406,0,.75.33594.75.75Zm-.75-4.75H3c-.41406,0-.75.33594-.75.75s.33594.75.75.75h18c.41406,0,.75-.33594.75-.75s-.33594-.75-.75-.75Zm-3-4H3c-.41406,0-.75.33594-.75.75s.33594.75.75.75h15c2.06738,0,3.75-1.68262,3.75-3.75s-1.68262-3.75-3.75-3.75H7.75v-1.25c0-.41406-.33594-.75-.75-.75s-.75.33594-.75.75v.1875l-2.53607.63403c-.08185-.32544-.36316-.57153-.71393-.57153-.41406,0-.75.33594-.75.75v2c0,.41406.33594.75.75.75.35077,0,.63208-.24609.71393-.57153l2.53607.63403v.1875c0,.41406.33594.75.75.75s.75-.33594.75-.75v-1.25h10.25c1.24023,0,2.25,1.00977,2.25,2.25s-1.00977,2.25-2.25,2.25Z" stroke-width="0"/></svg>