<?xml version="1.0" encoding="UTF-8"?><svg id="a" xmlns="http://www.w3.org/2000/svg" width="24" height="24" viewBox="0 0 24 24"><path d="m19,19.25077h-.52142l-.25-2.5h.17181c.41406,0,.75-.33594.75-.75s-.33594-.75-.75-.75h-.32184l-.25-2.5h.17145c.41406,0,.75-.33594.75-.75s-.33594-.75-.75-.75h-.32141l-.25-2.5h.17102c.41406,0,.75-.33594.75-.75s-.33594-.75-.75-.75h-.32104l-.25-2.5h.17163c.41406,0,.75-.33594.75-.75s-.33594-.75-.75-.75h-.32166l-.13245-1.32471c-.04102-.41211-.41797-.72217-.82031-.67139-.41211.04102-.71289.40869-.67188.8208l.11755,1.17529h-6.74292l.11755-1.17529c.04102-.41211-.25977-.77979-.67188-.8208-.40234-.05078-.7793.25928-.82031.67139l-.13245,1.32471h-.32166c-.41406,0-.75.33594-.75.75s.33594.75.75.75h.17163l-.25,2.5h-.32104c-.41406,0-.75.33594-.75.75s.33594.75.75.75h.17102l-.25,2.5h-.32141c-.41406,0-.75.33594-.75.75s.33594.75.75.75h.17145l-.25,2.5h-.32184c-.41406,0-.75.33594-.75.75s.33594.75.75.75h.17181l-.25,2.5h-.52142c-.41406,0-.75.33594-.75.75s.33594.75.75.75h.37146l-.11755,1.17529c-.04102.41211.25977.77979.67188.8208.02539.00293.0498.00391.0752.00391.38086,0,.70703-.28857.74512-.67529l.13245-1.32471h10.24292l.13245,1.32471c.03809.38672.36426.67529.74512.67529.02539,0,.0498-.00098.0752-.00391.41211-.04102.71289-.40869.67188-.8208l-.11755-1.17529h.37146c.41406,0,.75-.33594.75-.75s-.33594-.75-.75-.75ZM8.47858,4.75077h7.04285l.25,2.5h-7.54285l.25-2.5Zm-.40002,4h7.8429l.25,2.5H7.82855l.25-2.5Zm-.39996,4h8.64282l.25,2.5H7.42859l.25-2.5Zm-.65002,6.5l.25-2.5h9.44287l.25,2.5H7.02856Z" stroke-width="0"/></svg>