<?xml version="1.0" encoding="UTF-8"?><svg id="a" xmlns="http://www.w3.org/2000/svg" width="24" height="24" viewBox="0 0 24 24"><path d="m6.25,3.97888c0,3.06299,2.04199,4.75,5.75,4.75s5.75-1.68701,5.75-4.75C17.75.36853,6.25.36853,6.25,3.97888Zm5.75,3.25c-4.25,0-4.25-2.44629-4.25-3.25,0-.32129,1.46143-1.25,4.25-1.25,2.78906,0,4.25.92871,4.25,1.25,0,.80371,0,3.25-4.25,3.25Zm.98505,2.70502c.54309-.04553,1.0528-.13025,1.52972-.25073l-.7677,8.36407c-.00391.03857-.00977.07666-.01953.11426l-1.00342,4c-.08398.3335-.38379.56738-.72754.56738h-.00049c-.34424-.00049-.64404-.23486-.72705-.56885l-.99658-4c-.00928-.03711-.01562-.07471-.01953-.11279l-.76691-8.36383c.47693.12036.98663.20508,1.52966.25061l.72601,7.91937.25732,1.0332.25928-1.03418.72675-7.91852Z" stroke-width="0"/></svg>