<?xml version="1.0" encoding="UTF-8"?><svg id="a" xmlns="http://www.w3.org/2000/svg" width="24" height="24" viewBox="0 0 24 24"><path d="m21.64026,8.93262c-.02332-.04071-.03943-.08435-.07092-.12109l-4.86035-5.66992c-.48535-.56641-1.19043-.8916-1.93652-.8916h-5.54492c-.74609,0-1.45117.3252-1.93555.89062l-4.86133,5.6709c-.03149.03674-.04761.08038-.07092.12109-.01813.03143-.04083.05859-.05432.09271-.03516.08887-.0556.18176-.05542.27588v5.39899c0,.03668.01581.06812.02087.10339.00739.0528.01257.10419.03131.15491.01868.05035.0481.09247.0766.13708.01923.0304.02783.06482.05188.0929l4.86035,5.66992c.48535.56641,1.19043.8916,1.93652.8916h5.54492c.74609,0,1.45117-.3252,1.93555-.89062l4.86133-5.6709c.02405-.02808.03265-.0625.05188-.0929.0285-.04462.05792-.08673.0766-.13708.01874-.05072.02393-.10211.03131-.15491.00507-.03528.02087-.06671.02087-.10339v-5.39899c.00018-.09412-.02026-.18701-.05542-.27588-.01349-.03412-.03619-.06128-.05432-.09271Zm-13.98987,10.03998l-3.90039-4.54993v-3.09552l3.90039,4.54999v3.09546Zm7.19922,1.2605c-.02667.00208-.05017.01691-.07715.01691h-5.54492c-.02698,0-.05048-.01483-.07715-.01691v-3.88348h5.69922v3.88348Zm-6.10449-5.38348l-4.75684-5.5498,4.44336-5.18359c.19922-.23242.48926-.36621.7959-.36621h5.54492c.30664,0,.59668.13379.79688.36719l4.44238,5.18262-4.75684,5.5498h-6.50977Zm11.50488-.42694l-3.90039,4.5498v-3.09534l3.90039-4.54999v3.09552Zm-8.25-7.87286c-2.10254,0-3.75,1.20801-3.75,2.75s1.64746,2.75,3.75,2.75,3.75-1.20801,3.75-2.75-1.64746-2.75-3.75-2.75Zm0,4c-1.32617,0-2.25-.65918-2.25-1.25s.92383-1.25,2.25-1.25,2.25.65918,2.25,1.25-.92383,1.25-2.25,1.25Z" stroke-width="0"/></svg>