<?xml version="1.0" encoding="UTF-8"?><svg id="a" xmlns="http://www.w3.org/2000/svg" width="24" height="24" viewBox="0 0 24 24"><path d="m13.00005,6.75c1.5166,0,2.75-1.2334,2.75-2.75s-1.2334-2.75-2.75-2.75-2.75,1.2334-2.75,2.75,1.2334,2.75,2.75,2.75Zm0-4c.68945,0,1.25.56055,1.25,1.25s-.56055,1.25-1.25,1.25-1.25-.56055-1.25-1.25.56055-1.25,1.25-1.25Zm9.63623,18.85254l-5-8c-.27441-.43848-.99805-.43848-1.27246,0l-2.25262,3.60413-2.8269-2.51294c.08942-.03662.1734-.09082.24603-.16345l3-3c.22852-.22803.28516-.57715.14062-.86572l-.85059-1.70117c-.16846-.33691-.44678-.61523-.7832-.7832l-4.53076-2.26562c-.49121-.24609-1.05713-.24902-1.55127-.00684-.49414.2417-.83936.68945-.94727,1.229l-.74316,3.71631c-.05225.26123.03809.53076.2373.70752l7.80304,6.9361-1.94122,3.1059c-.14404.23096-.15186.52246-.01953.76123.13184.23828.3833.38623.65576.38623h10c.27246,0,.52393-.14795.65576-.38623.13232-.23877.12451-.53027-.01953-.76123ZM6.81988,10.7251l.65869-3.29443c.021-.10547.09375-.15527.13525-.17529.04199-.02002.12549-.04639.22168.00098l2.11981,1.05994-1.96906,3.44568-1.16638-1.03687Zm3.46765,3.08252l-1.1554-1.02704,2.16724-3.7923,1.06738.53418c.04883.02393.08691.06201.11133.11133l.60938,1.21826-2.61768,2.61768c-.09656.09656-.14935.2149-.18225.33789Zm3.06555,7.44238l3.64697-5.83496,3.64697,5.83496h-7.29395Zm-7.26056-7.49219l1.30615,1.16101-.6618,3.48059c-.02979.15625-.1084.29883-.22461.40771l-4,3.74072c-.14453.13525-.32861.20215-.51221.20215-.2002,0-.3999-.07959-.54785-.23779-.28271-.30225-.26709-.77686.03564-1.06006l3.82129-3.57324.78339-4.12109Zm5.44653,4.84143l-1.8681,3.73621c-.13135.2627-.39648.41455-.67139.41455-.11279,0-.22705-.02539-.33496-.0791-.37061-.18555-.52051-.63574-.33545-1.00635l1.86133-3.72217-.25677-.77014,1.60535,1.427Z" stroke-width="0"/></svg>