<?xml version="1.0" encoding="UTF-8"?><svg id="a" xmlns="http://www.w3.org/2000/svg" width="24" height="24" viewBox="0 0 24 24"><path d="m13.2002,9.9502c1.2959,0,2.34961-1.05469,2.34961-2.35059s-1.05371-2.34961-2.34961-2.34961-2.35059,1.05371-2.35059,2.34961,1.05469,2.35059,2.35059,2.35059Zm0-3.2002c.46875,0,.84961.38086.84961.84961s-.38086.85059-.84961.85059-.85059-.38184-.85059-.85059.38184-.84961.85059-.84961Zm-.39258,11.59668l-1.2959,3.89062c-.10547.31445-.39746.5127-.71191.5127-.07812,0-.1582-.0127-.2373-.03809-.39258-.13184-.60547-.55566-.47461-.94922l1.29688-3.89062-2.08594-.35742c-.81934-.11719-1.50195-.6416-1.82715-1.40234-.32617-.76074-.23242-1.61621.24805-2.29004l2.01953-2.82715c.4873-.68555,1.41895-.8584,2.12109-.38965l1.56738,1.04492h2.97266c.41406,0,.75.33594.75.75s-.33594.75-.75.75h-3.2002c-.14844,0-.29297-.04395-.41602-.12598l-1.75586-1.1709-2.08789,2.84082c-.17676.24707-.20898.54883-.08984.82812s.36035.46484.66113.50781l2.0459.29199c.45605.06445.85645.32715,1.09863.71875.24316.39258.29785.86816.15137,1.30566ZM1.25,6c0-.41406.33594-.75.75-.75h4.18945l-.71973-.71973c-.29297-.29297-.29297-.76758,0-1.06055s.76758-.29297,1.06055,0l2,2c.29297.29297.29297.76758,0,1.06055l-2,2c-.14648.14648-.33789.21973-.53027.21973s-.38379-.07324-.53027-.21973c-.29297-.29297-.29297-.76758,0-1.06055l.71973-.71973H2c-.41406,0-.75-.33594-.75-.75Zm21.5-2v16c0,1.5166-1.2334,2.75-2.75,2.75h-7.14832c.09406-.23193.14832-.48431.14832-.75,0-.06799-.0199-.13-.02649-.19623l.18451-.55377h6.84198c.68945,0,1.25-.56055,1.25-1.25V4c0-.68945-.56055-1.25-1.25-1.25h-8c-.68945,0-1.25.56055-1.25,1.25v.9776c-.3089.28864-.55676.6366-.75061,1.01587-.00165-.50952-.19635-1.01855-.58533-1.40753l-.16406-.16406v-.42188c0-1.5166,1.2334-2.75,2.75-2.75h8c1.5166,0,2.75,1.2334,2.75,2.75Zm-14.87646,14.32916l-.40283.8056c-.12695.25488-.38672.41504-.6709.41504H2c-.41406,0-.75-.33594-.75-.75s.33594-.75.75-.75h4.33594l.3797-.75873c.3078.42993.70087.78357,1.1579,1.03809Zm-.27393-8.27936h1.31287c-.06396.07263-.1333.13818-.1908.21875l-.93323,1.30707-2.17224,1.44879c-.12793.08496-.27246.12598-.41504.12598-.24219,0-.48047-.11719-.625-.33398-.22949-.34473-.13672-.81055.20801-1.04004l2.39941-1.60059c.12305-.08203.26758-.12598.41602-.12598Z" stroke-width="0"/></svg>