<?xml version="1.0" encoding="UTF-8"?><svg id="a" xmlns="http://www.w3.org/2000/svg" width="24" height="24" viewBox="0 0 24 24"><path d="m10.25001,8.75c0-.82843.67157-1.5,1.5-1.5s1.5.67157,1.5,1.5-.67157,1.5-1.5,1.5-1.5-.67157-1.5-1.5Zm-2.25,5.74072v1.44873l-1.78027,1.78027c-.29297.29297-.29297.76758,0,1.06055s.76758.29297,1.06055,0l2-2c.14062-.14062.21973-.33154.21973-.53027v-.20508l.41309.32812-.39404,1.7085c-.09277.40381.15869.80615.5625.89941.05664.01318.11328.01904.16895.01904.3418,0,.65039-.23486.73047-.58154l.4549-1.97424-3.3689-2.24591c-.03931.09174-.06696.18884-.06696.29242Zm7.67401-.62903c-.19586-.31329-.65216-.31329-.84802,0l-.67828,1.08533-1.45337-.96899.49902-.55811c.20508-.229.25-.56006.1123-.83545l-.38672-.77295c-.11523-.23047-.30518-.42139-.5376-.53809l-2.05713-1.02881c-.33838-.16943-.72705-.17139-1.06738-.00439-.29395.14355-.51123.39355-.6123.69873l-.54297.93408c-.19922.34277-.09717.78125.23242,1.00098l5.01837,3.34558-1.12421,1.79871c-.20819.33301.03125.76501.42395.76501h5.1958c.3927,0,.63214-.43201.42395-.76501l-2.59784-4.15662Zm6.84259,5.19202L13.59376,3.17871c-.32715-.58154-.92285-.92871-1.59375-.92871s-1.2666.34717-1.59375.92871L1.48292,19.0542c-.31738.56445-.31152,1.23535.01562,1.79395.33057.56494.92041.90186,1.57812.90186h17.84717c.65723,0,1.24805-.3374,1.57812-.90234.32715-.55859.33203-1.22949.01465-1.79395Zm-1.30957,1.03662c-.02832.04834-.11133.15967-.2832.15967H3.07667c-.17139,0-.25537-.11133-.28369-.15967-.03271-.05566-.07666-.16943-.00244-.30127L11.71387,3.91406c.08301-.14795.22803-.16406.28613-.16406s.20312.01611.28613.16406l8.92383,15.875c.07422.13184.03027.24561-.00293.30127Z" stroke-width="0"/></svg>