<?xml version="1.0" encoding="UTF-8"?><svg id="a" xmlns="http://www.w3.org/2000/svg" width="24" height="24" viewBox="0 0 24 24"><path d="m22.52205,2.53833c.29297-.29297.29297-.76758,0-1.06055s-.76758-.29297-1.06055,0l-9.9585,9.9585c-.03156.03156-.0462.07159-.07098.10687-.82196-.41736-1.82855-.31946-2.55939.29364-1.82977-.64697-3.93402-.30847-5.45557,1.05701-.07861-.00684-.16895-.01758-.26318-.02734-.72803-.07568-1.25049-.12891-1.60938.22949-1.18311,1.18311,1.57178,4.29199,3.31934,6.04004,1.45459,1.4541,3.85107,3.60596,5.29639,3.60596.29199-.00049.54492-.08789.74365-.28662.35889-.3584.30469-.8833.22949-1.60938-.00977-.09424-.02051-.18457-.02734-.26318,1.36578-1.52014,1.70514-3.62549,1.05743-5.45612.61267-.73083.71039-1.73706.29321-2.55884.03528-.02478.07532-.03943.10687-.07098L22.52205,2.53833Zm-12.67871,17.19678c-.30176.30127-.26416.66406-.20215,1.26514.00244.02246.00488.04688.00781.07275-.71631-.37402-2.05518-1.32861-3.72461-2.99756-1.66895-1.66943-2.62354-3.0083-2.99756-3.72461.02588.00293.05029.00537.07275.00781.60156.06104.96387.09863,1.26514-.20215,1.53809-1.53613,4.04053-1.53711,5.57861,0,1.5376,1.53809,1.5376,4.04053,0,5.57861Z" stroke-width="0"/></svg>