<?xml version="1.0" encoding="UTF-8"?><svg id="a" xmlns="http://www.w3.org/2000/svg" width="24" height="24" viewBox="0 0 24 24"><path d="m17.75,12c0,.41406-.33594.75-.75.75H5c-.41406,0-.75-.33594-.75-.75s.33594-.75.75-.75h12c.41406,0,.75.33594.75.75Zm-.75,2.75H7c-.41406,0-.75.33594-.75.75s.33594.75.75.75h10c.41406,0,.75-.33594.75-.75s-.33594-.75-.75-.75Zm0-7H7c-.41406,0-.75.33594-.75.75s.33594.75.75.75h10c.41406,0,.75-.33594.75-.75s-.33594-.75-.75-.75Zm3.75,12.75c0,1.24072-1.00977,2.25-2.25,2.25H5.5c-1.24023,0-2.25-1.00928-2.25-2.25s1.00977-2.25,2.25-2.25h13c1.24023,0,2.25,1.00928,2.25,2.25Zm-1.5,0c0-.41357-.33691-.75-.75-.75H5.5c-.41309,0-.75.33643-.75.75s.33691.75.75.75h13c.41309,0,.75-.33643.75-.75ZM3.25,3.5c0-1.24072,1.00977-2.25,2.25-2.25h13c1.24023,0,2.25,1.00928,2.25,2.25s-1.00977,2.25-2.25,2.25H5.5c-1.24023,0-2.25-1.00928-2.25-2.25Zm1.5,0c0,.41357.33691.75.75.75h13c.41309,0,.75-.33643.75-.75s-.33691-.75-.75-.75H5.5c-.41309,0-.75.33643-.75.75Z" stroke-width="0"/></svg>