<?xml version="1.0" encoding="UTF-8"?><svg id="a" xmlns="http://www.w3.org/2000/svg" width="24" height="24" viewBox="0 0 24 24"><path d="m21.94451,14.69464l-1.67859-1.67853c-.00006-.00006-.00006-.00012-.00012-.00018s-.00012-.00006-.00018-.00012L9.30437,2.05499c-1.07227-1.07227-2.81738-1.07275-3.89062.00049l-3.35742,3.35742c-1.07275,1.07275-1.07275,2.81836,0,3.89111l12.63916,12.63916c.53711.53662,1.24121.80469,1.94629.80469.7041,0,1.4082-.26807,1.94434-.8042l3.3584-3.35791c1.07227-1.07275,1.07227-2.81836,0-3.89111Zm-1.06055,2.83057l-3.3584,3.35791c-.48828.48877-1.28125.4873-1.76953-.00049L3.11687,8.24347c-.23633-.23633-.3667-.55078-.3667-.88525,0-.33398.13037-.64844.3667-.88477l3.35742-3.35742c.24414-.24414.56445-.36621.88525-.36621.32031,0,.64062.12207.88428.36572l1.14893,1.14886-2.56396,2.56354c-.29297.29297-.29297.76758,0,1.06055.14648.14648.33838.21973.53027.21973s.38379-.07324.53027-.21973l2.56396-2.56354,1.25983,1.25977-1.01666,1.01666c-.29297.29297-.29297.76758,0,1.06055.14648.14648.33838.21973.53027.21973s.38379-.07324.53027-.21973l1.01666-1.01666,1.26007,1.25995-2.56384,2.56384c-.29297.29297-.29297.76758,0,1.06055.14648.14648.33838.21973.53027.21973s.38379-.07324.53027-.21973l2.56384-2.56384,1.25983,1.2597-1.01703,1.01703c-.29297.29297-.29297.76758,0,1.06055.14648.14648.33789.21973.53027.21973s.38379-.07324.53027-.21973l1.01703-1.01703,1.26025,1.26019-2.56439,2.56396c-.29297.29297-.29297.76758,0,1.06055.14648.14648.33789.21973.53027.21973s.38379-.07324.53027-.21973l2.56439-2.56396,1.1485,1.14844c.4873.48779.4873,1.28223,0,1.77002Zm-11.10132,1.27301l1.06085,1.06091-.74078.74274c-.74658.74805-1.7334,1.24268-2.77881,1.39258l-5.21729.74707c-.03564.00537-.07129.00781-.10645.00781-.19727,0-.38867-.07812-.53027-.21973-.16699-.1665-.24561-.40234-.2124-.63623l.74561-5.23096c.14893-1.04639.64209-2.03467,1.38867-2.7832l.73499-.73706,1.06085,1.06091-.73383.73572c-.51953.52002-.8623,1.20752-.96533,1.93506l-.60449,4.24121,4.22705-.60498c.72559-.10449,1.41113-.44775,1.92969-.96777l.74194-.74408Zm4.40967-13.62299l-1.06085-1.06085,1.35895-1.36261c1.84277-1.84863,4.8418-1.99902,6.68652-.33545.97852.88379,1.53711,2.0957,1.57129,3.41162.03516,1.31689-.45801,2.55518-1.38672,3.48682l-1.51288,1.51654-1.06104-1.06104,1.51141-1.51508c.63672-.6377.97363-1.48584.9502-2.38818-.02344-.90137-.40625-1.73145-1.07812-2.3374-1.25684-1.13672-3.33008-1.00977-4.61816.28174l-1.3606,1.36389Z" stroke-width="0"/></svg>