<?xml version="1.0" encoding="UTF-8"?><svg id="a" xmlns="http://www.w3.org/2000/svg" width="24" height="24" viewBox="0 0 24 24"><path d="m21.53025,20.46989l-3.3418-3.3418c-.00043-.00043-.00055-.00104-.00098-.00146s-.00104-.00055-.00146-.00098l-8.48291-8.48291c-.00043-.00043-.00055-.00104-.00098-.00146s-.00104-.00055-.00146-.00098L3.53025,2.46989c-.21484-.21484-.53711-.2793-.81738-.1626-.28027.11621-.46289.38965-.46289.69287v18c0,.41406.33594.75.75.75h18c.30371,0,.57715-.18262.69336-.46289.11523-.28027.05176-.60303-.16309-.81738Zm-17.78027-.21973V4.81071l1.53247,1.53247-.88403.88403c-.29297.29297-.29297.76758,0,1.06055.14648.14648.33789.21973.53027.21973s.38379-.07324.53027-.21973l.88403-.88403,1.76819,1.76819-.88367.88391c-.29297.29297-.29297.76807,0,1.06055.14648.14648.33789.21973.53027.21973s.38379-.07324.53027-.21973l.88367-.88391,1.7677,1.7677-.88379.88379c-.29297.29297-.29297.76758,0,1.06055.14648.14648.33789.21973.53027.21973s.38379-.07324.53027-.21973l.88379-.88379,1.76782,1.76782-.88403.88403c-.29297.29297-.29297.76758,0,1.06055.14648.14648.33789.21973.53027.21973s.38379-.07324.53027-.21973l.88403-.88403,1.76801,1.76801-.88446.88409c-.29297.29248-.29297.76758,0,1.06055.14648.14648.33789.21973.53027.21973s.38379-.07324.53027-.21973l.88446-.88409,1.53253,1.53253H3.74998Zm6.19104-3.27386c.12598.12598.03674.34143-.14142.34143h-2.91718c-.11047,0-.20001-.08954-.20001-.20001v-2.91718c0-.17816.21545-.2674.34143-.14142l2.91718,2.91718Z" stroke-width="0"/></svg>