<?xml version="1.0" encoding="UTF-8"?><svg id="a" xmlns="http://www.w3.org/2000/svg" width="24" height="24" viewBox="0 0 24 24"><path d="m22.53027,9.46973l-6-6c-.14062-.14062-.33154-.21973-.53027-.21973h-2c-.41406,0-.75.33594-.75.75s.33594.75.75.75h1.68945l4.5,4.5H3.81055l4.5-4.5h1.68945c.41406,0,.75-.33594.75-.75s-.33594-.75-.75-.75h-2c-.19873,0-.38965.0791-.53027.21973L1.46973,9.46973c-.06909.06909-.12378.15198-.1618.24365-.03796.09167-.05792.18896-.05792.28662v6.39355c0,2.40234,1.9541,4.35645,4.35645,4.35645h1.67188c2.13867,0,3.9458-1.53125,4.29688-3.63965.06934-.41797.78027-.41699.84961-.00098.35107,2.10938,2.1582,3.64062,4.29688,3.64062h1.67188c2.40234,0,4.35645-1.9541,4.35645-4.35645v-6.39355c0-.09766-.01996-.19495-.05792-.28662-.03802-.09167-.09271-.17456-.1618-.24365Zm-1.28027,6.92383c0,1.5752-1.28125,2.85645-2.85645,2.85645h-1.67188c-1.40234,0-2.58691-1.00391-2.81738-2.3877-.15625-.93457-.95703-1.6123-1.9043-1.6123s-1.74805.67773-1.9043,1.61328c-.23047,1.38281-1.41504,2.38672-2.81738,2.38672h-1.67188c-1.5752,0-2.85645-1.28125-2.85645-2.85645v-2.64355h18.5v2.64355Zm0-4.14355H2.75v-1.5h18.5v1.5Z" stroke-width="0"/></svg>