<?xml version="1.0" encoding="UTF-8"?><svg id="a" xmlns="http://www.w3.org/2000/svg" width="24" height="24" viewBox="0 0 24 24"><path d="m6.25,3.97888c0,3.06299,2.04199,4.75,5.75,4.75s5.75-1.68701,5.75-4.75C17.75.36853,6.25.36853,6.25,3.97888Zm5.75,3.25c-4.25,0-4.25-2.44629-4.25-3.25,0-.32129,1.46143-1.25,4.25-1.25s4.25.92871,4.25,1.25c0,.80371,0,3.25-4.25,3.25Zm3.17432,2.27808c-.9165.32001-1.97675.49304-3.17432.49304-.91943,0-1.75586-.10425-2.51196-.29492l.04578.49921-.18811.04706c-.40186.10059-.646.50781-.54541.90967.08496.34082.39111.56787.72705.56787.04755,0,.09619-.00836.14459-.01776l.14142,1.54236c-.39893.10272-.64105.50739-.54089.90753.08044.32227.36084.53668.67542.5592l.12982,1.41571c-.26215.16931-.40576.48474-.32574.80438.06.2406.23285.41962.44598.50714l.05499.59979c.00391.03809.01025.07568.01953.11279l.99658,4c.08301.33398.38281.56836.72705.56885h.00049c.34375,0,.64355-.23389.72754-.56738l1.00342-4c.00928-.0376.01562-.07568.01953-.11426l.1272-1.38531c.3407-.13831.54425-.49774.45239-.86469-.04895-.19653-.1723-.35321-.33142-.45227l.1496-1.62921.03729-.00934c.40186-.10059.646-.50781.54541-.90967-.0603-.24158-.23724-.41376-.45233-.50055l.16272-1.77203.21637-.05408c.40186-.10059.646-.50781.54541-.90967-.005-.02002-.01605-.03613-.02539-.05347Zm-2.91602,8.34546l-.25928,1.03418-.25732-1.0332-.05713-.62299.64569-.16144-.07196.78345Zm.21722-2.3656l-.9295.2323-.12128-1.32336,1.17804-.29449-.12726,1.38556Zm.27258-2.96802l-1.46198.36548-.14087-1.53674,1.75061-.43774-.14777,1.60901Z" stroke-width="0"/></svg>