<?xml version="1.0" encoding="UTF-8"?><svg id="a" xmlns="http://www.w3.org/2000/svg" width="24" height="24" viewBox="0 0 24 24"><path d="m22.52956,3.25453l-1.78418-1.78467c-.24414-.24414-.62207-.29004-.91602-.11279l-4.46191,2.67676c-.15332.0918-.26953.23584-.32617.40576l-.89258,2.67676c-.08984.26953-.01953.56689.18164.76758l.36237.36224-4.36023,4.36023c-1.26178-.77948-2.93927-.63135-4.03241.46307l-4.46289,4.46191c-.78223.78467-.78223,2.06055.00098,2.84473l1.78516,1.78516c.37988.37939.88574.58887,1.42285.58887s1.04199-.20947,1.42188-.58936l4.46191-4.46143c1.0932-1.0932,1.24249-2.77069.46313-4.03247l4.36029-4.36029.36212.362c.14258.14307.33496.21973.53027.21973.0791,0,.15918-.0127.2373-.03857l2.67676-.89209c.16992-.05664.31348-.17188.40625-.32568l2.67676-4.46143c.17676-.29492.12988-.67285-.11328-.91602Zm-12.66016,13.38428l-4.46191,4.46143c-.19336.19336-.53027.19336-.72363,0l-1.78516-1.78467c-.19922-.19922-.19922-.52441,0-.72412l4.46191-4.46143c.3457-.3457.7998-.51855,1.25488-.51855.4541,0,.9082.17285,1.25391.51855.69141.69189.69141,1.81738,0,2.50879Zm8.95312-9.0166l-1.97461.6582-1.12891-1.12939.6582-1.97363,3.72168-2.23291.95605.95654-2.23242,3.72119Z" stroke-width="0"/></svg>