<?xml version="1.0" encoding="UTF-8"?><svg id="a" xmlns="http://www.w3.org/2000/svg" width="24" height="24" viewBox="0 0 24 24"><path d="m22.21875,3.28778l-1.50684-1.50684c-.70703-.70801-1.85889-.70703-2.56787,0l-.67188.67285c-.96356.96356-1.16431,2.43848-.53271,3.54639l-5.04443,5.04443-1.30713-1.30713c-.93701-.93652-2.38379-1.11426-3.51904-.43311l-4.93652,2.96191c-.48291.28955-.79932.77637-.86816,1.33545-.06885.55859.12012,1.10693.51807,1.50488l7.11084,7.11084c.34424.34424.80127.53223,1.27979.53223.07471,0,.1499-.00488.2251-.01416.55859-.06836,1.04541-.38477,1.33545-.86768l2.96191-4.93701c.68115-1.13574.50342-2.58301-.43311-3.51904l-1.30664-1.30664,5.03827-5.03827c.36462.21014.77289.34149,1.20099.37616.07861.00635.15625.00928.23438.00928.76172,0,1.49316-.30078,2.03613-.84375l.75342-.75342c.70801-.70801.70801-1.85938,0-2.56738Zm-9.01709,11.18457c.44873.44873.53418,1.14258.20752,1.68701l-2.96191,4.93652c-.06885.11523-.17529.14404-.23193.15088-.05811.0083-.16602.00537-.26172-.08984l-7.11084-7.11084c-.09424-.09473-.09668-.20459-.08984-.26123.00732-.05713.03613-.16357.15088-.23242l4.93652-2.96191c.22119-.13232.4668-.19727.71094-.19727.35693,0,.70947.13818.97607.40479l3.67432,3.67432Zm7.95654-9.67773l-.75342.75342c-.28711.28662-.68164.43115-1.08887.3999-.41016-.0332-.77197-.23975-1.01807-.58203-.38574-.53564-.28516-1.33154.23535-1.85156l.67139-.67236c.06201-.06152.14307-.09277.22363-.09277.08105,0,.16162.03076.22314.09229l1.50684,1.50684c.12305.12305.12305.32324,0,.44629Zm-12.12305,8.9707l-1.50684,1.50684c-.14648.14648-.33838.21973-.53027.21973s-.38379-.07324-.53027-.21973c-.29297-.29297-.29297-.76758,0-1.06055l1.50684-1.50684c.29297-.29297.76758-.29297,1.06055,0s.29297.76758,0,1.06055Zm-.30762,2.70605l1.50684-1.50684c.29297-.29297.76758-.29297,1.06055,0s.29297.76758,0,1.06055l-1.50684,1.50684c-.14648.14648-.33838.21973-.53027.21973s-.38379-.07324-.53027-.21973c-.29297-.29297-.29297-.76758,0-1.06055Z" stroke-width="0"/></svg>