<?xml version="1.0" encoding="UTF-8"?><svg id="a" xmlns="http://www.w3.org/2000/svg" width="24" height="24" viewBox="0 0 24 24"><path d="m20.43068,1.80322c-.77148-.77148-2.02734-.77148-2.79883,0l-.77637.77637c-1.0968,1.0968-1.30933,2.78638-.55225,4.02881l-5.96338,5.96338-1.20801-1.20801c-1.21191-1.21191-3.3252-1.21191-4.53711,0l-1.55811,1.55811c-2.16113,2.16113-2.39062,5.59668-.52148,7.82129,1.03906,1.2373,2.49561,1.95703,4.10059,2.02686.08154.00342.16309.00537.24463.00537,1.49756,0,2.94727-.59717,4.00977-1.65967l1.73828-1.73828c1.25098-1.25098,1.25098-3.28613,0-4.53711l-1.20801-1.20801,5.96277-5.96277c.42456.25995.90186.42834,1.40784.46912.0874.00732.17432.01074.26074.01074.84814,0,1.66309-.33496,2.26807-.93994l.86914-.86914c.37402-.37354.57959-.87061.57959-1.39941s-.20557-1.02588-.57959-1.39941l-1.73828-1.73828Zm-8.88281,14.09766c.66602.66602.66602,1.75,0,2.41602l-1.73828,1.73828c-.82373.82373-1.97217,1.26709-3.12891,1.21631-1.17969-.05127-2.25146-.58154-3.01709-1.49316-1.37256-1.63428-1.18213-4.17969.43359-5.7959l1.55811-1.55811c.33301-.33301.77051-.49951,1.20801-.49951s.875.1665,1.20801.49951l1.20801,1.20801-1.20801,1.20801c-.29297.29297-.29297.76758,0,1.06055.14648.14648.33838.21973.53027.21973s.38379-.07324.53027-.21973l1.20801-1.20801,1.20801,1.20801Zm9.56055-10.62109l-.86914.86914c-.35449.35498-.83984.5415-1.34717.49463-.50781-.04102-.95459-.2959-1.25879-.71826-.47754-.66357-.35645-1.646.28271-2.28516l.77637-.77637c.09326-.09326.21631-.14014.33887-.14014s.24561.04688.33887.14014l1.73828,1.73828c.09033.09033.14014.21094.14014.33887s-.0498.24854-.14014.33887Z" stroke-width="0"/></svg>