<?xml version="1.0" encoding="UTF-8"?><svg id="a" xmlns="http://www.w3.org/2000/svg" width="24" height="24" viewBox="0 0 24 24"><path d="m22,11.25h-9.25v-4.5h1.5v1.25c0,.41406.33594.75.75.75s.75-.33594.75-.75v-1.25h1.5v1.25c0,.41406.33594.75.75.75s.75-.33594.75-.75v-1.25h1.5v1.25c0,.41406.33594.75.75.75s.75-.33594.75-.75v-1.25h.25c.41406,0,.75-.33594.75-.75s-.33594-.75-.75-.75h-9.25v-1.25c0-.41406-.33594-.75-.75-.75s-.75.33594-.75.75v2.25h-4.5v-2.25c0-.41406-.33594-.75-.75-.75s-.75.33594-.75.75v1.25h-3.25c-.41406,0-.75.33594-.75.75v7c0,.0957.01855.19043.05371.27832l2,5c.03809.09473.09375.18066.16602.25195l2,2c.14355.14355.33496.21973.53027.21973.09668,0,.19434-.01855.28711-.05664.28027-.11621.46289-.38965.46289-.69336v-8.25h4.5v8.25c0,.30371.18262.57715.46289.69336.09277.03809.19043.05664.28711.05664.19531,0,.38672-.07617.53027-.21973l2-2c.08203-.08203.14453-.18262.18164-.29297l1.8291-5.4873h5.45898c.41406,0,.75-.33594.75-.75s-.33594-.75-.75-.75ZM5.25,7v11.18945l-.61035-.61133-1.88965-4.72266v-6.10547h2.5v.25Zm6,3.25h-4.5v-2.5h1.5v1.25c0,.41406.33594.75.75.75s.75-.33594.75-.75v-1.25h1.5v2.5Zm2.09473,7.34473l-.59473.59473v-5.43945h2.20911l-1.61438,4.84473Z" stroke-width="0"/></svg>