<?xml version="1.0" encoding="UTF-8"?><svg id="a" xmlns="http://www.w3.org/2000/svg" width="24" height="24" viewBox="0 0 24 24"><path d="m18,2.75c.41406,0,.75-.33594.75-.75s-.33594-.75-.75-.75H6c-.41406,0-.75.33594-.75.75s.33594.75.75.75h.99164L1.28125,21.78467c-.11816.39648.10645.81445.50293.93359.07227.02148.14453.03174.21582.03174.32324,0,.62109-.20947.71875-.53467l.43958-1.46533h6.43335l-.31042,1.03467c-.11816.39648.10645.81445.50293.93359.07227.02148.14453.03174.21582.03174.32324,0,.62109-.20947.71875-.53467L16.55835,2.75h1.44165Zm-7.95837,16.5H3.60834l.45001-1.5h6.43329l-.45001,1.5Zm.90002-3h-6.43329l.45001-1.5h6.43329l-.45001,1.5Zm.90002-3h-6.43335l.45001-1.5h6.43329l-.44995,1.5Zm.89996-3h-6.43329l.45001-1.5h6.43329l-.45001,1.5Zm.90002-3h-6.43329l.44995-1.5h6.43335l-.45001,1.5Zm.89996-3h-6.43329l.45001-1.5h6.43329l-.45001,1.5Zm7.67419,18.46826c-.07227.02148-.14453.03174-.21582.03174-.32324,0-.62109-.20947-.71875-.53467l-.43958-1.46533h-6.43329l.31036,1.03467c.11816.39648-.10645.81445-.50293.93359-.07227.02148-.14453.03174-.21582.03174-.32324,0-.62109-.20947-.71875-.53467l-.62872-2.0957.78339-2.61121.52246,1.74158h6.43329l-.75-2.5h-5.97821l.44995-1.5h5.07825l-.75-2.5h-3.57825l.45001-1.5h2.67822l-.75-2.5h-1.17822l.45001-1.5h.2782l-.1391-.46368.78339-2.61121,5.28284,17.60956c.11816.39648-.10645.81445-.50293.93359Z" stroke-width="0"/></svg>