<?xml version="1.0" encoding="UTF-8"?><svg id="a" xmlns="http://www.w3.org/2000/svg" width="24" height="24" viewBox="0 0 24 24"><path d="m9,8.25c-2.06787,0-3.75,1.68262-3.75,3.75s1.68213,3.75,3.75,3.75,3.75-1.68262,3.75-3.75-1.68213-3.75-3.75-3.75Zm0,6c-1.24072,0-2.25-1.00977-2.25-2.25s1.00928-2.25,2.25-2.25,2.25,1.00977,2.25,2.25-1.00928,2.25-2.25,2.25Zm13,4h-8.43652c1.92737-1.41119,3.18652-3.68353,3.18652-6.25,0-4.27344-3.47656-7.75-7.75-7.75S1.25,7.72656,1.25,12s3.47656,7.75,7.75,7.75h13c.41406,0,.75-.33594.75-.75s-.33594-.75-.75-.75Zm-13,0c-3.44629,0-6.25-2.80371-6.25-6.25s2.80371-6.25,6.25-6.25,6.25,2.80371,6.25,6.25-2.80371,6.25-6.25,6.25Z" stroke-width="0"/></svg>