<?xml version="1.0" encoding="UTF-8"?><svg id="a" xmlns="http://www.w3.org/2000/svg" width="24" height="24" viewBox="0 0 24 24"><path d="m21.99999,17.2496h-3.25v-.25c0-.58789-.18359-1.14941-.53027-1.62402l-.00098-.00049c-.97461-1.3291-1.46875-2.64697-1.46875-3.91748v-.19824c0-4.1958-3.1582-7.70508-7.18945-7.98975-2.24609-.15771-4.45215.66113-6.04004,2.24951-1.58984,1.58887-2.41016,3.79053-2.25098,6.04102.28418,4.03174,3.79395,7.18945,7.99023,7.18945h11.99023v1.25c0,.41406.33594.75.75.75s.75-.33594.75-.75v-2c0-.41406-.33594-.75-.75-.75Zm-4.75,0h-7.99023c-3.41211,0-6.26465-2.54541-6.49414-5.79492-.12793-1.81641.5332-3.59326,1.81543-4.87451,1.17578-1.17627,2.76953-1.83008,4.42871-1.83008.14746,0,.29688.00537.44531.01562,3.24902.22949,5.79492,3.08203,5.79492,6.49365v.19824c0,1.59619.5918,3.21289,1.75977,4.8042.15723.21582.24023.4707.24023.73779v.25ZM8.99999,7.2496c-2.06738,0-3.75,1.68213-3.75,3.75s1.68262,3.75,3.75,3.75,3.75-1.68213,3.75-3.75-1.68262-3.75-3.75-3.75Zm0,6c-1.24023,0-2.25-1.00928-2.25-2.25s1.00977-2.25,2.25-2.25,2.25,1.00928,2.25,2.25-1.00977,2.25-2.25,2.25Z" stroke-width="0"/></svg>