<?xml version="1.0" encoding="UTF-8"?><svg id="a" xmlns="http://www.w3.org/2000/svg" width="24" height="24" viewBox="0 0 24 24"><path d="m22.61426,15.57031c-.03418-.0498-3.44922-4.96387-4.896-9.78613-.09521-.31738-.38721-.53418-.71826-.53418-5.07715,0-7.43506-1.76172-7.5332-1.83691-.00269-.00208-.00604-.00226-.00879-.00427-.1283-.09943-.28717-.15881-.45801-.15881-.33154,0-.62354.21777-.71875.53516l-.13184.44238c-1.15869,3.8833-3.00476,10.06506-5.39941,13.64417v-1.8717c0-.41406-.33594-.75-.75-.75s-.75.33594-.75.75v4c0,.41406.33594.75.75.75h20c.41406,0,.75-.33594.75-.75v-4c0-.15332-.04736-.30371-.13574-.42969Zm-19.00647,3.67969c2.33459-3.18011,4.14221-8.55133,5.39221-12.64355,1.25018,4.09387,3.0575,9.46375,5.39185,12.64355H3.60779Zm17.64221,0h-4.5v-3.25c0-.41406-.33594-.75-.75-.75s-.75.33594-.75.75v1.87207c-2.14325-3.20227-3.84454-8.48285-5.00977-12.3446,1.29321.54901,3.33893,1.14667,6.20654,1.2157,1.4248,4.36816,4.15527,8.53418,4.80322,9.48926v3.01758Z" stroke-width="0"/></svg>