<?xml version="1.0" encoding="UTF-8"?><svg id="a" xmlns="http://www.w3.org/2000/svg" width="24" height="24" viewBox="0 0 24 24"><path d="m21.71826,9.81445s0-.00098-.00049-.00098l-3.70068-2.95996c-.48535-.38965-1.0957-.60352-1.71875-.60352H7.70166c-.62305,0-1.2334.21387-1.71777.60254l-3.70215,2.96191c-.65576.52539-1.03174,1.30762-1.03174,2.14648v7.03906c0,1.5166,1.2334,2.75,2.75,2.75h16c1.5166,0,2.75-1.2334,2.75-2.75v-7.03906c0-.83887-.37598-1.62109-1.03174-2.14648Zm-.46826,9.18555c0,.68945-.56055,1.25-1.25,1.25H4c-.68945,0-1.25-.56055-1.25-1.25v-4.25h4.5v1.25c0,.41406.33594.75.75.75s.75-.33594.75-.75v-1.25h6.5v1.25c0,.41406.33594.75.75.75s.75-.33594.75-.75v-1.25h4.5v4.25Zm0-5.75h-4.5v-1.25c0-.41406-.33594-.75-.75-.75s-.75.33594-.75.75v1.25h-6.5v-1.25c0-.41406-.33594-.75-.75-.75s-.75.33594-.75.75v1.25H2.75v-1.28906c0-.38184.1709-.7373.46875-.97559l3.70264-2.96191c.22021-.17578.49707-.27344.78027-.27344h8.59668c.2832,0,.56006.09766.78125.27441l3.70166,2.96094c.29785.23926.46875.59473.46875.97559v1.28906ZM7.70166,5c-.15192,0-.30157.02136-.45166.03857v-.03857c0-1.5166,1.2334-2.75,2.75-2.75h4c1.5166,0,2.75,1.2334,2.75,2.75v.03851c-.15009-.01721-.2998-.03851-.45166-.03851h-1.04834c0-.68945-.56055-1.25-1.25-1.25h-4c-.68945,0-1.25.56055-1.25,1.25h-1.04834Z" stroke-width="0"/></svg>