<?xml version="1.0" encoding="UTF-8"?><svg id="a" xmlns="http://www.w3.org/2000/svg" width="24" height="24" viewBox="0 0 24 24"><path d="m22.75,22c0,.41406-.33594.75-.75.75H2c-.41406,0-.75-.33594-.75-.75s.33594-.75.75-.75h20c.41406,0,.75.33594.75.75Zm-17.22034-2h-1.59723L10.36084,2.41357c.25879-.70703.90186-1.16357,1.63916-1.16357s1.38037.45654,1.63916,1.16309v.00049l6.42841,17.58643h-1.59723l-1.18805-3.25H6.71771l-1.18805,3.25Zm4.66071-12.75h3.61926l-1.57965-4.32129c-.10742-.2959-.35254-.2959-.45996,0l-1.57965,4.32129Zm-2.92438,8h9.46802l-2.3761-6.5h-4.71582l-2.3761,6.5Z" stroke-width="0"/></svg>