<?xml version="1.0" encoding="UTF-8"?><svg id="a" xmlns="http://www.w3.org/2000/svg" width="24" height="24" viewBox="0 0 24 24"><path d="m16.90486,1.81848l-5.05811,5.05811c-.75732.75732-.75732,1.98975,0,2.74707.00085.00085.00177.00134.00262.00214l1.11212,1.11261c.23633.23633.36621.5498.36621.88379s-.12988.64746-.36621.88379l-1.42773,1.42773-2.21436-2.21436c-.40381-.40332-.97607-.56494-1.53223-.43555-.55615.13135-.99609.53271-1.17676,1.07471l-2.74609,8.23633c-.19727.5918-.0459,1.23291.39502,1.67432.31299.31299.72705.47998,1.15283.47998.17383,0,.34961-.02783.52148-.08496l8.23535-2.74658c.54199-.18018.94434-.61963,1.07568-1.17578.13135-.55566-.03174-1.12891-.43555-1.53271l-2.21484-2.21484,1.42773-1.42773c.51953-.51904.80566-1.20947.80566-1.94434,0-.63263-.22321-1.2251-.61365-1.71094.1344-.08026.26361-.17206.37927-.2876l5.05811-5.05811c.3667-.3667.56934-.85449.56934-1.37354s-.20215-1.00684-.56934-1.37354c-.75684-.75684-1.98877-.75684-2.74658,0Zm-3.15625,16.45117c.03564.03564.04785.07861.03613.12744s-.0415.08154-.08984.09766l-8.23584,2.74658c-.02002.00635-.08008.02637-.13916-.03271-.05908-.05957-.03906-.11963-.03271-.13916l2.74609-8.23633c.01611-.04785.04883-.07764.09814-.08936.01172-.00293.02344-.00439.03467-.00439.03467,0,.06592.01367.09277.04053l2.21436,2.21436-1.15576,1.15576c-.29297.29297-.29297.76758,0,1.06055.14648.14648.33838.21973.53027.21973s.38379-.07324.53027-.21973l1.15576-1.15576,2.21484,2.21484Zm4.84229-14.76514l-5.05811,5.05811c-.17145.17242-.45209.17206-.62402.00146l-.00146-.00146c-.00018-.00018-.00037-.00018-.00055-.00037-.17163-.17249-.17157-.45251.00055-.62512l5.05811-5.05762c.08594-.08643.19971-.12939.31299-.12939s.22656.04297.3125.12891c.0835.0835.12988.19482.12988.31299,0,.11768-.04639.229-.12988.3125Z" stroke-width="0"/></svg>