<?xml version="1.0" encoding="UTF-8"?><svg id="a" xmlns="http://www.w3.org/2000/svg" width="24" height="24" viewBox="0 0 24 24"><path d="m2.0752,7.33664l6.51367,3.25586c.2124.10645.44092.15918.66846.15918.27197,0,.54297-.0752.78418-.22461.44385-.27441.7085-.74902.7085-1.27051v-2.50586h1.57227c1.33887,0,2.42773-1.08887,2.42773-2.42773,0-.31543.25684-.57227.57227-.57227h5.67773c.41406,0,.75-.33594.75-.75s-.33594-.75-.75-.75h-5.67773c-1.14258,0-2.07227.92969-2.07227,2.07227,0,.51172-.41602.92773-.92773.92773h-1.57227v-2.50586c0-.52148-.26465-.99609-.7085-1.27051-.44287-.27441-.98633-.2998-1.45264-.06543l-6.51416,3.25586c-.50879.25488-.82471.76758-.82471,1.33594s.31592,1.08105.8252,1.33594Zm7.1748-4.58105l.00372,2.49512h-1.25372c-.41406,0-.75.33594-.75.75s.33594.75.75.75h1.25598l.00378,2.5-6.51367-3.24414,6.50391-3.25098Zm11.75,14.49512h-3.25v-2.25c0-.96484-.78516-1.75-1.75-1.75h-8c-.96484,0-1.75.78516-1.75,1.75v2.25h-3.25c-.96484,0-1.75.78516-1.75,1.75v2c0,.96484.78516,1.75,1.75,1.75h18c.96484,0,1.75-.78516,1.75-1.75v-2c0-.96484-.78516-1.75-1.75-1.75Zm-9.75,4H3c-.1377,0-.25-.1123-.25-.25v-2c0-.1377.1123-.25.25-.25h8.25v2.5Zm-3.5-4v-2.25c0-.1377.1123-.25.25-.25h8c.1377,0,.25.1123.25.25v2.25H7.75Zm13.5,3.75c0,.1377-.1123.25-.25.25h-8.25v-2.5h8.25c.1377,0,.25.1123.25.25v2Z" stroke-width="0"/></svg>