<?xml version="1.0" encoding="UTF-8"?><svg id="a" xmlns="http://www.w3.org/2000/svg" width="24" height="24" viewBox="0 0 24 24"><path d="m2.07526,7.33664l6.51367,3.25586c.2124.10645.44092.15918.66846.15918.27197,0,.54297-.0752.78418-.22461.44385-.27441.7085-.74902.7085-1.27051v-2.50586h1.57227c1.33887,0,2.42773-1.08887,2.42773-2.42773,0-.31543.25684-.57227.57227-.57227h5.67773c.41406,0,.75-.33594.75-.75s-.33594-.75-.75-.75h-5.67773c-1.14258,0-2.07227.92969-2.07227,2.07227,0,.51172-.41602.92773-.92773.92773h-1.57227v-2.50586c0-.52148-.26465-.99609-.7085-1.27051-.44287-.27441-.98633-.2998-1.45264-.06543l-6.51416,3.25586c-.50879.25488-.82471.76758-.82471,1.33594s.31592,1.08105.8252,1.33594Zm7.1748-4.58105l.00372,2.49512h-1.25372c-.41406,0-.75.33594-.75.75s.33594.75.75.75h1.25598l.00378,2.5-6.51367-3.24414,6.50391-3.25098Zm13.33545,18.77637l-6.75-8.43848h-.00049c-.93652-1.1709-2.33447-1.84277-3.83496-1.84277-1.5,0-2.89795.67188-3.83496,1.84277L1.41461,21.53195c-.18018.22559-.21533.53418-.09033.79395.12451.25977.3877.4248.67578.4248h20c.28809,0,.55127-.16504.67578-.4248.125-.25977.08984-.56836-.09033-.79395Zm-19.0249-.28125l5.77539-7.21973c.65137-.81348,1.62207-1.28027,2.66406-1.28027,1.04248,0,2.01318.4668,2.66357,1.28027h.00049l5.77539,7.21973H3.56061Z" stroke-width="0"/></svg>