<?xml version="1.0" encoding="UTF-8"?><svg id="a" xmlns="http://www.w3.org/2000/svg" width="24" height="24" viewBox="0 0 24 24"><path d="m22.33496,13.3291l-4-2c-.21094-.10547-.45898-.10547-.66992,0l-4,2c-.25488.12695-.41504.38672-.41504.6709,0,3.36523,1.60742,6.58008,4.2998,8.59961.13379.10059.29199.15039.4502.15039s.31641-.0498.4502-.15039c2.69238-2.01953,4.2998-5.23438,4.2998-8.59961,0-.28418-.16016-.54395-.41504-.6709Zm-4.33496,7.71094c-1.92871-1.64844-3.11035-4.04688-3.23828-6.58203l3.23828-1.61914,3.23828,1.61914c-.12793,2.53516-1.30957,4.93359-3.23828,6.58203Zm-.5-4.60059l1.46973-1.46973c.29297-.29297.76758-.29297,1.06055,0s.29297.76758,0,1.06055l-2,2c-.14648.14648-.33789.21973-.53027.21973s-.38379-.07324-.53027-.21973l-1-1c-.29297-.29297-.29297-.76758,0-1.06055s.76758-.29297,1.06055,0l.46973.46973Zm-5.34088-.61407c.08936.57257.22162,1.13403.39142,1.68463l-1.80054,1.80054v2.68945c0,.41406-.33594.75-.75.75s-.75-.33594-.75-.75v-2.68945l-2.19434-2.19434c-.23242-.23242-.55469-.36621-.88379-.36621h-.17188c-1.79199,0-3.25,1.45801-3.25,3.25v2c0,.41406-.33594.75-.75.75s-.75-.33594-.75-.75v-2c0-2.61914,2.13086-4.75,4.75-4.75h.17188c.73438,0,1.4248.28613,1.94434.80566l1.88379,1.88379,1.88379-1.88379c.08502-.08502.18048-.15735.27533-.23029Zm2.59088-5.82538v-1.25h1.25c.41406,0,.75-.33594.75-.75s-.33594-.75-.75-.75h-.30463c-.33704-2.57074-2.37463-4.60834-4.94537-4.94537v-.30463c0-.41406-.33594-.75-.75-.75s-.75.33594-.75.75v.30463c-2.57074.33704-4.60834,2.37463-4.94537,4.94537h-.30463c-.41406,0-.75.33594-.75.75s.33594.75.75.75h1.25v1.25c0,2.61914,2.13086,4.75,4.75,4.75.72363,0,1.4024-.17548,2.01685-.46613-.00232-.09509-.01685-.18854-.01685-.28387,0-.75781.42773-1.4502,1.10547-1.78906l1.37073-.68536c.16479-.48151.2738-.98889.2738-1.52557Zm-8.93359-2.75c.31189-1.74365,1.69019-3.12073,3.43359-3.43243v3.43243h-3.43359Zm7.43359,2.75c0,1.79199-1.45801,3.25-3.25,3.25s-3.25-1.45801-3.25-3.25v-1.25h6.5v1.25Zm-2.5-2.75v-3.43243c1.74341.31171,3.1217,1.68878,3.43359,3.43243h-3.43359Z" stroke-width="0"/></svg>