<?xml version="1.0" encoding="UTF-8"?><svg id="a" xmlns="http://www.w3.org/2000/svg" width="24" height="24" viewBox="0 0 24 24"><path d="m19.94434,8.88379l-.82812-.82764c-.23633-.23682-.36621-.55127-.36621-.88477v-3.17139c0-1.5166-1.2334-2.75-2.75-2.75-.01221,0-.02271.00732-.03485.00793-.08966.00403-.17761.02258-.26263.05981-.01019.00446-.02155.0047-.03156.00958-.00189.00092-.00403.00079-.00592.00177-2.29492,1.14746-5.03516,1.14746-7.33008,0-.00189-.00098-.00403-.00085-.00592-.00177-.01013-.00494-.02155-.00519-.03186-.00964-.08502-.03711-.17297-.05573-.26245-.05975-.01208-.00061-.02258-.00793-.03473-.00793-1.5166,0-2.75,1.2334-2.75,2.75v3.17139c0,.3335-.12988.64746-.36621.88379l-.82812.8291c-.51953.51953-.80566,1.21045-.80566,1.94434v9.17139c0,1.5166,1.2334,2.75,2.75,2.75h4c.79004,0,1.49799-.33936,2-.87445.50201.5351,1.20996.87445,2,.87445h4c1.5166,0,2.75-1.2334,2.75-2.75v-9.17139c0-.73486-.28613-1.42529-.80566-1.94482Zm-8.69434,11.11621c0,.68945-.56055,1.25-1.25,1.25h-4c-.68945,0-1.25-.56055-1.25-1.25v-9.17139c0-.3335.12988-.64795.36621-.88428l.82812-.82861c.51953-.51953.80566-1.20996.80566-1.94434v-3.17139c0-.57654.39252-1.06262.92352-1.20691l3.57648,4.47058v12.73633Zm-1.07532-16.48279c1.20447.22827,2.44617.22827,3.65063,0l-1.82532,2.28162-1.82532-2.28162Zm9.07532,16.48279c0,.68945-.56055,1.25-1.25,1.25h-4c-.68945,0-1.25-.56055-1.25-1.25V7.26367l3.57648-4.47058c.53101.14429.92352.63037.92352,1.20691v3.17139c0,.73389.28613,1.4248.80566,1.94482l.82812.82812c.23633.23633.36621.55029.36621.88428v9.17139Zm-1.71973-2.96973l-.46973.46973.46973.46973c.29297.29297.29297.76758,0,1.06055-.14648.14648-.33789.21973-.53027.21973s-.38379-.07324-.53027-.21973l-.46973-.46973-.46973.46973c-.14648.14648-.33789.21973-.53027.21973s-.38379-.07324-.53027-.21973c-.29297-.29297-.29297-.76758,0-1.06055l.46973-.46973-.46973-.46973c-.29297-.29297-.29297-.76758,0-1.06055s.76758-.29297,1.06055,0l.46973.46973.46973-.46973c.29297-.29297.76758-.29297,1.06055,0s.29297.76758,0,1.06055Zm-10-6.56055l.46973.46973.46973-.46973c.29297-.29297.76758-.29297,1.06055,0s.29297.76758,0,1.06055l-.46973.46973.46973.46973c.29297.29297.29297.76758,0,1.06055-.14648.14648-.33789.21973-.53027.21973s-.38379-.07324-.53027-.21973l-.46973-.46973-.46973.46973c-.14648.14648-.33789.21973-.53027.21973s-.38379-.07324-.53027-.21973c-.29297-.29297-.29297-.76758,0-1.06055l.46973-.46973-.46973-.46973c-.29297-.29297-.29297-.76758,0-1.06055s.76758-.29297,1.06055,0Zm1.96973,6.53027c0,.82843-.67157,1.5-1.5,1.5s-1.5-.67157-1.5-1.5.67157-1.5,1.5-1.5,1.5.67157,1.5,1.5Zm5-4.5c0-.82843.67157-1.5,1.5-1.5s1.5.67157,1.5,1.5-.67157,1.5-1.5,1.5-1.5-.67157-1.5-1.5Z" stroke-width="0"/></svg>