<?xml version="1.0" encoding="UTF-8"?><svg id="a" xmlns="http://www.w3.org/2000/svg" width="24" height="24" viewBox="0 0 24 24"><path d="m19.11621,8.05615c-.23633-.23682-.36621-.55127-.36621-.88477v-3.17139c0-1.5166-1.2334-2.75-2.75-2.75-.01221,0-.02271.00732-.03485.00793-.08966.00403-.17761.02258-.26263.05981-.01019.00446-.02155.0047-.03156.00958-.00189.00092-.00403.00079-.00592.00177-2.29395,1.14746-5.03418,1.14746-7.32959,0-.00208-.00104-.00446-.00092-.00653-.00195-.00964-.0047-.02057-.00494-.03046-.00922-.08612-.03766-.1748-.05627-.26477-.06024-.01172-.00055-.02185-.00769-.03369-.00769-1.5166,0-2.75,1.2334-2.75,2.75v3.17139c0,.33398-.12988.64795-.36572.88379l-.8291.8291c-.51904.51953-.80518,1.21045-.80518,1.94434v9.17139c0,1.5166,1.2334,2.75,2.75,2.75h4c.79004,0,1.49799-.33936,2-.87445.50201.5351,1.20996.87445,2,.87445h4c1.5166,0,2.75-1.2334,2.75-2.75v-9.17139c0-.73486-.28613-1.42529-.80566-1.94482l-.82812-.82764Zm-7.86621,11.94385c0,.68945-.56055,1.25-1.25,1.25h-4c-.68945,0-1.25-.56055-1.25-1.25v-9.17139c0-.3335.13037-.64795.36621-.88428l.82861-.82861c.51904-.51904.80518-1.20947.80518-1.94434v-3.17139c0-.57666.39258-1.06299.92383-1.20703l3.57617,4.47021v12.73682Zm.75-14.20068l-.45654-.57056-1.36932-1.71161c1.20569.22845,2.44666.22839,3.65137.00006l-1.74756,2.18469-.07794.09741Zm7.25,14.20068c0,.68945-.56055,1.25-1.25,1.25h-4c-.68945,0-1.25-.56055-1.25-1.25V7.26318l.63556-.79443,2.94086-3.67566c.53101.14417.92358.63037.92358,1.20691v3.17139c0,.73389.28613,1.4248.80566,1.94482l.82812.82812c.23633.23633.36621.55029.36621.88428v9.17139Zm-9.25-7.5v1c0,.27612-.22388.5-.5.5h-3c-.27612,0-.5-.22388-.5-.5v-1c0-.27618.22388-.5.5-.5h3c.27612,0,.5.22382.5.5Zm0,4v1c0,.27612-.22388.5-.5.5h-3c-.27612,0-.5-.22388-.5-.5v-1c0-.27618.22388-.5.5-.5h3c.27612,0,.5.22382.5.5Zm8-4v1c0,.27612-.22388.5-.5.5h-3c-.27612,0-.5-.22388-.5-.5v-1c0-.27618.22388-.5.5-.5h3c.27612,0,.5.22382.5.5Zm0,4v1c0,.27612-.22388.5-.5.5h-3c-.27612,0-.5-.22388-.5-.5v-1c0-.27618.22388-.5.5-.5h3c.27612,0,.5.22382.5.5Z" stroke-width="0"/></svg>