<?xml version="1.0" encoding="UTF-8"?><svg id="a" xmlns="http://www.w3.org/2000/svg" width="24" height="24" viewBox="0 0 24 24"><path d="m22.69623,5.72168c-.15332-.38477-.5918-.5708-.97461-.41797l-3.74316,1.49707c-1.04016.41656-1.71387,1.40442-1.7262,2.52246-.15619-.04498-.31836-.07324-.48669-.07324H3.00141c-.61084,0-1.16748.31006-1.48877.83008-.32129.51953-.34961,1.15625-.07666,1.70264l2.17535,4.35071c-.82471.68842-1.36139,1.71075-1.36139,2.86658,0,2.06787,1.68213,3.75,3.75,3.75s3.75-1.68213,3.75-3.75c0-.08563-.01959-.16583-.02527-.25h2.42224c.30182,0,.58911-.06024.86444-.15118l.98859,1.31818c.3916.52148,1.01465.83301,1.66699.83301,1.14844,0,2.08301-.93457,2.08301-2.0835v-9.3125c0-.51416.30859-.96973.78516-1.16064l3.74316-1.49707c.38477-.15381.57227-.59033.41797-.97461ZM5.99994,21.25c-1.24072,0-2.25-1.00928-2.25-2.25s1.00928-2.25,2.25-2.25,2.25,1.00928,2.25,2.25-1.00928,2.25-2.25,2.25Zm7.26465-4.69043c-.21289.42578-.64062.69043-1.11768.69043h-2.85065c-.63129-1.18359-1.86377-2-3.29633-2-.37299,0-.7262.07141-1.06647.17328l-2.1557-4.31146c-.0542-.1084-.0166-.19922.01074-.24316.02734-.04443.09131-.11865.21289-.11865h12.76416c.12109,0,.18457.07422.21191.11816.02734.04443.06543.13477.01074.24365l-2.72363,5.44775Zm2.98535,2.10693c0,.32178-.26172.5835-.58301.5835-.18262,0-.35742-.0874-.46777-.23291l-.94977-1.26654c.13306-.16077.2608-.32782.35699-.52057l1.64355-3.2868v4.72333ZM3.00141,8c-.25781,0-.50958.03363-.75146.09552v-.09552c0-.97266.52197-1.88232,1.36182-2.37402.49756-.2915.77246-.82861.91553-1.22803.67383-1.88281,2.47168-3.14795,4.47266-3.14795s3.79883,1.26514,4.47266,3.14795c.20898.58105.5166.99414.91602,1.22754q0,.00049.00098.00049c.83887.49268,1.36035,1.40186,1.36035,2.37402h-1.5c0-.44189-.2373-.85596-.61914-1.08008-.70117-.41016-1.24414-1.10693-1.57031-2.01562-.46143-1.28857-1.69092-2.1543-3.06055-2.1543s-2.59912.86572-3.06055,2.15381c-.32568.9082-.86816,1.60547-1.56982,2.01611-.38232.22412-.61963.6377-.61963,1.08008h-.74854Z" stroke-width="0"/></svg>