<?xml version="1.0" encoding="UTF-8"?><svg id="a" xmlns="http://www.w3.org/2000/svg" width="24" height="24" viewBox="0 0 24 24"><path d="m20.75,9.32441c0,3.30518-1.86816,6.31445-4.7998,7.7998v4.87549c0,.41406-.33594.75-.75.75s-.75-.33594-.75-.75v-5.35059c0-.29785.17627-.56738.44922-.68701,2.64307-1.15723,4.35059-3.7627,4.35059-6.6377,0-2.47363-1.26416-4.74805-3.2998-6.07129v6.07129c0,.19873-.0791.38965-.21973.53027l-3.2002,3.19971c-.29297.29297-.76758.29297-1.06055,0l-3.2002-3.19971c-.14062-.14062-.21973-.33154-.21973-.53027V3.25312c-2.03564,1.32324-3.2998,3.59766-3.2998,6.07129,0,2.875,1.70752,5.48047,4.35059,6.6377.27295.11963.44922.38916.44922.68701v5.35059c0,.41406-.33594.75-.75.75s-.75-.33594-.75-.75v-4.87549c-2.93164-1.48535-4.7998-4.49463-4.7998-7.7998,0-3.47168,2.06055-6.61621,5.24902-8.01172.23145-.10059.49951-.07861.71143.05908.21191.13867.33936.375.33936.62793v7.01416l2.4502,2.44971,2.4502-2.44971V1.9997c0-.25293.12744-.48926.33936-.62793.2124-.1377.48047-.15967.71143-.05908,3.18848,1.39551,5.24902,4.54004,5.24902,8.01172Z" stroke-width="0"/></svg>