<?xml version="1.0" encoding="UTF-8"?><svg id="a" xmlns="http://www.w3.org/2000/svg" width="24" height="24" viewBox="0 0 24 24"><path d="m21.82802,4.26007c-.24805-.05078-.50488.0249-.68359.20361l-2.83496,2.83496h-1.6084v-1.6084l2.83496-2.83496c.17871-.17871.25586-.43604.2041-.68408-.05176-.24756-.22559-.45264-.46094-.54443-2.02441-.79248-4.32617-.3125-5.86035,1.2207-1.41504,1.41553-1.93262,3.48291-1.38135,5.38525l-3.80469,3.80469c-1.90186-.55273-3.96973-.03369-5.38525,1.38184-1.53418,1.53418-2.01318,3.83398-1.2207,5.85986.0918.23535.29688.40869.54443.46045.24805.05176.50537-.02441.68408-.20361l2.83496-2.83496h1.6084v1.6084l-2.83496,2.83496c-.1792.17871-.25586.43604-.20361.68408.05176.24756.2251.45264.46045.54443.64893.25391,1.32617.37744,1.99707.37744,1.42334,0,2.82031-.55566,3.86279-1.59814,1.41553-1.41553,1.93311-3.48291,1.38184-5.38525l3.8042-3.80469c1.90332.55127,3.96973.03369,5.38574-1.38184,1.53418-1.53418,2.01367-3.83398,1.2207-5.85986-.0918-.23535-.29688-.40869-.54492-.46045Zm-1.73633,5.25977c-1.1123,1.1123-2.7832,1.45996-4.25293.88428-.27734-.1084-.5918-.04248-.80371.16846l-4.4624,4.46289c-.21094.21045-.27686.52588-.16797.80371.5752,1.47021.22803,3.13965-.88477,4.25244-.81299.8125-1.92578,1.21729-3.03418,1.15186l2.09326-2.09326c.14062-.14062.21973-.33154.21973-.53027v-2.66895c0-.41406-.33594-.75-.75-.75h-2.66895c-.19873,0-.38965.0791-.53027.21973l-2.09326,2.09326c-.06494-1.1123.33936-2.22168,1.15186-3.03418,1.11182-1.11279,2.78223-1.45996,4.25244-.88477.27783.11084.59277.04248.80371-.16797l4.46338-4.46289c.20996-.21045.27637-.52588.16797-.80371-.5752-1.47021-.22852-3.13965.88379-4.25195.81348-.81299,1.91992-1.21582,3.03418-1.15234l-2.09277,2.09326c-.14062.14062-.21973.33154-.21973.53027v2.66895c0,.41406.33594.75.75.75h2.66895c.19922,0,.38965-.0791.53027-.21973l2.09277-2.09326c.06543,1.1123-.33887,2.22168-1.15137,3.03418Z" stroke-width="0"/></svg>