<?xml version="1.0" encoding="UTF-8"?><svg id="a" xmlns="http://www.w3.org/2000/svg" width="24" height="24" viewBox="0 0 24 24"><path d="m22.16114,17.5309l-4.46191-4.46143c-1.09412-1.0929-2.77057-1.24353-4.03265-.46332l-4.35999-4.35999.36237-.36224c.20117-.20068.27148-.49805.18164-.76758l-.89258-2.67676c-.05664-.16992-.17285-.31396-.32617-.40576L4.16992,1.35707c-.2959-.17725-.67188-.13135-.91602.11279l-1.78418,1.78467c-.24316.24316-.29004.62109-.11328.91602l2.67676,4.46143c.09277.15381.23633.26904.40625.32568l2.67676.89209c.07812.02588.1582.03857.2373.03857.19531,0,.3877-.07666.53027-.21973l.36212-.362,4.36029,4.36029c-.77936,1.26178-.63007,2.93927.46313,4.03247l4.46191,4.46143c.37988.37988.88477.58936,1.42188.58936s1.04297-.20947,1.42285-.58936l1.78516-1.78467c.7832-.78418.7832-2.06006,0-2.84521ZM7.15137,8.28041l-1.97461-.6582-2.23242-3.72119.95605-.95654,3.72168,2.23291.6582,1.97363-1.12891,1.12939Zm13.94922,11.03516l-1.78516,1.78418c-.19336.19434-.53027.19385-.72363.00049l-4.46191-4.46143c-.69141-.69141-.69141-1.81738,0-2.50879.69238-.69238,1.81836-.69043,2.50879,0l4.46094,4.46094c.2002.2002.2002.52539.00098.72461ZM10.91468,6.35652l-.67041-2.0105c.25452-.39087.53754-.76648.87585-1.10468,1.91309-1.91211,4.77832-2.5083,7.30371-1.52148.23535.0918.40918.29688.46094.54443.05176.24805-.02539.50537-.2041.68408l-3.70703,3.70703v2.37061h2.37109l3.70703-3.70703c.17871-.17822.43555-.25537.68359-.20361s.45312.2251.54492.46094c.9873,2.52539.38965,5.39209-1.52148,7.30371-.2511.25092-.52301.47131-.80408.67725l-1.07367-1.07355c.29028-.19342.56512-.41248.8172-.66473,1.2002-1.19922,1.73535-2.88281,1.49609-4.52148l-3.00879,3.00879c-.14062.14062-.33105.21973-.53027.21973h-3.43164c-.41406,0-.75-.33594-.75-.75v-3.43115c0-.19873.0791-.38965.21973-.53027l3.00879-3.00928c-1.63477-.23877-3.32129.29688-4.52148,1.49658-.58862.58862-1.01019,1.29559-1.26599,2.05463Zm-.0412,9.14075c.01477.59216.14734,1.17804.39264,1.72845l-4.59424,4.59424c-.61914.61914-1.43262.92871-2.24609.92871-.8125,0-1.62598-.30957-2.24512-.92871-.60059-.6001-.93066-1.39746-.93066-2.24609s.33008-1.646.93066-2.24609l6.15924-6.15961,1.06079,1.06079-6.15948,6.15985c-.31738.31689-.49121.73779-.49121,1.18506,0,.44775.17383.86865.49121,1.18555.65332.65186,1.71484.65381,2.37012,0l5.26215-5.26215Z" stroke-width="0"/></svg>