<?xml version="1.0" encoding="UTF-8"?><svg id="a" xmlns="http://www.w3.org/2000/svg" width="24" height="24" viewBox="0 0 24 24"><path d="m21.73486,5.11617c-.24658-.05078-.50488.02441-.68408.20361l-3.70703,3.70703h-2.37109v-2.37061l3.70752-3.70703c.1792-.17871.25586-.43604.20361-.68408-.05176-.24756-.2251-.45264-.46094-.54443-2.5249-.98779-5.39209-.39014-7.30371,1.52148-1.79395,1.79395-2.43066,4.42871-1.68652,6.83301l-7.25342,7.25391c-1.23828,1.23779-1.23828,3.25293,0,4.4917.61963.61914,1.43262.92871,2.24609.92871s1.62646-.30957,2.24561-.92871l7.25391-7.25342c2.40479.74365,5.03955.10742,6.83301-1.68652,1.91211-1.91162,2.50928-4.77881,1.52148-7.30371-.0918-.23584-.29688-.40918-.54443-.46094Zm-2.0376,6.7041c-1.4917,1.48975-3.729,1.95459-5.69727,1.18506-.27588-.10791-.59326-.04248-.80322.16846l-7.58643,7.58643c-.65332.65332-1.71631.65332-2.37061,0-.65332-.65381-.65332-1.71729,0-2.37061l7.58643-7.58643c.21094-.21045.27686-.52588.16846-.80322-.77051-1.97021-.30566-4.20654,1.18506-5.69727,1.01318-1.0127,2.37012-1.55225,3.75391-1.55225.25586,0,.5127.01855.76807.05566l-3.00928,3.00928c-.14062.14062-.21973.33154-.21973.53027v3.43115c0,.41406.33594.75.75.75h3.43164c.19873,0,.38965-.0791.53027-.21973l3.00928-3.00928c.23877,1.63916-.29639,3.32227-1.49658,4.52246Z" stroke-width="0"/></svg>