<?xml version="1.0" encoding="UTF-8"?>
<svg id="Layer_1" data-name="Layer 1" xmlns="http://www.w3.org/2000/svg" viewBox="0 0 342.71 224">
  <defs>
    <style>
      .cls-1 {
        fill: none;
        stroke: #020e32;
        stroke-miterlimit: 10;
        stroke-width: 2px;
      }

      .cls-2 {
        font-family: Montserrat-Regular, Montserrat;
        font-size: 48px;
      }

      .cls-2, .cls-3 {
        fill: #020e32;
      }

      .cls-4 {
        letter-spacing: -.04em;
      }
    </style>
  </defs>
  <text class="cls-2" transform="translate(31.06 193.05) scale(.94 1)"><tspan class="cls-4" x="0" y="0">P</tspan><tspan x="32.3" y="0">ANMODUL</tspan></text>
  <g>
    <polyline class="cls-1" points="185.31 59.51 153 27.2 120.68 59.51"/>
    <polyline class="cls-1" points="222.03 59.51 189.71 27.2 175.33 41.58 189.29 55.54"/>
    <polyline class="cls-1" points="189.29 55.54 153 19.25 116.7 55.54"/>
    <polyline class="cls-1" points="226 55.54 189.71 19.25 171.35 37.61 189.29 55.54"/>
    <rect class="cls-1" x="145.88" y="40.64" width="7.11" height="8.07"/>
    <rect class="cls-1" x="153" y="40.64" width="7.11" height="8.07"/>
    <rect class="cls-1" x="145.88" y="48.8" width="7.11" height="8.07"/>
    <rect class="cls-1" x="153" y="48.8" width="7.11" height="8.07"/>
  </g>
  <g>
    <path class="cls-3" d="M163.14,76.44c-2.21-2.12-4.93-3.65-8.04-4.74h-.01s-.04-.01-.06-.02c-3.48-1.21-7.48-1.81-11.99-1.81h-25.12v71.4h7.1v-22.54h18.02c4.51,0,8.51-.6,11.99-1.8,2.55-.87,4.81-2.06,6.8-3.58.47-.35.92-.71,1.35-1.1,3.73-3.32,6.03-7.62,6.88-12.89,0-.03,0-.06,0-.09l.05.09,18.14,32.83h3.36l26.36-48.04v57.12h6.81v-71.4h-5.85l-28.86,52.94s-19.49-35.68-21.81-39.61c-2.14-3.63-3.05-4.77-5.13-6.76ZM161.83,102.36c-.87,1.97-2.11,3.67-3.73,5.1-.92.8-1.94,1.5-3.07,2.09-3.2,1.7-7.26,2.55-12.18,2.55h-17.83v-35.7h17.83c4.92,0,8.98.85,12.18,2.55,1.13.59,2.15,1.29,3.07,2.09,1.62,1.42,2.86,3.13,3.73,5.13,1.03,2.33,1.54,5.06,1.54,8.18s-.51,5.71-1.54,8.01Z"/>
    <path class="cls-3" d="M155.09,119.47v21.8h6.8v-25.03c-2.07,1.4-4.36,2.49-6.8,3.23Z"/>
  </g>
</svg>